<svg id="svg" version="1.1" xmlns="http://www.w3.org/2000/svg" xmlns:xlink="http://www.w3.org/1999/xlink" width="400" height="400" viewBox="0, 0, 400,400"><g id="svgg"><path id="path0" d="M0.663 5.439 C 0.516 8.498,0.516 98.525,0.664 205.500 L 0.933 400.000 200.466 400.000 L 400.000 400.000 400.000 200.467 L 400.000 0.933 207.653 0.666 C 101.863 0.519,12.072 0.282,8.118 0.139 L 0.930 -0.122 0.663 5.439 M264.661 99.621 C 265.099 100.059,266.409 100.305,268.800 100.401 C 269.957 100.447,270.061 100.516,269.400 100.800 C 268.761 101.075,268.734 101.149,269.267 101.172 C 269.634 101.187,270.249 101.321,270.633 101.468 C 271.109 101.651,271.239 101.587,271.042 101.268 C 270.883 101.011,270.943 100.800,271.176 100.800 C 271.409 100.800,271.600 101.001,271.600 101.247 C 271.600 101.507,272.016 101.614,272.600 101.502 C 273.150 101.397,273.600 101.466,273.600 101.655 C 273.600 101.845,273.938 102.000,274.351 102.000 C 274.764 102.000,275.311 102.252,275.567 102.560 C 275.823 102.869,276.680 103.102,277.478 103.079 C 278.974 103.037,282.514 106.163,282.291 107.328 C 282.241 107.588,282.427 107.754,282.705 107.698 C 282.983 107.642,283.567 108.182,284.003 108.898 C 284.440 109.614,284.798 110.043,284.799 109.851 C 284.799 109.659,285.068 109.724,285.396 109.996 C 285.723 110.268,285.894 110.648,285.775 110.841 C 285.656 111.033,285.815 111.093,286.128 110.972 C 286.441 110.852,286.808 111.044,286.944 111.398 C 287.100 111.804,287.030 111.942,286.756 111.773 C 286.456 111.587,286.462 111.768,286.774 112.352 C 287.249 113.239,287.837 113.571,287.391 112.700 C 287.251 112.425,287.600 112.705,288.168 113.322 C 289.109 114.346,289.637 115.917,288.883 115.451 C 288.709 115.344,288.547 115.648,288.524 116.128 C 288.501 116.607,288.568 116.775,288.674 116.500 C 288.780 116.225,289.026 116.000,289.221 116.000 C 289.416 116.000,289.471 116.270,289.345 116.600 C 289.218 116.930,288.774 117.200,288.357 117.200 C 287.905 117.200,287.598 117.482,287.594 117.900 C 287.589 118.450,287.514 118.483,287.241 118.052 C 286.960 117.610,286.810 117.648,286.459 118.252 C 286.131 118.816,286.018 118.852,285.999 118.400 C 285.980 117.922,285.862 117.948,285.424 118.527 C 285.121 118.926,284.772 119.196,284.649 119.127 C 284.526 119.057,284.058 119.315,283.608 119.700 C 282.710 120.469,282.000 120.611,282.000 120.021 C 282.000 119.792,281.514 119.811,280.776 120.068 C 279.461 120.527,277.473 119.286,277.699 118.148 C 277.891 117.178,272.187 112.143,270.247 111.571 C 269.259 111.279,268.529 110.916,268.623 110.763 C 268.939 110.251,266.709 109.954,263.142 110.032 C 259.099 110.121,257.523 110.352,257.808 110.813 C 257.917 110.989,257.105 111.433,256.003 111.799 C 254.901 112.165,254.000 112.630,254.000 112.832 C 254.000 113.034,253.794 113.200,253.541 113.200 C 252.940 113.200,249.219 116.685,249.509 116.976 C 249.633 117.099,249.528 117.200,249.277 117.200 C 248.688 117.200,247.543 119.400,247.916 119.813 C 248.072 119.987,247.994 120.010,247.742 119.866 C 247.490 119.722,247.181 119.874,247.054 120.202 C 246.928 120.531,247.044 120.803,247.313 120.806 C 247.656 120.810,247.640 120.914,247.259 121.155 C 245.640 122.181,245.587 159.390,247.203 159.933 C 247.422 160.007,247.600 160.242,247.600 160.457 C 247.600 160.672,247.437 160.746,247.237 160.623 C 247.038 160.500,246.968 160.757,247.083 161.195 C 247.197 161.633,247.450 161.892,247.645 161.772 C 247.840 161.651,248.000 162.013,248.000 162.576 C 248.000 163.139,248.180 163.600,248.400 163.600 C 248.620 163.600,248.802 163.915,248.804 164.300 C 248.807 164.928,249.576 165.723,252.777 168.408 C 253.314 168.858,254.544 169.426,255.510 169.669 C 256.636 169.953,257.085 170.224,256.761 170.424 C 255.843 170.992,259.116 171.308,263.327 171.058 C 265.567 170.926,267.546 170.813,267.724 170.809 C 267.902 170.804,267.918 170.575,267.759 170.300 C 267.601 170.025,267.601 169.916,267.760 170.057 C 268.251 170.496,272.006 169.305,273.585 168.210 C 276.226 166.380,278.646 162.256,278.880 159.186 C 278.927 158.564,279.090 158.132,279.241 158.225 C 279.393 158.319,279.586 157.663,279.672 156.768 C 279.757 155.873,279.686 155.053,279.513 154.946 C 279.341 154.840,279.200 154.393,279.200 153.953 C 279.200 153.513,279.380 153.264,279.600 153.400 C 279.848 153.554,280.000 152.800,280.000 151.411 C 280.000 149.646,279.852 149.120,279.300 148.917 C 278.915 148.775,278.510 148.537,278.400 148.390 C 278.052 147.922,271.269 147.564,271.000 148.000 C 270.665 148.542,267.316 148.511,266.977 147.962 C 266.828 147.722,266.277 147.607,265.753 147.707 C 265.229 147.807,264.800 147.747,264.800 147.573 C 264.800 147.399,264.519 146.976,264.174 146.632 C 263.830 146.288,263.669 145.811,263.816 145.573 C 264.201 144.952,264.276 141.170,263.909 140.944 C 263.739 140.839,263.600 140.408,263.600 139.986 C 263.600 139.145,265.339 137.791,265.940 138.163 C 266.147 138.291,266.424 138.113,266.557 137.769 C 266.755 137.252,267.200 137.192,269.099 137.430 C 270.364 137.589,275.557 137.737,280.638 137.759 C 290.175 137.801,291.579 138.035,291.023 139.485 C 290.905 139.791,290.959 139.949,291.141 139.836 C 291.324 139.723,291.485 143.764,291.499 148.816 C 291.513 153.867,291.382 157.912,291.208 157.805 C 291.033 157.697,290.797 157.967,290.683 158.404 C 290.569 158.842,290.638 159.200,290.837 159.200 C 291.037 159.200,291.200 159.560,291.200 160.000 C 291.200 160.440,291.000 160.800,290.757 160.800 C 290.483 160.800,290.410 161.184,290.564 161.800 C 290.702 162.350,290.654 162.800,290.458 162.800 C 290.261 162.800,289.987 163.366,289.849 164.057 C 289.710 164.748,289.283 165.572,288.899 165.887 C 288.514 166.202,288.425 166.345,288.700 166.206 C 288.975 166.067,289.200 166.143,289.200 166.376 C 289.200 166.609,288.936 166.800,288.613 166.800 C 288.261 166.800,288.115 167.035,288.250 167.385 C 288.378 167.720,288.012 168.398,287.390 168.974 C 286.753 169.564,286.401 170.225,286.536 170.577 C 286.757 171.154,286.189 171.781,285.433 171.794 C 285.232 171.797,284.993 172.070,284.903 172.400 C 284.757 172.933,284.786 172.933,285.163 172.400 C 285.541 171.867,285.588 171.867,285.593 172.400 C 285.600 173.128,283.062 175.575,281.204 176.631 C 280.461 177.054,279.526 177.715,279.126 178.100 C 278.727 178.485,278.130 178.800,277.800 178.800 C 277.470 178.800,277.200 179.002,277.200 179.249 C 277.200 179.542,276.964 179.507,276.523 179.149 C 276.138 178.836,275.968 178.803,276.130 179.072 C 276.534 179.746,275.583 180.216,275.161 179.551 C 274.880 179.107,274.811 179.128,274.806 179.657 C 274.800 180.315,273.067 181.012,272.424 180.615 C 272.237 180.499,271.989 180.651,271.873 180.953 C 271.740 181.300,271.285 181.429,270.632 181.304 C 269.977 181.179,269.600 181.286,269.600 181.597 C 269.600 181.920,269.259 182.001,268.600 181.836 C 268.023 181.691,267.600 181.757,267.600 181.992 C 267.600 182.545,262.568 182.518,261.525 181.960 C 260.928 181.640,260.778 181.640,260.975 181.960 C 261.159 182.258,260.593 182.400,259.224 182.400 C 258.111 182.400,257.200 182.217,257.200 181.992 C 257.200 181.758,256.777 181.691,256.204 181.835 C 255.498 182.012,255.136 181.900,254.964 181.450 C 254.776 180.962,254.544 180.909,253.960 181.221 C 253.377 181.534,253.200 181.494,253.200 181.052 C 253.200 180.687,252.927 180.546,252.460 180.669 C 252.052 180.775,251.424 180.567,251.063 180.206 C 250.702 179.844,250.225 179.661,250.003 179.798 C 249.781 179.935,249.600 179.860,249.600 179.631 C 249.600 179.402,249.150 179.102,248.600 178.964 C 248.050 178.826,247.600 178.542,247.600 178.333 C 247.600 178.124,247.420 178.064,247.200 178.200 C 246.980 178.336,246.786 178.122,246.768 177.724 C 246.750 177.304,246.652 177.210,246.535 177.500 C 246.424 177.775,246.149 178.000,245.924 178.000 C 245.699 178.000,245.610 177.750,245.727 177.445 C 245.869 177.076,245.716 176.948,245.270 177.063 C 243.952 177.402,238.347 171.056,239.013 169.978 C 239.149 169.759,239.111 169.630,238.930 169.690 C 238.748 169.751,238.600 169.673,238.600 169.517 C 238.600 169.362,238.261 168.986,237.846 168.683 C 237.415 168.368,237.072 167.603,237.046 166.900 C 237.021 166.223,236.820 165.698,236.600 165.734 C 236.380 165.770,236.255 165.546,236.321 165.237 C 236.388 164.927,236.208 164.522,235.921 164.337 C 235.501 164.065,235.515 163.926,235.989 163.622 C 236.500 163.293,236.494 163.211,235.942 162.999 C 235.508 162.833,235.140 161.774,234.787 159.677 C 234.502 157.985,234.073 156.451,233.834 156.270 C 233.556 156.058,233.544 155.878,233.800 155.770 C 234.020 155.677,234.138 154.701,234.061 153.601 C 233.985 152.501,233.785 151.685,233.617 151.789 C 233.191 152.053,232.799 147.844,232.803 143.041 C 232.808 138.042,233.190 134.542,233.653 135.272 C 233.859 135.597,234.008 134.952,234.039 133.600 C 234.067 132.390,234.134 130.820,234.188 130.112 C 234.241 129.404,234.131 128.919,233.942 129.036 C 233.754 129.152,233.600 128.442,233.600 127.457 C 233.600 126.472,233.789 125.604,234.020 125.527 C 234.490 125.370,234.999 122.729,235.161 119.600 C 235.203 118.783,235.289 118.710,235.630 119.200 C 235.941 119.646,235.983 119.467,235.792 118.500 C 235.579 117.415,235.657 117.199,236.268 117.194 C 236.888 117.189,236.909 117.128,236.400 116.794 C 236.002 116.533,235.943 116.299,236.223 116.100 C 236.455 115.935,236.882 115.215,237.171 114.500 C 237.460 113.785,237.822 113.200,237.974 113.200 C 238.127 113.200,238.537 112.615,238.886 111.900 C 239.835 109.957,243.576 105.966,244.331 106.092 C 244.689 106.151,244.989 106.020,244.997 105.800 C 245.022 105.136,245.617 104.400,246.124 104.406 C 246.414 104.410,246.371 104.557,246.012 104.784 C 245.688 104.989,245.547 105.281,245.699 105.432 C 245.851 105.584,246.293 105.155,246.681 104.478 C 247.300 103.400,249.996 101.782,250.900 101.946 C 251.065 101.976,251.200 101.799,251.200 101.553 C 251.200 101.304,251.553 101.199,252.000 101.316 C 252.440 101.431,252.800 101.339,252.800 101.113 C 252.800 100.867,253.287 100.797,254.000 100.940 C 254.660 101.072,255.200 101.016,255.200 100.815 C 255.200 100.614,255.890 100.460,256.734 100.471 C 258.810 100.500,261.545 100.013,261.822 99.565 C 262.131 99.064,264.144 99.104,264.661 99.621 M112.000 148.800 C 112.000 149.060,118.000 149.200,129.200 149.200 C 141.962 149.200,146.400 149.081,146.400 148.737 C 146.400 148.145,180.389 148.536,180.760 149.132 C 180.892 149.345,182.080 149.654,183.400 149.819 C 185.170 150.040,185.590 150.200,185.000 150.431 C 184.560 150.603,184.410 150.756,184.667 150.772 C 184.924 150.787,185.449 150.921,185.833 151.068 C 186.309 151.251,186.439 151.187,186.242 150.868 C 186.068 150.587,186.202 150.400,186.576 150.400 C 186.919 150.400,187.200 150.692,187.200 151.049 C 187.200 151.572,187.313 151.604,187.782 151.215 C 188.435 150.673,189.354 151.027,188.958 151.668 C 188.803 151.919,189.035 151.903,189.552 151.626 C 190.234 151.261,190.400 151.285,190.400 151.748 C 190.400 152.142,190.674 152.254,191.263 152.100 C 191.868 151.941,192.037 152.017,191.829 152.353 C 191.613 152.703,191.830 152.758,192.632 152.556 C 193.577 152.319,193.693 152.381,193.457 152.997 C 193.224 153.602,193.276 153.635,193.791 153.208 C 194.208 152.862,194.400 152.844,194.400 153.151 C 194.400 153.398,194.726 153.600,195.124 153.600 C 195.521 153.600,196.196 153.883,196.624 154.230 C 197.051 154.576,197.130 154.743,196.800 154.600 C 196.470 154.457,196.549 154.624,196.976 154.970 C 197.581 155.460,197.823 155.489,198.070 155.100 C 198.295 154.747,198.390 154.812,198.394 155.324 C 198.397 155.722,198.544 155.958,198.719 155.850 C 198.895 155.742,199.300 155.818,199.619 156.020 C 200.122 156.339,200.120 156.390,199.600 156.406 C 199.129 156.420,199.151 156.512,199.703 156.834 C 200.090 157.059,200.579 157.137,200.790 157.006 C 201.001 156.876,201.392 157.118,201.658 157.545 C 201.925 157.971,202.368 158.234,202.644 158.128 C 202.920 158.022,203.433 158.490,203.783 159.168 C 204.475 160.506,204.924 160.826,204.529 159.700 C 204.394 159.315,205.124 159.806,206.150 160.791 C 207.176 161.776,207.934 162.796,207.833 163.058 C 207.733 163.320,207.921 163.637,208.251 163.764 C 208.581 163.891,208.740 164.174,208.605 164.393 C 208.463 164.622,208.620 164.691,208.974 164.555 C 209.378 164.400,209.716 164.642,209.960 165.259 C 210.164 165.777,210.796 166.820,211.365 167.578 C 211.934 168.335,212.400 169.190,212.400 169.478 C 212.400 169.765,212.556 170.000,212.747 170.000 C 213.191 170.000,214.519 174.684,214.215 175.176 C 214.090 175.379,214.182 175.665,214.421 175.813 C 214.659 175.960,214.760 176.328,214.644 176.629 C 214.529 176.930,214.685 177.428,214.991 177.734 C 215.363 178.106,215.415 178.425,215.149 178.691 C 214.882 178.958,214.972 179.315,215.418 179.761 C 215.819 180.162,216.013 180.817,215.903 181.395 C 215.797 181.948,215.931 182.441,216.216 182.551 C 217.166 182.915,216.876 190.595,215.864 191.882 C 215.397 192.476,215.236 192.825,215.507 192.657 C 216.247 192.200,216.131 193.926,215.370 194.687 C 214.858 195.199,214.840 195.381,215.270 195.665 C 215.690 195.942,215.651 196.103,215.078 196.440 C 214.532 196.761,214.463 196.994,214.797 197.397 C 215.061 197.715,215.088 198.022,214.865 198.160 C 214.659 198.287,214.372 199.023,214.227 199.796 C 214.082 200.568,213.798 201.200,213.594 201.200 C 213.391 201.200,213.322 201.452,213.440 201.760 C 213.558 202.067,213.459 202.440,213.221 202.587 C 212.982 202.735,212.891 203.023,213.017 203.228 C 213.144 203.432,213.076 203.600,212.867 203.600 C 212.658 203.600,212.374 204.050,212.236 204.600 C 212.098 205.150,211.798 205.600,211.569 205.600 C 211.340 205.600,211.264 205.780,211.400 206.000 C 211.536 206.220,211.356 206.400,211.000 206.400 C 210.644 206.400,210.456 206.567,210.581 206.770 C 210.939 207.348,209.916 209.253,209.362 209.041 C 209.089 208.936,208.763 209.118,208.638 209.446 C 208.490 209.832,208.584 209.953,208.905 209.790 C 209.177 209.652,209.026 209.871,208.569 210.278 C 208.112 210.684,207.807 211.222,207.891 211.474 C 207.975 211.726,207.683 212.047,207.242 212.187 C 206.802 212.326,206.521 212.657,206.619 212.920 C 206.844 213.525,204.070 216.491,203.569 216.181 C 203.365 216.055,203.019 216.424,202.800 217.000 C 202.557 217.640,202.221 217.937,201.939 217.762 C 201.674 217.598,201.584 217.651,201.729 217.885 C 201.868 218.109,201.625 218.615,201.191 219.009 C 200.756 219.402,200.400 219.522,200.400 219.275 C 200.400 219.027,200.115 218.935,199.766 219.068 C 199.312 219.243,199.267 219.394,199.607 219.604 C 199.923 219.800,199.607 220.259,198.658 220.983 C 196.500 222.629,194.467 223.581,194.248 223.049 C 194.146 222.802,194.049 222.895,194.032 223.257 C 194.004 223.830,192.320 224.642,191.514 224.470 C 191.357 224.437,191.323 224.654,191.438 224.954 C 191.580 225.325,191.067 225.669,189.823 226.036 C 188.820 226.332,188.000 226.710,188.000 226.875 C 188.000 227.040,187.730 227.071,187.400 226.945 C 187.049 226.810,186.797 226.940,186.794 227.257 C 186.789 227.704,186.728 227.706,186.452 227.270 C 186.176 226.835,186.016 226.841,185.550 227.307 C 185.238 227.619,184.558 228.101,184.038 228.380 C 183.278 228.787,183.201 228.962,183.646 229.273 C 184.053 229.558,184.073 229.713,183.722 229.856 C 183.460 229.964,183.344 230.309,183.464 230.624 C 183.585 230.938,183.845 231.096,184.042 230.974 C 184.239 230.852,184.414 230.898,184.431 231.076 C 184.539 232.222,184.807 232.957,185.208 233.205 C 185.461 233.361,185.653 233.604,185.634 233.745 C 185.527 234.543,185.645 234.819,186.000 234.600 C 186.220 234.464,186.400 234.633,186.400 234.976 C 186.400 235.319,186.580 235.600,186.800 235.600 C 187.020 235.600,187.200 235.851,187.200 236.157 C 187.200 236.464,187.470 236.818,187.800 236.945 C 188.130 237.071,188.397 237.406,188.394 237.687 C 188.390 238.051,188.264 238.025,187.963 237.600 C 187.586 237.067,187.559 237.067,187.720 237.600 C 187.819 237.930,188.093 238.158,188.328 238.107 C 188.971 237.968,190.238 239.954,191.008 242.308 C 191.384 243.459,191.781 244.400,191.889 244.400 C 191.997 244.400,191.982 244.130,191.855 243.800 C 191.729 243.470,191.714 243.200,191.822 243.200 C 192.016 243.200,192.901 245.123,192.966 245.687 C 192.985 245.845,193.357 246.385,193.793 246.887 C 194.229 247.389,194.544 247.935,194.493 248.100 C 194.442 248.265,194.580 248.400,194.800 248.400 C 195.020 248.400,195.200 248.749,195.200 249.176 C 195.200 249.603,195.378 250.063,195.595 250.197 C 195.830 250.342,195.884 250.163,195.727 249.755 C 195.549 249.289,195.615 249.162,195.932 249.358 C 196.189 249.517,196.400 249.984,196.400 250.397 C 196.400 250.809,196.773 251.264,197.229 251.409 C 197.744 251.573,197.973 251.894,197.834 252.257 C 197.710 252.578,197.772 252.741,197.971 252.618 C 198.171 252.495,198.620 253.257,198.971 254.311 C 199.321 255.366,199.956 256.480,200.382 256.787 C 200.808 257.094,201.067 257.491,200.958 257.668 C 200.848 257.846,201.069 257.872,201.449 257.726 C 201.984 257.521,202.079 257.616,201.874 258.151 C 201.728 258.531,201.749 258.755,201.920 258.649 C 202.092 258.543,202.653 259.250,203.167 260.220 C 203.682 261.190,204.243 261.897,204.414 261.792 C 204.773 261.570,208.000 265.299,208.000 265.936 C 208.000 266.169,208.315 266.544,208.700 266.768 C 209.252 267.089,209.273 267.180,208.800 267.194 C 208.318 267.209,208.305 267.279,208.734 267.551 C 209.028 267.737,209.298 268.049,209.334 268.245 C 209.370 268.440,209.518 268.561,209.662 268.513 C 209.806 268.465,210.166 268.724,210.462 269.090 C 210.919 269.653,210.914 269.701,210.427 269.408 C 210.113 269.218,210.359 269.724,210.975 270.532 C 211.591 271.339,212.219 272.000,212.371 272.000 C 212.523 272.000,212.996 272.283,213.424 272.630 C 213.851 272.976,213.975 273.145,213.700 273.006 C 212.818 272.559,213.164 273.279,214.400 274.460 C 215.060 275.091,215.600 275.506,215.600 275.383 C 215.600 275.260,217.376 276.923,219.548 279.080 C 222.025 281.540,223.328 283.109,223.048 283.294 C 222.748 283.491,222.741 283.590,223.028 283.594 C 223.263 283.597,224.061 284.140,224.800 284.800 C 225.539 285.460,226.450 286.000,226.823 286.000 C 227.601 286.000,228.523 286.943,228.130 287.337 C 227.889 287.578,228.579 287.761,229.300 287.647 C 229.465 287.621,229.600 287.739,229.600 287.909 C 229.600 288.395,232.273 289.709,232.862 289.513 C 233.154 289.415,233.608 289.550,233.870 289.813 C 234.132 290.075,235.259 290.411,236.374 290.559 C 237.897 290.761,238.408 290.998,238.432 291.514 C 238.451 291.931,238.542 292.004,238.665 291.700 C 238.963 290.962,239.595 291.093,239.632 291.900 C 239.649 292.285,239.748 292.394,239.851 292.142 C 240.458 290.661,242.453 293.056,242.564 295.400 C 242.638 296.948,240.607 299.347,240.015 298.411 C 239.696 297.907,239.605 297.921,239.379 298.511 C 239.233 298.890,238.943 299.200,238.734 299.200 C 238.524 299.200,238.484 298.975,238.645 298.700 C 238.806 298.425,238.577 298.515,238.137 298.900 C 237.697 299.285,236.766 299.600,236.069 299.600 C 235.371 299.600,234.800 299.780,234.800 300.000 C 234.800 300.638,229.639 300.496,228.982 299.840 C 228.568 299.425,228.035 299.366,226.933 299.615 C 225.353 299.972,224.364 299.717,225.237 299.177 C 225.524 299.000,225.003 298.956,224.079 299.080 C 222.983 299.227,222.400 299.152,222.400 298.863 C 222.400 298.584,221.955 298.509,221.200 298.660 C 220.516 298.797,220.000 298.731,220.000 298.505 C 220.000 298.288,219.550 298.197,219.000 298.302 C 218.255 298.444,218.000 298.322,218.000 297.823 C 218.000 297.450,217.811 297.270,217.573 297.416 C 217.339 297.561,216.875 297.347,216.544 296.940 C 216.212 296.533,216.055 296.425,216.194 296.700 C 216.573 297.448,215.966 297.303,215.357 296.500 C 215.032 296.072,214.820 295.995,214.813 296.300 C 214.793 297.080,214.001 296.887,213.994 296.100 C 213.989 295.545,213.915 295.514,213.637 295.953 C 213.341 296.421,213.158 296.416,212.446 295.917 C 211.984 295.593,211.739 295.181,211.903 295.000 C 212.066 294.819,211.991 294.791,211.736 294.937 C 210.972 295.374,209.927 294.769,210.201 294.048 C 210.394 293.540,210.342 293.505,209.960 293.883 C 209.579 294.262,209.149 294.110,207.979 293.183 C 207.157 292.533,206.289 292.000,206.050 292.000 C 205.811 292.000,205.498 291.533,205.355 290.962 C 205.161 290.189,205.005 290.061,204.744 290.462 C 204.365 291.044,202.789 289.435,202.930 288.610 C 202.969 288.384,202.640 288.200,202.200 288.199 C 201.760 288.199,201.400 287.989,201.400 287.733 C 201.400 287.476,201.236 287.117,201.036 286.933 C 200.824 286.740,200.792 286.810,200.959 287.100 C 201.520 288.073,200.539 287.582,199.233 286.235 C 198.413 285.388,198.027 284.680,198.217 284.373 C 198.402 284.074,198.359 283.978,198.111 284.132 C 197.876 284.277,197.594 283.871,197.459 283.194 C 197.322 282.508,196.966 282.000,196.623 282.000 C 196.230 282.000,196.113 281.772,196.281 281.334 C 196.443 280.912,196.378 280.766,196.103 280.936 C 195.865 281.084,195.032 280.438,194.253 279.502 C 193.474 278.566,192.986 277.747,193.170 277.683 C 193.354 277.618,192.974 277.035,192.326 276.387 C 191.651 275.712,191.270 275.010,191.435 274.743 C 191.604 274.470,191.550 274.383,191.307 274.534 C 190.790 274.854,189.932 273.876,190.086 273.142 C 190.149 272.844,189.987 272.641,189.727 272.691 C 188.962 272.838,186.755 269.805,187.259 269.301 C 187.561 268.999,187.468 268.893,186.943 268.937 C 186.465 268.978,186.219 268.754,186.254 268.312 C 186.283 267.934,186.013 267.529,185.654 267.413 C 184.877 267.161,183.916 265.260,184.273 264.682 C 184.411 264.459,184.336 264.392,184.107 264.534 C 183.878 264.675,183.468 264.523,183.196 264.196 C 182.800 263.718,182.810 263.595,183.251 263.573 C 183.553 263.558,183.392 263.349,182.893 263.109 C 182.259 262.803,182.058 262.448,182.224 261.926 C 182.380 261.432,182.281 261.217,181.930 261.290 C 181.636 261.351,181.425 261.089,181.456 260.700 C 181.486 260.315,181.266 260.000,180.966 260.000 C 180.666 260.000,180.121 259.415,179.754 258.700 C 179.388 257.985,178.960 257.310,178.804 257.200 C 178.204 256.778,177.576 255.163,177.843 254.730 C 178.008 254.463,177.946 254.386,177.691 254.544 C 177.452 254.691,177.148 254.466,177.014 254.043 C 176.879 253.620,176.506 253.173,176.185 253.050 C 175.863 252.926,175.600 252.549,175.600 252.213 C 175.600 251.876,175.398 251.600,175.151 251.600 C 174.858 251.600,174.893 251.364,175.251 250.923 C 175.611 250.479,175.630 250.348,175.306 250.543 C 174.735 250.886,173.093 248.481,173.379 247.720 C 173.481 247.450,173.329 247.329,173.031 247.443 C 172.429 247.674,171.864 246.544,172.261 245.902 C 172.409 245.661,172.335 245.593,172.091 245.744 C 171.847 245.894,171.534 245.615,171.375 245.106 C 171.219 244.608,170.891 244.068,170.646 243.906 C 170.338 243.703,170.362 243.610,170.724 243.606 C 171.012 243.603,171.134 243.417,170.996 243.193 C 170.858 242.970,170.577 242.891,170.372 243.017 C 170.036 243.225,169.830 242.677,169.953 241.900 C 169.979 241.735,169.820 241.600,169.600 241.600 C 169.380 241.600,169.200 241.330,169.200 241.000 C 169.200 240.670,169.026 240.400,168.813 240.400 C 168.599 240.400,168.532 240.123,168.662 239.784 C 168.808 239.402,168.701 239.212,168.380 239.284 C 168.078 239.352,167.674 238.756,167.410 237.852 C 167.161 237.001,166.640 236.072,166.252 235.788 C 165.864 235.505,165.559 235.166,165.573 235.036 C 165.665 234.221,165.522 233.999,164.900 233.994 C 164.341 233.989,164.312 233.917,164.757 233.635 C 165.183 233.366,164.930 233.040,163.691 232.257 C 162.798 231.694,161.951 231.045,161.810 230.816 C 161.648 230.554,158.971 230.400,154.558 230.400 L 147.564 230.400 146.482 231.482 L 145.400 232.563 145.348 254.182 C 145.296 275.835,145.506 281.635,146.349 281.916 C 146.597 281.999,146.800 282.332,146.800 282.657 C 146.800 283.013,146.602 283.135,146.300 282.965 C 146.025 282.809,146.205 283.076,146.700 283.557 C 147.565 284.397,147.787 284.942,147.614 285.800 C 147.570 286.020,147.669 286.065,147.834 285.899 C 148.248 285.486,149.643 286.808,149.329 287.315 C 149.190 287.540,149.265 287.607,149.496 287.464 C 149.727 287.321,150.029 287.499,150.168 287.860 C 150.306 288.220,150.522 288.411,150.648 288.286 C 150.774 288.160,151.495 288.404,152.250 288.828 C 153.655 289.617,154.684 289.901,153.600 289.200 C 153.117 288.888,153.181 288.811,153.924 288.806 C 154.432 288.803,154.749 288.960,154.628 289.155 C 154.508 289.350,154.767 289.603,155.204 289.717 C 155.641 289.831,156.100 289.762,156.223 289.562 C 156.512 289.095,158.800 289.087,158.800 289.553 C 158.800 290.034,160.765 290.380,161.033 289.946 C 161.343 289.445,163.200 289.520,163.200 290.033 C 163.200 290.272,163.425 290.386,163.700 290.288 C 164.434 290.026,166.207 291.028,167.165 292.246 C 168.022 293.336,168.316 295.600,167.600 295.600 C 167.380 295.600,167.200 295.864,167.200 296.186 C 167.200 297.084,165.951 297.557,163.627 297.539 C 162.467 297.530,161.320 297.720,161.079 297.961 C 160.512 298.528,155.494 298.534,154.928 297.968 C 154.685 297.725,153.049 297.546,151.177 297.558 C 149.322 297.571,147.625 297.386,147.329 297.141 C 147.038 296.900,146.800 296.836,146.800 297.000 C 146.800 297.164,146.495 297.051,146.123 296.749 C 145.663 296.376,145.543 296.360,145.747 296.700 C 145.953 297.043,145.757 297.198,145.124 297.194 C 144.381 297.189,144.317 297.112,144.800 296.800 C 145.198 296.543,142.465 296.410,136.700 296.406 C 130.736 296.402,128.000 296.536,128.000 296.832 C 128.000 297.107,127.548 297.164,126.750 296.989 C 125.926 296.808,125.587 296.856,125.756 297.130 C 126.214 297.869,125.519 297.912,117.285 297.654 C 110.902 297.454,109.096 297.278,108.819 296.831 C 108.367 296.100,108.394 291.949,108.848 292.230 C 109.037 292.346,109.084 292.163,108.954 291.823 C 108.716 291.205,110.257 290.292,110.900 290.671 C 111.065 290.768,111.200 290.567,111.200 290.224 C 111.200 289.509,112.036 289.396,112.666 290.026 C 112.967 290.327,113.274 290.269,113.714 289.829 C 114.177 289.366,114.791 289.269,116.108 289.449 C 117.542 289.646,117.928 289.564,118.137 289.021 C 118.278 288.651,118.563 288.454,118.770 288.581 C 118.976 288.709,119.258 288.630,119.396 288.407 C 119.534 288.183,119.948 288.000,120.316 288.000 C 121.565 288.000,125.460 283.355,125.918 281.320 C 126.307 279.590,126.345 169.365,125.958 166.237 C 125.745 164.517,125.349 163.197,124.908 162.741 C 124.519 162.338,123.750 161.548,123.200 160.985 C 122.315 160.080,122.292 159.988,123.000 160.187 C 123.440 160.311,123.170 160.106,122.400 159.733 C 120.850 158.981,120.675 158.922,119.776 158.850 C 119.433 158.822,119.264 158.620,119.400 158.400 C 119.536 158.180,119.457 157.978,119.224 157.950 C 118.991 157.923,118.665 157.865,118.500 157.822 C 118.335 157.779,116.815 157.498,115.122 157.198 C 113.430 156.897,112.123 156.525,112.218 156.371 C 112.313 156.217,112.033 155.997,111.596 155.883 C 111.158 155.769,110.800 155.838,110.800 156.037 C 110.800 156.237,110.421 156.400,109.957 156.400 C 109.417 156.400,109.188 156.208,109.320 155.864 C 109.433 155.569,109.346 155.074,109.125 154.764 C 108.806 154.314,108.769 154.339,108.945 154.887 C 109.066 155.265,108.997 155.678,108.793 155.805 C 108.570 155.942,108.465 154.644,108.531 152.590 C 108.611 150.113,108.804 149.042,109.221 148.779 C 110.001 148.285,112.000 148.300,112.000 148.800 M145.799 159.601 C 145.650 159.843,145.574 160.797,145.631 161.721 C 145.758 163.765,145.765 190.568,145.643 206.944 C 145.594 213.513,145.639 218.972,145.741 219.075 C 145.844 219.177,150.849 219.260,156.864 219.257 C 162.879 219.255,168.136 219.386,168.547 219.548 C 169.287 219.841,174.090 218.838,174.319 218.342 C 174.385 218.201,174.790 218.177,175.219 218.289 C 175.649 218.401,176.000 218.326,176.000 218.122 C 176.000 217.918,176.945 217.515,178.100 217.227 C 182.378 216.158,189.203 210.649,191.168 206.679 C 191.625 205.756,192.013 205.180,192.029 205.400 C 192.076 206.027,193.537 202.687,193.570 201.876 C 193.587 201.478,193.760 201.251,193.955 201.372 C 194.150 201.492,194.403 201.233,194.517 200.796 C 194.636 200.342,194.526 199.997,194.263 199.994 C 193.982 199.990,194.019 199.849,194.357 199.635 C 194.678 199.432,194.823 198.933,194.700 198.460 C 194.582 198.008,194.656 197.581,194.865 197.512 C 195.074 197.442,195.330 196.128,195.434 194.592 C 195.538 193.057,195.699 191.260,195.792 190.600 C 195.956 189.435,195.425 181.411,195.078 179.800 C 194.983 179.360,194.783 178.320,194.633 177.489 C 194.482 176.658,194.219 176.065,194.046 176.171 C 193.874 176.278,193.733 176.109,193.733 175.796 C 193.733 175.154,192.362 171.908,191.961 171.600 C 191.818 171.490,191.339 170.802,190.897 170.071 C 190.455 169.341,189.960 168.767,189.796 168.797 C 189.633 168.826,189.291 168.434,189.038 167.925 C 188.784 167.416,188.312 167.000,187.988 167.000 C 187.665 167.000,187.400 166.732,187.400 166.405 C 187.400 166.078,186.860 165.553,186.200 165.238 C 185.540 164.924,184.820 164.446,184.600 164.177 C 184.380 163.908,183.525 163.474,182.700 163.213 C 181.875 162.952,181.200 162.551,181.200 162.322 C 181.200 162.094,180.840 162.001,180.400 162.116 C 179.960 162.231,179.600 162.180,179.600 162.002 C 179.600 161.547,177.309 160.800,175.917 160.800 C 175.243 160.800,174.857 160.632,175.000 160.400 C 175.136 160.180,174.981 160.000,174.656 160.000 C 174.331 160.000,173.751 159.879,173.367 159.732 C 172.891 159.549,172.761 159.613,172.958 159.932 C 173.147 160.238,172.928 160.398,172.324 160.394 C 171.581 160.389,171.517 160.312,172.000 160.000 C 172.706 159.544,171.877 159.510,158.200 159.427 C 152.553 159.393,148.325 159.531,147.932 159.761 C 147.474 160.029,147.078 159.997,146.668 159.657 C 146.242 159.303,145.993 159.287,145.799 159.601 " stroke="none" fill="#d44c64" fill-rule="evenodd"></path><path id="path1" d="M290.700 0.300 C 310.775 0.357,343.625 0.357,363.700 0.300 C 383.775 0.243,367.350 0.196,327.200 0.196 C 287.050 0.196,270.625 0.243,290.700 0.300 M278.600 104.083 C 279.040 104.335,279.619 104.825,279.887 105.171 C 280.185 105.555,280.380 105.614,280.387 105.323 C 280.401 104.799,278.866 103.593,278.211 103.612 C 277.985 103.619,278.160 103.831,278.600 104.083 M278.861 119.418 C 279.224 119.789,279.740 120.020,280.006 119.931 C 280.273 119.842,279.975 119.539,279.345 119.256 C 278.273 118.776,278.242 118.786,278.861 119.418 M233.206 143.700 C 233.210 147.786,233.340 149.602,233.600 149.200 C 234.124 148.390,234.124 137.600,233.600 137.600 C 233.351 137.600,233.202 139.896,233.206 143.700 M174.000 149.200 L 169.800 149.443 174.924 149.522 C 178.257 149.573,179.961 149.460,179.800 149.200 C 179.664 148.980,179.248 148.835,178.876 148.878 C 178.504 148.921,176.310 149.066,174.000 149.200 M258.000 181.987 C 258.000 182.214,258.630 182.400,259.400 182.400 C 260.170 182.400,260.800 182.257,260.800 182.082 C 260.800 181.907,260.170 181.721,259.400 181.669 C 258.630 181.617,258.000 181.761,258.000 181.987 M215.671 186.360 C 215.592 188.311,215.707 189.619,215.971 189.782 C 216.263 189.963,216.400 188.957,216.400 186.624 C 216.400 182.322,215.844 182.121,215.671 186.360 M121.800 297.200 C 122.240 297.389,122.870 297.544,123.200 297.544 C 123.578 297.544,123.504 297.417,123.000 297.200 C 122.560 297.011,121.930 296.856,121.600 296.856 C 121.222 296.856,121.296 296.983,121.800 297.200 M0.193 359.000 C 0.193 381.660,0.241 390.871,0.300 379.469 C 0.359 368.068,0.359 349.528,0.300 338.269 C 0.241 327.011,0.193 336.340,0.193 359.000 " stroke="none" fill="#de8797" fill-rule="evenodd"></path><path id="path2" d="M163.131 0.300 C 174.862 0.359,193.942 0.359,205.531 0.300 C 217.119 0.241,207.520 0.193,184.200 0.193 C 160.880 0.193,151.399 0.241,163.131 0.300 M393.900 0.695 C 395.055 0.776,396.945 0.776,398.100 0.695 C 399.255 0.614,398.310 0.548,396.000 0.548 C 393.690 0.548,392.745 0.614,393.900 0.695 M0.093 7.600 C 0.093 8.370,0.175 8.685,0.276 8.300 C 0.376 7.915,0.376 7.285,0.276 6.900 C 0.175 6.515,0.093 6.830,0.093 7.600 M0.197 182.800 C 0.197 235.710,0.243 257.355,0.300 230.900 C 0.357 204.445,0.357 161.155,0.300 134.700 C 0.243 108.245,0.197 129.890,0.197 182.800 M109.275 149.216 C 108.794 149.664,108.411 150.339,108.425 150.716 C 108.445 151.249,108.526 151.212,108.793 150.551 C 108.982 150.085,109.601 149.586,110.168 149.444 C 110.736 149.301,111.200 149.008,111.200 148.792 C 111.200 148.134,110.200 148.354,109.275 149.216 M291.170 155.300 C 290.879 156.282,290.894 157.211,291.206 157.403 C 291.432 157.543,291.600 157.126,291.600 156.424 C 291.600 155.456,291.332 154.756,291.170 155.300 M204.800 160.227 C 204.800 160.556,207.696 163.237,207.867 163.067 C 208.037 162.896,205.356 160.000,205.027 160.000 C 204.902 160.000,204.800 160.102,204.800 160.227 M145.381 177.400 C 145.381 185.540,145.434 188.813,145.500 184.674 C 145.565 180.534,145.565 173.874,145.499 169.874 C 145.434 165.873,145.381 169.260,145.381 177.400 M283.552 174.000 C 282.645 174.880,282.015 175.600,282.151 175.600 C 282.288 175.600,283.141 174.880,284.048 174.000 C 284.955 173.120,285.585 172.400,285.449 172.400 C 285.312 172.400,284.459 173.120,283.552 174.000 M242.849 175.200 C 244.543 176.780,244.800 176.968,244.800 176.625 C 244.800 176.316,241.812 173.607,241.466 173.603 C 241.283 173.602,241.905 174.320,242.849 175.200 M266.000 182.000 C 266.776 182.501,267.200 182.501,267.200 182.000 C 267.200 181.780,266.795 181.603,266.300 181.606 C 265.572 181.611,265.515 181.686,266.000 182.000 M145.293 193.600 C 145.293 194.370,145.375 194.685,145.476 194.300 C 145.576 193.915,145.576 193.285,145.476 192.900 C 145.375 192.515,145.293 192.830,145.293 193.600 M215.569 192.500 C 215.316 193.328,215.346 194.000,215.635 194.000 C 215.836 194.000,216.000 193.640,216.000 193.200 C 216.000 192.557,215.701 192.071,215.569 192.500 M145.320 197.200 C 145.320 198.410,145.395 198.905,145.487 198.300 C 145.578 197.695,145.578 196.705,145.487 196.100 C 145.395 195.495,145.320 195.990,145.320 197.200 M165.600 291.800 C 166.117 292.350,166.598 292.800,166.670 292.800 C 167.024 292.800,166.728 291.985,166.171 291.429 C 165.123 290.380,164.591 290.726,165.600 291.800 M242.054 295.374 C 242.025 295.800,241.609 296.565,241.130 297.074 C 240.652 297.583,240.444 298.000,240.668 298.000 C 241.460 298.000,242.465 296.468,242.287 295.533 C 242.148 294.805,242.097 294.770,242.054 295.374 M118.600 297.200 L 114.600 297.445 118.400 297.516 C 120.490 297.556,122.470 297.413,122.800 297.200 C 123.130 296.987,123.220 296.844,123.000 296.884 C 122.780 296.923,120.800 297.065,118.600 297.200 M223.200 298.800 C 223.530 299.013,224.070 299.188,224.400 299.188 C 224.933 299.188,224.933 299.145,224.400 298.800 C 224.070 298.587,223.530 298.412,223.200 298.412 C 222.667 298.412,222.667 298.455,223.200 298.800 " stroke="none" fill="#d16d7d" fill-rule="evenodd"></path><path id="path3" d="M0.544 3.600 C 0.544 5.690,0.612 6.545,0.694 5.500 C 0.776 4.455,0.776 2.745,0.694 1.700 C 0.612 0.655,0.544 1.510,0.544 3.600 M43.068 0.300 C 61.146 0.358,90.846 0.358,109.068 0.300 C 127.291 0.242,112.500 0.195,76.200 0.195 C 39.900 0.195,24.991 0.242,43.068 0.300 M205.900 0.700 C 240.055 0.756,295.945 0.756,330.100 0.700 C 364.255 0.644,336.310 0.597,268.000 0.597 C 199.690 0.597,171.745 0.644,205.900 0.700 M0.114 10.600 C 0.117 11.700,0.195 12.103,0.287 11.495 C 0.379 10.886,0.377 9.986,0.282 9.495 C 0.187 9.003,0.111 9.500,0.114 10.600 M0.192 50.000 C 0.192 70.350,0.240 78.675,0.300 68.500 C 0.359 58.325,0.359 41.675,0.300 31.500 C 0.240 21.325,0.192 29.650,0.192 50.000 M261.862 99.500 C 261.760 99.665,262.362 99.800,263.200 99.800 C 264.038 99.800,264.640 99.665,264.538 99.500 C 264.436 99.335,263.834 99.200,263.200 99.200 C 262.566 99.200,261.964 99.335,261.862 99.500 M241.632 108.280 C 240.514 109.534,239.600 110.739,239.600 110.958 C 239.600 111.176,240.005 110.821,240.500 110.168 C 240.995 109.515,242.081 108.310,242.913 107.490 C 243.746 106.671,244.255 106.000,244.045 106.000 C 243.836 106.000,242.750 107.026,241.632 108.280 M238.182 112.940 C 237.326 113.882,237.143 114.397,237.748 114.164 C 238.073 114.040,238.446 113.656,238.578 113.312 C 238.886 112.511,238.716 112.353,238.182 112.940 M233.600 127.376 C 233.600 128.353,233.743 129.241,233.918 129.349 C 234.092 129.457,234.251 128.658,234.269 127.573 C 234.288 126.488,234.145 125.600,233.952 125.600 C 233.758 125.600,233.600 126.399,233.600 127.376 M266.645 137.528 C 266.533 137.708,266.973 137.777,267.621 137.682 C 268.270 137.587,268.800 137.440,268.800 137.355 C 268.800 137.050,266.843 137.207,266.645 137.528 M232.959 143.200 C 232.959 146.390,233.021 147.695,233.097 146.100 C 233.173 144.505,233.173 141.895,233.097 140.300 C 233.021 138.705,232.959 140.010,232.959 143.200 M0.598 271.800 C 0.598 342.420,0.644 371.370,0.700 336.132 C 0.756 300.895,0.756 243.115,0.700 207.732 C 0.644 172.350,0.598 201.180,0.598 271.800 M146.400 148.806 C 146.400 149.074,151.060 149.191,160.100 149.151 C 168.263 149.115,173.153 148.961,172.200 148.768 C 169.779 148.281,146.400 148.315,146.400 148.806 M279.200 153.933 C 279.200 154.410,279.364 154.800,279.565 154.800 C 279.971 154.800,279.911 153.777,279.478 153.345 C 279.325 153.192,279.200 153.457,279.200 153.933 M202.400 158.390 C 202.400 158.642,202.566 158.744,202.770 158.619 C 202.973 158.493,203.225 158.666,203.329 159.003 C 203.476 159.477,203.505 159.463,203.459 158.941 C 203.393 158.188,202.400 157.671,202.400 158.390 M145.781 178.600 C 145.781 186.740,145.834 190.013,145.900 185.874 C 145.965 181.734,145.965 175.074,145.899 171.074 C 145.834 167.073,145.781 170.460,145.781 178.600 M209.043 164.967 C 209.176 165.315,209.461 165.600,209.676 165.600 C 210.202 165.600,209.873 164.691,209.275 164.492 C 208.982 164.394,208.893 164.577,209.043 164.967 M212.684 170.800 C 212.799 171.240,213.035 171.600,213.209 171.600 C 213.383 171.600,213.431 171.240,213.316 170.800 C 213.201 170.360,212.965 170.000,212.791 170.000 C 212.617 170.000,212.569 170.360,212.684 170.800 M126.109 174.000 C 126.109 174.990,126.187 175.395,126.282 174.900 C 126.378 174.405,126.378 173.595,126.282 173.100 C 126.187 172.605,126.109 173.010,126.109 174.000 M284.577 173.367 C 284.150 173.679,283.907 174.040,284.036 174.170 C 284.166 174.299,284.598 174.044,284.998 173.602 C 285.848 172.663,285.673 172.566,284.577 173.367 M282.012 175.584 C 281.688 175.789,281.521 176.054,281.641 176.174 C 281.760 176.294,282.205 176.129,282.629 175.809 C 283.473 175.171,282.960 174.985,282.012 175.584 M278.252 178.209 C 278.061 178.706,278.164 178.741,278.809 178.395 C 279.736 177.899,279.824 177.600,279.043 177.600 C 278.736 177.600,278.380 177.874,278.252 178.209 M215.870 182.675 C 216.129 182.859,216.420 183.728,216.517 184.605 C 216.692 186.188,216.693 186.187,216.647 184.431 C 216.615 183.226,216.409 182.611,216.000 182.501 C 215.588 182.390,215.547 182.444,215.870 182.675 M216.509 189.200 C 216.509 190.190,216.587 190.595,216.682 190.100 C 216.778 189.605,216.778 188.795,216.682 188.300 C 216.587 187.805,216.509 188.210,216.509 189.200 M163.891 219.489 C 164.601 219.577,165.861 219.579,166.691 219.492 C 167.521 219.405,166.940 219.333,165.400 219.331 C 163.860 219.329,163.181 219.400,163.891 219.489 M198.600 220.623 C 197.854 221.256,197.715 221.491,198.233 221.243 C 198.976 220.887,200.325 219.597,199.949 219.602 C 199.867 219.603,199.260 220.063,198.600 220.623 M146.202 231.198 C 145.803 231.639,145.607 232.000,145.767 232.000 C 146.188 232.000,147.328 230.795,147.112 230.579 C 147.011 230.478,146.602 230.756,146.202 231.198 M162.228 231.231 C 162.713 231.767,163.036 231.893,163.139 231.584 C 163.226 231.322,163.051 230.951,162.749 230.760 C 161.751 230.128,161.464 230.387,162.228 231.231 M187.414 237.106 C 187.641 237.268,188.226 237.919,188.714 238.554 C 189.863 240.050,189.873 239.536,188.725 237.984 C 188.243 237.333,187.658 236.803,187.425 236.806 C 187.135 236.810,187.131 236.906,187.414 237.106 M180.018 259.234 C 180.264 259.693,180.544 259.989,180.642 259.892 C 180.922 259.612,180.354 258.400,179.943 258.400 C 179.739 258.400,179.773 258.775,180.018 259.234 M206.703 264.437 C 206.973 264.787,207.097 265.170,206.979 265.287 C 206.862 265.405,207.043 265.608,207.383 265.738 C 208.287 266.085,208.136 265.440,207.107 264.562 C 206.560 264.095,206.403 264.047,206.703 264.437 M187.929 271.104 C 188.660 272.031,189.470 272.912,189.729 273.063 C 189.988 273.214,189.885 272.977,189.500 272.537 C 189.115 272.097,188.794 271.571,188.787 271.369 C 188.781 271.166,188.286 270.644,187.687 270.210 C 186.659 269.462,186.672 269.511,187.929 271.104 M217.200 276.991 C 217.200 277.260,220.838 280.921,221.800 281.619 C 222.240 281.938,221.430 280.985,220.000 279.500 C 217.418 276.820,217.200 276.624,217.200 276.991 M193.957 279.146 C 195.621 281.247,196.255 281.648,195.095 279.866 C 194.603 279.109,193.853 278.268,193.428 277.997 C 192.951 277.692,193.153 278.131,193.957 279.146 M197.954 284.713 C 198.158 285.096,198.748 285.766,199.263 286.202 L 200.200 286.994 199.296 285.967 C 198.799 285.403,198.492 284.841,198.614 284.720 C 198.735 284.598,198.553 284.391,198.208 284.258 C 197.715 284.069,197.661 284.166,197.954 284.713 M114.000 289.500 C 114.000 289.665,114.433 289.800,114.962 289.800 C 115.491 289.800,115.840 289.665,115.738 289.500 C 115.636 289.335,115.203 289.200,114.776 289.200 C 114.349 289.200,114.000 289.335,114.000 289.500 M156.264 289.500 C 156.163 289.665,156.693 289.832,157.440 289.872 C 158.188 289.911,158.800 289.776,158.800 289.572 C 158.800 289.130,156.529 289.066,156.264 289.500 M161.200 289.753 C 161.200 289.838,161.650 289.993,162.200 290.098 C 162.750 290.203,163.200 290.134,163.200 289.945 C 163.200 289.755,162.750 289.600,162.200 289.600 C 161.650 289.600,161.200 289.669,161.200 289.753 M203.839 289.938 C 203.700 290.161,203.782 290.465,204.020 290.612 C 204.635 290.993,205.032 290.472,204.518 289.958 C 204.231 289.671,204.007 289.664,203.839 289.938 M166.990 292.700 C 167.610 293.979,168.000 294.344,168.000 293.644 C 168.000 293.449,167.631 292.864,167.180 292.344 L 166.360 291.400 166.990 292.700 M124.000 297.600 L 122.200 297.880 123.876 297.940 C 124.798 297.973,125.664 297.820,125.800 297.600 C 125.936 297.380,125.992 297.227,125.924 297.260 C 125.856 297.293,124.990 297.446,124.000 297.600 M155.062 298.100 C 155.164 298.265,156.486 298.400,158.000 298.400 C 159.514 298.400,160.836 298.265,160.938 298.100 C 161.040 297.935,159.718 297.800,158.000 297.800 C 156.282 297.800,154.960 297.935,155.062 298.100 M229.200 300.100 C 229.200 300.265,230.460 300.400,232.000 300.400 C 233.540 300.400,234.800 300.265,234.800 300.100 C 234.800 299.935,233.540 299.800,232.000 299.800 C 230.460 299.800,229.200 299.935,229.200 300.100 " stroke="none" fill="#d45c74" fill-rule="evenodd"></path><path id="path4" d="M0.140 3.200 C 0.140 5.070,0.209 5.835,0.293 4.900 C 0.377 3.965,0.377 2.435,0.293 1.500 C 0.209 0.565,0.140 1.330,0.140 3.200 M233.300 0.299 C 237.205 0.365,243.595 0.365,247.500 0.299 C 251.405 0.234,248.210 0.180,240.400 0.180 C 232.590 0.180,229.395 0.234,233.300 0.299 M233.200 137.000 C 233.200 137.330,233.380 137.600,233.600 137.600 C 233.820 137.600,234.000 137.330,234.000 137.000 C 234.000 136.670,233.820 136.400,233.600 136.400 C 233.380 136.400,233.200 136.670,233.200 137.000 M176.100 149.076 C 176.485 149.176,177.115 149.176,177.500 149.076 C 177.885 148.975,177.570 148.893,176.800 148.893 C 176.030 148.893,175.715 148.975,176.100 149.076 M233.400 149.600 C 233.250 150.073,233.217 150.550,233.327 150.660 C 233.437 150.770,233.650 150.473,233.800 150.000 C 233.950 149.527,233.983 149.050,233.873 148.940 C 233.763 148.830,233.550 149.127,233.400 149.600 M155.913 219.495 C 157.076 219.576,158.876 219.576,159.913 219.493 C 160.951 219.411,160.000 219.345,157.800 219.346 C 155.600 219.347,154.751 219.414,155.913 219.495 M0.185 298.400 C 0.185 309.290,0.237 313.745,0.300 308.300 C 0.363 302.855,0.363 293.945,0.300 288.500 C 0.237 283.055,0.185 287.510,0.185 298.400 M241.511 293.574 C 241.882 294.220,242.238 294.695,242.304 294.630 C 242.554 294.379,241.600 292.400,241.229 292.400 C 241.013 292.400,241.140 292.928,241.511 293.574 M157.300 297.887 C 157.905 297.978,158.895 297.978,159.500 297.887 C 160.105 297.795,159.610 297.720,158.400 297.720 C 157.190 297.720,156.695 297.795,157.300 297.887 M230.700 299.889 C 231.415 299.978,232.585 299.978,233.300 299.889 C 234.015 299.801,233.430 299.728,232.000 299.728 C 230.570 299.728,229.985 299.801,230.700 299.889 " stroke="none" fill="#dc748c" fill-rule="evenodd"></path></g></svg>