<svg id="svg" version="1.1" xmlns="http://www.w3.org/2000/svg" xmlns:xlink="http://www.w3.org/1999/xlink" width="400" height="400" viewBox="0, 0, 400,400"><g id="svgg"><path id="path0" d="M192.753 0.213 C 94.927 3.581,13.572 78.131,1.583 175.391 C -12.363 288.534,70.696 390.255,184.426 399.315 C 289.523 407.688,383.806 331.867,398.028 227.539 C 414.120 109.501,325.438 4.320,206.348 0.196 C 200.348 -0.012,199.251 -0.011,192.753 0.213 M125.977 73.273 C 134.047 74.813,139.800 83.103,138.398 91.173 C 136.133 104.211,120.434 109.071,111.379 99.539 C 100.809 88.411,110.828 70.383,125.977 73.273 M134.912 207.275 L 134.863 290.918 122.803 290.968 L 110.742 291.019 110.742 207.326 L 110.742 123.633 122.852 123.633 L 134.961 123.633 134.912 207.275 M246.864 124.086 C 262.181 125.787,274.051 129.549,285.373 136.290 C 322.640 158.478,335.453 209.759,313.373 248.359 C 299.752 272.171,276.072 287.184,246.875 290.520 C 241.591 291.123,234.286 291.229,202.051 291.171 L 170.215 291.113 170.166 207.367 L 170.117 123.620 206.982 123.686 C 240.228 123.745,244.144 123.784,246.864 124.086 M194.336 207.324 L 194.336 269.336 215.088 269.333 C 243.874 269.329,248.553 268.898,259.180 265.274 C 283.804 256.877,299.273 234.424,299.308 207.031 C 299.350 174.812,280.362 152.327,248.438 146.788 C 240.826 145.468,237.378 145.321,213.916 145.316 L 194.336 145.313 194.336 207.324 " stroke="none" fill="#d44c64" fill-rule="evenodd"></path><path id="path1" d="M119.727 73.339 C 105.519 76.198,102.517 95.347,115.162 102.459 C 125.506 108.277,138.467 100.701,138.475 88.831 C 138.482 78.875,129.421 71.388,119.727 73.339 M110.742 207.227 L 110.742 290.820 122.754 290.820 L 134.766 290.820 134.766 207.227 L 134.766 123.633 122.754 123.633 L 110.742 123.633 110.742 207.227 M170.117 207.316 L 170.117 291.016 204.770 291.016 C 244.294 291.016,245.311 290.981,254.293 289.340 C 303.275 280.388,333.398 234.319,321.586 186.426 C 313.134 152.157,286.588 129.170,250.195 124.606 C 243.389 123.752,243.970 123.765,206.396 123.689 L 170.117 123.616 170.117 207.316 M242.188 145.768 C 278.446 150.178,299.545 172.735,299.490 207.031 C 299.439 238.591,279.005 262.909,248.129 268.152 C 241.833 269.221,242.432 269.199,217.432 269.279 L 194.141 269.354 194.141 207.323 L 194.141 145.292 216.846 145.369 C 236.365 145.436,239.921 145.492,242.188 145.768 " stroke="none" fill="#fbfbfb" fill-rule="evenodd"></path><path id="path2" d="M192.627 0.145 C 193.459 0.182,194.822 0.182,195.654 0.145 C 196.487 0.109,195.806 0.079,194.141 0.079 C 192.476 0.079,191.794 0.109,192.627 0.145 M204.346 0.145 C 205.178 0.182,206.541 0.182,207.373 0.145 C 208.206 0.109,207.524 0.079,205.859 0.079 C 204.194 0.079,203.513 0.109,204.346 0.145 M188.232 0.338 C 188.689 0.379,189.436 0.379,189.893 0.338 C 190.349 0.297,189.976 0.264,189.063 0.264 C 188.149 0.264,187.776 0.297,188.232 0.338 M210.107 0.338 C 210.564 0.379,211.311 0.379,211.768 0.338 C 212.224 0.297,211.851 0.264,210.938 0.264 C 210.024 0.264,209.651 0.297,210.107 0.338 M185.107 0.532 C 185.457 0.575,186.028 0.575,186.377 0.532 C 186.726 0.489,186.440 0.453,185.742 0.453 C 185.044 0.453,184.758 0.489,185.107 0.532 M213.623 0.532 C 213.972 0.575,214.543 0.575,214.893 0.532 C 215.242 0.489,214.956 0.453,214.258 0.453 C 213.560 0.453,213.274 0.489,213.623 0.532 M182.767 0.727 C 183.118 0.771,183.646 0.770,183.939 0.725 C 184.233 0.681,183.945 0.645,183.301 0.646 C 182.656 0.648,182.416 0.684,182.767 0.727 M216.361 0.727 C 216.712 0.771,217.239 0.770,217.533 0.725 C 217.826 0.681,217.539 0.645,216.895 0.646 C 216.250 0.648,216.010 0.684,216.361 0.727 M180.520 0.921 C 180.817 0.966,181.257 0.965,181.497 0.919 C 181.737 0.872,181.494 0.836,180.957 0.837 C 180.420 0.839,180.223 0.877,180.520 0.921 M218.606 0.921 C 218.903 0.966,219.343 0.965,219.583 0.919 C 219.823 0.872,219.580 0.836,219.043 0.837 C 218.506 0.839,218.309 0.877,218.606 0.921 M178.567 1.117 C 178.864 1.162,179.303 1.160,179.544 1.114 C 179.784 1.068,179.541 1.031,179.004 1.032 C 178.467 1.034,178.270 1.072,178.567 1.117 M220.559 1.117 C 220.856 1.162,221.296 1.160,221.536 1.114 C 221.776 1.068,221.533 1.031,220.996 1.032 C 220.459 1.034,220.262 1.072,220.559 1.117 M175.586 1.367 C 174.792 1.491,174.773 1.505,175.391 1.516 C 175.767 1.523,176.514 1.460,177.051 1.376 C 177.975 1.232,177.985 1.224,177.246 1.227 C 176.816 1.229,176.069 1.292,175.586 1.367 M222.412 1.310 C 222.654 1.356,223.049 1.356,223.291 1.310 C 223.533 1.263,223.335 1.225,222.852 1.225 C 222.368 1.225,222.170 1.263,222.412 1.310 M224.172 1.505 C 224.415 1.552,224.767 1.550,224.953 1.501 C 225.140 1.452,224.941 1.414,224.512 1.416 C 224.082 1.419,223.929 1.459,224.172 1.505 M170.508 2.040 C 166.178 2.709,162.483 3.369,162.571 3.457 C 162.615 3.500,164.528 3.226,166.823 2.847 C 169.118 2.469,171.831 2.035,172.852 1.883 C 173.872 1.732,174.399 1.606,174.023 1.605 C 173.647 1.604,172.065 1.799,170.508 2.040 M226.172 1.768 C 226.655 1.854,227.314 1.920,227.637 1.914 C 228.069 1.907,227.992 1.863,227.344 1.748 C 226.860 1.662,226.201 1.596,225.879 1.601 C 225.447 1.609,225.524 1.652,226.172 1.768 M230.273 2.353 C 231.401 2.547,232.544 2.701,232.813 2.696 C 233.081 2.691,232.378 2.526,231.250 2.330 C 230.122 2.134,228.979 1.980,228.711 1.987 C 228.442 1.994,229.146 2.159,230.273 2.353 M234.570 3.042 C 235.269 3.185,236.016 3.296,236.230 3.288 C 236.445 3.280,236.050 3.156,235.352 3.013 C 234.653 2.870,233.906 2.759,233.691 2.767 C 233.477 2.775,233.872 2.898,234.570 3.042 M240.234 4.100 C 242.222 4.529,243.930 4.854,244.031 4.821 C 244.239 4.752,238.599 3.554,237.402 3.412 C 236.973 3.361,238.247 3.671,240.234 4.100 M159.962 3.863 C 159.157 4.031,158.588 4.197,158.698 4.234 C 158.807 4.270,159.686 4.133,160.650 3.928 C 161.614 3.722,162.183 3.556,161.914 3.557 C 161.646 3.558,160.767 3.696,159.962 3.863 M155.125 4.929 C 153.700 5.259,152.572 5.566,152.618 5.612 C 152.690 5.685,157.771 4.602,158.301 4.402 C 158.983 4.143,157.325 4.418,155.125 4.929 M245.605 5.287 C 246.357 5.489,247.104 5.649,247.266 5.642 C 247.427 5.635,246.943 5.463,246.191 5.260 C 245.439 5.058,244.692 4.898,244.531 4.905 C 244.370 4.912,244.854 5.084,245.605 5.287 M150.977 5.957 C 150.493 6.097,150.273 6.214,150.488 6.216 C 150.703 6.218,151.230 6.104,151.660 5.963 C 152.672 5.629,152.123 5.625,150.977 5.957 M148.379 6.586 C 147.757 6.749,147.286 6.921,147.332 6.968 C 147.420 7.056,149.838 6.474,149.984 6.330 C 150.128 6.188,149.539 6.282,148.379 6.586 M250.688 6.524 C 251.120 6.668,251.779 6.838,252.153 6.902 C 252.800 7.013,252.795 7.006,252.047 6.757 C 251.615 6.613,250.955 6.444,250.582 6.379 C 249.934 6.268,249.939 6.275,250.688 6.524 M146.387 7.133 C 146.279 7.172,145.069 7.530,143.697 7.927 C 142.325 8.325,141.236 8.684,141.278 8.726 C 141.341 8.788,146.346 7.396,146.973 7.141 C 147.215 7.043,146.656 7.035,146.387 7.133 M252.946 7.103 C 252.991 7.143,254.472 7.592,256.238 8.101 C 321.138 26.819,374.251 80.208,392.203 144.774 C 392.554 146.036,392.879 147.030,392.925 146.984 C 393.070 146.839,391.243 140.774,389.515 135.657 C 368.709 74.071,318.483 25.990,255.976 7.820 C 253.467 7.091,252.737 6.918,252.946 7.103 M136.621 10.141 C 80.395 29.169,36.191 70.874,14.152 125.688 C 11.369 132.610,6.920 146.175,6.371 149.414 C 6.185 150.509,6.498 149.526,7.522 145.801 C 24.753 83.105,73.001 32.280,135.840 10.628 C 138.740 9.628,140.981 8.813,140.820 8.815 C 140.659 8.817,138.770 9.414,136.621 10.141 M122.414 72.990 C 122.657 73.036,123.009 73.035,123.196 72.986 C 123.382 72.937,123.184 72.899,122.754 72.901 C 122.324 72.903,122.171 72.943,122.414 72.990 M134.862 207.227 C 134.862 253.257,134.885 272.087,134.912 249.072 C 134.939 226.057,134.939 188.396,134.912 165.381 C 134.885 142.366,134.862 161.196,134.862 207.227 M194.237 207.324 C 194.237 241.484,194.260 255.430,194.287 238.314 C 194.315 221.199,194.315 193.249,194.287 176.205 C 194.260 159.160,194.237 173.164,194.237 207.324 M392.969 147.344 C 392.969 147.440,395.199 156.627,395.487 157.715 L 395.693 158.496 395.591 157.715 C 395.380 156.116,392.969 146.576,392.969 147.344 M4.888 155.377 C 4.536 156.940,4.285 158.257,4.330 158.302 C 4.376 158.347,4.700 157.104,5.051 155.539 C 5.402 153.975,5.653 152.658,5.609 152.614 C 5.565 152.570,5.240 153.813,4.888 155.377 M3.544 161.758 C 2.991 164.669,2.618 167.124,2.837 166.406 C 3.047 165.717,4.303 158.730,4.229 158.656 C 4.185 158.612,3.876 160.008,3.544 161.758 M395.734 158.789 C 395.727 158.950,395.890 159.829,396.097 160.742 C 396.305 161.655,396.429 162.007,396.374 161.523 C 396.259 160.514,395.753 158.350,395.734 158.789 M396.484 162.604 C 396.484 162.696,396.789 164.623,397.162 166.884 C 397.535 169.146,397.927 171.523,398.033 172.168 L 398.226 173.340 398.123 172.070 C 397.952 169.944,396.484 161.465,396.484 162.604 M2.253 169.148 C 2.062 170.442,1.944 171.541,1.992 171.589 C 2.041 171.637,2.236 170.617,2.427 169.322 C 2.619 168.027,2.736 166.929,2.688 166.881 C 2.640 166.833,2.445 167.853,2.253 169.148 M1.667 173.151 C 1.590 173.863,1.569 174.486,1.619 174.536 C 1.669 174.586,1.773 174.045,1.849 173.333 C 1.925 172.622,1.946 171.999,1.896 171.948 C 1.846 171.898,1.743 172.439,1.667 173.151 M398.288 174.023 C 398.288 174.399,398.328 174.553,398.377 174.365 C 398.426 174.177,398.426 173.870,398.377 173.682 C 398.328 173.494,398.288 173.647,398.288 174.023 M1.275 176.275 C 1.199 177.094,1.177 177.805,1.228 177.855 C 1.278 177.906,1.382 177.278,1.459 176.459 C 1.536 175.641,1.557 174.930,1.507 174.879 C 1.456 174.828,1.352 175.457,1.275 176.275 M398.483 175.391 C 398.478 175.767,398.587 176.953,398.723 178.027 C 398.860 179.102,398.976 179.629,398.981 179.199 C 398.986 178.770,398.878 177.583,398.740 176.563 C 398.603 175.542,398.487 175.015,398.483 175.391 M1.032 179.004 C 1.034 179.541,1.072 179.738,1.117 179.441 C 1.162 179.144,1.160 178.704,1.114 178.464 C 1.068 178.224,1.031 178.467,1.032 179.004 M0.837 180.957 C 0.839 181.494,0.877 181.691,0.921 181.394 C 0.966 181.097,0.965 180.657,0.919 180.417 C 0.872 180.177,0.836 180.420,0.837 180.957 M399.082 181.055 C 399.082 181.646,399.119 181.887,399.163 181.592 C 399.208 181.296,399.208 180.813,399.163 180.518 C 399.119 180.222,399.082 180.464,399.082 181.055 M0.644 183.203 C 0.644 183.794,0.681 184.036,0.726 183.740 C 0.771 183.445,0.771 182.961,0.726 182.666 C 0.681 182.371,0.644 182.612,0.644 183.203 M399.279 183.301 C 399.280 183.945,399.317 184.185,399.360 183.834 C 399.404 183.483,399.403 182.956,399.358 182.663 C 399.314 182.369,399.278 182.656,399.279 183.301 M0.453 185.742 C 0.453 186.440,0.489 186.726,0.532 186.377 C 0.575 186.028,0.575 185.457,0.532 185.107 C 0.489 184.758,0.453 185.044,0.453 185.742 M399.478 185.840 C 399.479 186.592,399.514 186.875,399.557 186.470 C 399.599 186.065,399.598 185.450,399.555 185.103 C 399.512 184.756,399.477 185.088,399.478 185.840 M0.265 188.965 C 0.264 189.932,0.297 190.352,0.338 189.898 C 0.379 189.445,0.379 188.654,0.339 188.141 C 0.299 187.627,0.265 187.998,0.265 188.965 M399.679 188.965 C 399.678 189.932,399.711 190.352,399.752 189.898 C 399.793 189.445,399.794 188.654,399.753 188.141 C 399.713 187.627,399.679 187.998,399.679 188.965 M0.079 193.945 C 0.079 195.610,0.109 196.292,0.145 195.459 C 0.182 194.626,0.182 193.264,0.145 192.432 C 0.109 191.599,0.079 192.280,0.079 193.945 M399.883 194.141 C 399.883 195.806,399.913 196.487,399.950 195.654 C 399.986 194.822,399.986 193.459,399.950 192.627 C 399.913 191.794,399.883 192.476,399.883 194.141 M399.883 205.859 C 399.883 207.524,399.913 208.206,399.950 207.373 C 399.986 206.541,399.986 205.178,399.950 204.346 C 399.913 203.513,399.883 204.194,399.883 205.859 M0.079 206.055 C 0.079 207.720,0.109 208.401,0.145 207.568 C 0.182 206.736,0.182 205.374,0.145 204.541 C 0.109 203.708,0.079 204.390,0.079 206.055 M299.459 207.227 C 299.459 207.603,299.500 207.756,299.549 207.568 C 299.598 207.380,299.598 207.073,299.549 206.885 C 299.500 206.697,299.459 206.851,299.459 207.227 M0.265 211.035 C 0.264 212.002,0.297 212.422,0.338 211.969 C 0.379 211.515,0.379 210.724,0.339 210.211 C 0.299 209.697,0.265 210.068,0.265 211.035 M399.678 210.938 C 399.678 211.851,399.711 212.224,399.752 211.768 C 399.794 211.311,399.794 210.564,399.752 210.107 C 399.711 209.651,399.678 210.024,399.678 210.938 M399.478 214.160 C 399.479 214.912,399.514 215.196,399.557 214.791 C 399.599 214.385,399.598 213.770,399.555 213.423 C 399.512 213.077,399.477 213.408,399.478 214.160 M0.453 214.258 C 0.453 214.956,0.489 215.242,0.532 214.893 C 0.575 214.543,0.575 213.972,0.532 213.623 C 0.489 213.274,0.453 213.560,0.453 214.258 M399.279 216.699 C 399.280 217.344,399.317 217.584,399.360 217.233 C 399.404 216.882,399.403 216.354,399.358 216.061 C 399.314 215.767,399.278 216.055,399.279 216.699 M0.644 216.797 C 0.644 217.388,0.681 217.629,0.726 217.334 C 0.771 217.039,0.771 216.555,0.726 216.260 C 0.681 215.964,0.644 216.206,0.644 216.797 M399.082 218.945 C 399.082 219.536,399.119 219.778,399.163 219.482 C 399.208 219.187,399.208 218.704,399.163 218.408 C 399.119 218.113,399.082 218.354,399.082 218.945 M0.837 219.043 C 0.839 219.580,0.877 219.777,0.921 219.480 C 0.966 219.183,0.965 218.743,0.919 218.503 C 0.872 218.263,0.836 218.506,0.837 219.043 M1.032 220.996 C 1.034 221.533,1.072 221.730,1.117 221.433 C 1.162 221.136,1.160 220.697,1.114 220.456 C 1.068 220.216,1.031 220.459,1.032 220.996 M398.565 223.246 C 398.372 224.983,398.252 226.443,398.300 226.490 C 398.418 226.608,399.093 220.619,398.995 220.325 C 398.951 220.194,398.758 221.509,398.565 223.246 M1.215 222.656 C 1.210 223.032,1.275 223.779,1.358 224.316 C 1.481 225.106,1.512 225.162,1.519 224.609 C 1.524 224.233,1.460 223.486,1.376 222.949 C 1.253 222.159,1.222 222.103,1.215 222.656 M1.601 225.879 C 1.596 226.201,1.662 226.860,1.748 227.344 C 1.863 227.992,1.907 228.069,1.914 227.637 C 1.920 227.314,1.854 226.655,1.768 226.172 C 1.652 225.524,1.609 225.447,1.601 225.879 M397.979 227.930 C 397.895 228.628,397.519 231.033,397.145 233.274 C 396.770 235.515,396.498 237.384,396.541 237.427 C 396.716 237.601,398.297 227.696,398.195 227.062 C 398.160 226.841,398.063 227.231,397.979 227.930 M1.970 228.620 C 1.930 229.561,4.062 241.511,4.238 241.335 C 4.288 241.285,4.139 240.310,3.908 239.167 C 3.676 238.025,3.150 235.095,2.737 232.656 C 2.324 230.218,1.979 228.401,1.970 228.620 M396.023 239.480 C 395.836 240.456,395.719 241.292,395.765 241.338 C 395.810 241.383,396.002 240.623,396.191 239.648 C 396.381 238.674,396.497 237.838,396.449 237.790 C 396.402 237.743,396.210 238.503,396.023 239.480 M4.312 241.762 C 4.289 242.158,5.519 247.475,5.613 247.382 C 5.659 247.336,5.421 246.083,5.086 244.597 C 4.436 241.718,4.337 241.355,4.312 241.762 M395.320 242.816 C 394.921 244.849,393.053 252.235,392.100 255.548 C 391.609 257.257,391.239 258.687,391.278 258.726 C 391.396 258.844,392.728 254.156,393.948 249.332 C 395.284 244.050,395.783 241.812,395.654 241.683 C 395.603 241.631,395.453 242.142,395.320 242.816 M6.379 250.582 C 6.444 250.955,6.613 251.615,6.757 252.047 C 7.006 252.795,7.013 252.800,6.902 252.153 C 6.838 251.779,6.668 251.120,6.524 250.688 C 6.275 249.939,6.268 249.934,6.379 250.582 M281.531 251.611 L 280.957 252.246 281.592 251.672 C 282.183 251.138,282.316 250.977,282.165 250.977 C 282.132 250.977,281.846 251.262,281.531 251.611 M7.031 253.074 C 7.031 253.189,7.509 254.896,8.093 256.866 C 25.709 316.330,70.162 364.455,128.125 386.811 C 131.678 388.182,142.358 391.802,142.809 391.789 C 142.950 391.785,140.474 390.916,137.305 389.858 C 74.489 368.879,25.651 318.197,7.898 255.566 C 7.207 253.125,7.031 252.621,7.031 253.074 M389.968 262.445 C 369.421 324.965,317.613 374.857,255.226 392.203 C 253.964 392.554,252.970 392.879,253.016 392.925 C 253.160 393.069,259.216 391.247,264.264 389.541 C 323.054 369.675,369.682 323.048,389.540 264.269 C 390.463 261.536,391.194 259.226,391.164 259.136 C 391.134 259.046,390.595 260.535,389.968 262.445 M186.978 291.162 C 196.198 291.190,211.228 291.190,220.377 291.162 C 229.526 291.134,221.982 291.111,203.613 291.111 C 185.244 291.111,177.758 291.134,186.978 291.162 M143.164 391.849 C 143.312 392.014,146.891 393.017,146.989 392.920 C 147.035 392.874,146.348 392.634,145.460 392.388 C 143.182 391.756,143.055 391.726,143.164 391.849 M147.285 393.053 C 147.409 393.178,154.435 394.925,154.728 394.904 C 154.975 394.887,147.733 392.985,147.380 392.974 C 147.281 392.971,147.238 393.007,147.285 393.053 M250.724 393.402 C 249.887 393.620,249.239 393.836,249.285 393.882 C 249.372 393.969,252.575 393.193,252.718 393.050 C 252.872 392.896,252.243 393.008,250.724 393.402 M246.191 394.531 C 245.439 394.727,244.077 395.066,243.164 395.286 C 242.251 395.507,241.856 395.642,242.286 395.588 C 243.333 395.456,248.446 394.185,247.949 394.180 C 247.734 394.178,246.943 394.336,246.191 394.531 M155.094 394.998 C 155.223 395.119,159.799 396.096,160.141 396.076 C 160.311 396.066,159.351 395.807,158.008 395.500 C 155.651 394.962,154.923 394.837,155.094 394.998 M238.672 396.191 C 237.544 396.437,236.763 396.647,236.936 396.659 C 237.291 396.682,241.264 395.898,241.390 395.780 C 241.557 395.622,240.664 395.758,238.672 396.191 M160.938 396.289 C 161.206 396.375,161.646 396.444,161.914 396.442 C 162.353 396.439,162.343 396.423,161.816 396.289 C 160.990 396.079,160.281 396.079,160.938 396.289 M162.988 396.680 C 163.311 396.762,163.794 396.829,164.063 396.829 C 164.498 396.829,164.488 396.813,163.965 396.680 C 163.643 396.598,163.159 396.531,162.891 396.531 C 162.455 396.531,162.466 396.547,162.988 396.680 M234.473 396.969 C 233.828 397.105,233.477 397.223,233.691 397.231 C 233.906 397.240,234.653 397.130,235.352 396.987 C 236.050 396.844,236.401 396.725,236.133 396.724 C 235.864 396.723,235.117 396.833,234.473 396.969 M165.820 397.178 C 166.519 397.319,167.573 397.481,168.164 397.538 C 168.780 397.598,168.405 397.483,167.285 397.270 C 166.211 397.066,165.156 396.904,164.941 396.910 C 164.727 396.917,165.122 397.037,165.820 397.178 M231.445 397.461 C 230.927 397.570,230.880 397.608,231.250 397.619 C 231.519 397.627,232.090 397.561,232.520 397.472 C 233.171 397.337,233.203 397.311,232.715 397.314 C 232.393 397.316,231.821 397.382,231.445 397.461 M169.580 397.791 C 169.768 397.840,170.076 397.840,170.264 397.791 C 170.452 397.742,170.298 397.702,169.922 397.702 C 169.546 397.702,169.392 397.742,169.580 397.791 M228.906 397.852 C 228.388 397.961,228.340 397.999,228.711 398.010 C 228.979 398.018,229.551 397.952,229.980 397.863 C 230.632 397.728,230.664 397.702,230.176 397.704 C 229.854 397.706,229.282 397.772,228.906 397.852 M171.387 398.058 C 171.816 398.147,172.432 398.214,172.754 398.206 C 173.193 398.197,173.120 398.154,172.461 398.037 C 171.282 397.827,170.358 397.845,171.387 398.058 M227.102 398.185 C 227.345 398.232,227.696 398.230,227.883 398.181 C 228.070 398.132,227.871 398.094,227.441 398.096 C 227.012 398.098,226.859 398.138,227.102 398.185 M173.682 398.377 C 173.870 398.426,174.177 398.426,174.365 398.377 C 174.553 398.328,174.399 398.288,174.023 398.288 C 173.647 398.288,173.494 398.328,173.682 398.377 M225.635 398.377 C 225.823 398.426,226.130 398.426,226.318 398.377 C 226.506 398.328,226.353 398.288,225.977 398.288 C 225.601 398.288,225.447 398.328,225.635 398.377 M175.344 398.576 C 175.587 398.622,175.939 398.621,176.125 398.572 C 176.312 398.523,176.113 398.485,175.684 398.487 C 175.254 398.489,175.101 398.529,175.344 398.576 M223.975 398.575 C 224.216 398.622,224.612 398.622,224.854 398.575 C 225.095 398.529,224.897 398.491,224.414 398.491 C 223.931 398.491,223.733 398.529,223.975 398.575 M176.904 398.771 C 177.146 398.817,177.542 398.817,177.783 398.771 C 178.025 398.724,177.827 398.686,177.344 398.686 C 176.860 398.686,176.663 398.724,176.904 398.771 M222.217 398.771 C 222.458 398.817,222.854 398.817,223.096 398.771 C 223.337 398.724,223.140 398.686,222.656 398.686 C 222.173 398.686,221.975 398.724,222.217 398.771 M178.662 398.966 C 178.904 399.013,179.299 399.013,179.541 398.966 C 179.783 398.919,179.585 398.881,179.102 398.881 C 178.618 398.881,178.420 398.919,178.662 398.966 M220.459 398.966 C 220.701 399.013,221.096 399.013,221.338 398.966 C 221.580 398.919,221.382 398.881,220.898 398.881 C 220.415 398.881,220.217 398.919,220.459 398.966 M180.518 399.163 C 180.813 399.208,181.296 399.208,181.592 399.163 C 181.887 399.119,181.646 399.082,181.055 399.082 C 180.464 399.082,180.222 399.119,180.518 399.163 M218.408 399.163 C 218.704 399.208,219.187 399.208,219.482 399.163 C 219.778 399.119,219.536 399.082,218.945 399.082 C 218.354 399.082,218.113 399.119,218.408 399.163 M182.767 399.360 C 183.118 399.404,183.646 399.403,183.939 399.358 C 184.233 399.314,183.945 399.278,183.301 399.279 C 182.656 399.280,182.416 399.317,182.767 399.360 M216.260 399.359 C 216.555 399.403,217.039 399.403,217.334 399.359 C 217.629 399.314,217.388 399.277,216.797 399.277 C 216.206 399.277,215.964 399.314,216.260 399.359 M185.103 399.555 C 185.450 399.598,186.065 399.599,186.470 399.557 C 186.875 399.514,186.592 399.479,185.840 399.478 C 185.088 399.477,184.756 399.512,185.103 399.555 M213.423 399.555 C 213.770 399.598,214.385 399.599,214.791 399.557 C 215.196 399.514,214.912 399.479,214.160 399.478 C 213.408 399.477,213.077 399.512,213.423 399.555 M188.232 399.752 C 188.689 399.794,189.436 399.794,189.893 399.752 C 190.349 399.711,189.976 399.678,189.063 399.678 C 188.149 399.678,187.776 399.711,188.232 399.752 M210.107 399.752 C 210.564 399.794,211.311 399.794,211.768 399.752 C 212.224 399.711,211.851 399.678,210.938 399.678 C 210.024 399.678,209.651 399.711,210.107 399.752 M192.734 399.950 C 193.625 399.986,195.031 399.986,195.859 399.950 C 196.686 399.913,195.957 399.884,194.238 399.884 C 192.520 399.884,191.843 399.914,192.734 399.950 M204.257 399.950 C 205.149 399.986,206.555 399.986,207.382 399.950 C 208.210 399.913,207.480 399.884,205.762 399.884 C 204.043 399.884,203.366 399.914,204.257 399.950 " stroke="none" fill="#bfdc6c" fill-rule="evenodd"></path><path id="path3" d="M111.513 77.686 L 110.840 78.418 111.572 77.745 C 112.254 77.118,112.394 76.953,112.245 76.953 C 112.213 76.953,111.883 77.283,111.513 77.686 M138.532 88.770 C 138.534 89.307,138.572 89.503,138.617 89.206 C 138.662 88.909,138.660 88.470,138.614 88.230 C 138.568 87.990,138.531 88.232,138.532 88.770 M133.789 99.902 C 133.315 100.386,132.970 100.781,133.024 100.781 C 133.078 100.781,133.510 100.386,133.984 99.902 C 134.459 99.419,134.803 99.023,134.749 99.023 C 134.696 99.023,134.263 99.419,133.789 99.902 M239.895 123.773 C 240.192 123.818,240.632 123.817,240.872 123.770 C 241.112 123.724,240.869 123.687,240.332 123.689 C 239.795 123.690,239.598 123.728,239.895 123.773 M236.086 145.451 C 236.329 145.497,236.681 145.496,236.868 145.447 C 237.054 145.398,236.855 145.360,236.426 145.362 C 235.996 145.364,235.843 145.404,236.086 145.451 M300.293 148.047 C 301.039 148.799,301.694 149.414,301.747 149.414 C 301.801 149.414,301.234 148.799,300.488 148.047 C 299.742 147.295,299.088 146.680,299.034 146.680 C 298.980 146.680,299.547 147.295,300.293 148.047 M324.079 204.004 C 324.081 204.541,324.119 204.738,324.164 204.441 C 324.208 204.144,324.207 203.704,324.161 203.464 C 324.115 203.224,324.078 203.467,324.079 204.004 M299.480 205.273 C 299.480 206.079,299.514 206.409,299.556 206.006 C 299.598 205.603,299.598 204.944,299.556 204.541 C 299.514 204.138,299.480 204.468,299.480 205.273 M299.475 208.887 C 299.476 209.531,299.512 209.771,299.556 209.420 C 299.599 209.069,299.598 208.542,299.554 208.248 C 299.509 207.955,299.473 208.242,299.475 208.887 M324.079 210.645 C 324.081 211.182,324.119 211.378,324.164 211.081 C 324.208 210.784,324.207 210.345,324.161 210.105 C 324.115 209.865,324.078 210.107,324.079 210.645 M282.802 250.342 L 282.129 251.074 282.861 250.401 C 283.264 250.031,283.594 249.701,283.594 249.669 C 283.594 249.520,283.428 249.660,282.802 250.342 M280.263 252.881 L 279.590 253.613 280.322 252.940 C 280.725 252.570,281.055 252.240,281.055 252.208 C 281.055 252.059,280.889 252.199,280.263 252.881 M299.898 265.869 L 298.340 267.480 299.951 265.923 C 301.448 264.476,301.652 264.258,301.509 264.258 C 301.480 264.258,300.755 264.983,299.898 265.869 M237.744 269.275 C 237.932 269.324,238.240 269.324,238.428 269.275 C 238.616 269.226,238.462 269.186,238.086 269.186 C 237.710 269.186,237.556 269.226,237.744 269.275 M116.762 290.967 C 120.127 290.997,125.576 290.997,128.872 290.967 C 132.167 290.937,129.414 290.912,122.754 290.912 C 116.094 290.912,113.397 290.937,116.762 290.967 M240.869 290.955 C 241.057 291.004,241.365 291.004,241.553 290.955 C 241.741 290.906,241.587 290.866,241.211 290.866 C 240.835 290.866,240.681 290.906,240.869 290.955 " stroke="none" fill="#deecb6" fill-rule="evenodd"></path><path id="path4" d="" stroke="none" fill="#d0788c" fill-rule="evenodd"></path></g></svg>