<svg id="svg" version="1.1" xmlns="http://www.w3.org/2000/svg" xmlns:xlink="http://www.w3.org/1999/xlink" width="400" height="400" viewBox="0, 0, 400,400"><g id="svgg"><path id="path0" d="M187.567 0.548 C 187.475 0.630,184.753 0.812,181.518 0.953 C 175.022 1.237,172.006 1.554,171.400 2.015 C 171.097 2.246,161.522 3.600,160.193 3.600 C 160.061 3.600,160.057 3.769,160.185 3.976 C 160.313 4.182,160.098 4.349,159.709 4.346 C 158.325 4.335,153.600 5.368,153.600 5.681 C 153.600 5.857,153.409 6.000,153.176 6.000 C 152.943 6.000,152.883 5.789,153.042 5.532 C 153.239 5.213,153.109 5.149,152.633 5.332 C 152.249 5.479,151.634 5.613,151.267 5.628 C 150.696 5.652,150.706 5.698,151.332 5.945 C 151.825 6.139,151.079 6.399,149.058 6.738 C 147.405 7.016,145.950 7.459,145.826 7.722 C 145.667 8.059,145.537 8.070,145.386 7.758 C 145.268 7.515,144.712 7.404,144.149 7.512 C 143.401 7.655,143.270 7.799,143.663 8.048 C 144.067 8.303,144.001 8.402,143.400 8.445 C 140.672 8.640,136.691 9.684,137.271 10.053 C 137.652 10.294,137.548 10.403,136.900 10.444 C 135.491 10.532,135.287 10.580,134.967 10.900 C 134.802 11.065,134.261 11.200,133.766 11.200 C 132.565 11.200,131.558 11.609,131.799 11.998 C 131.956 12.253,130.110 12.829,128.685 12.969 C 128.512 12.986,128.200 13.270,127.992 13.600 C 127.753 13.977,127.610 14.019,127.606 13.713 C 127.599 13.150,126.526 13.443,125.555 14.273 C 125.200 14.577,124.511 14.902,124.023 14.996 C 122.306 15.326,121.591 15.661,121.818 16.029 C 121.944 16.233,121.703 16.400,121.283 16.400 C 120.119 16.400,117.975 17.236,118.201 17.602 C 118.311 17.780,118.013 17.824,117.538 17.700 C 117.033 17.568,116.774 17.634,116.914 17.860 C 117.045 18.073,116.372 18.456,115.417 18.711 C 114.463 18.966,113.401 19.456,113.058 19.799 C 112.714 20.143,111.668 20.694,110.733 21.024 C 109.798 21.354,108.935 21.762,108.816 21.932 C 108.697 22.102,107.744 22.562,106.697 22.955 C 105.651 23.347,104.886 23.815,104.996 23.994 C 105.107 24.174,104.308 24.641,103.220 25.032 C 102.132 25.423,101.327 25.883,101.433 26.053 C 101.538 26.223,100.889 26.561,99.990 26.803 C 99.091 27.045,98.056 27.593,97.689 28.021 C 97.322 28.450,96.792 28.800,96.511 28.800 C 96.230 28.800,95.684 29.115,95.297 29.500 C 94.910 29.885,93.830 30.542,92.897 30.961 C 91.964 31.379,91.200 31.879,91.200 32.071 C 91.200 32.263,90.724 32.601,90.142 32.822 C 89.561 33.043,88.410 33.759,87.585 34.412 C 86.760 35.065,85.926 35.600,85.731 35.600 C 85.536 35.600,85.124 35.950,84.815 36.379 C 84.507 36.807,84.119 37.074,83.955 36.972 C 83.790 36.870,83.369 37.195,83.020 37.693 C 82.670 38.192,82.253 38.606,82.092 38.614 C 81.365 38.649,80.002 39.679,80.219 40.030 C 80.351 40.244,80.311 40.394,80.130 40.363 C 79.290 40.217,78.834 40.461,78.606 41.180 C 78.470 41.608,78.143 41.877,77.880 41.778 C 77.616 41.678,77.045 42.128,76.611 42.777 C 76.136 43.488,75.715 43.786,75.554 43.525 C 75.389 43.258,75.108 43.424,74.823 43.957 C 74.568 44.433,74.161 44.700,73.918 44.549 C 73.669 44.395,73.588 44.458,73.734 44.693 C 73.875 44.922,73.723 45.332,73.396 45.604 C 73.068 45.876,72.797 45.941,72.794 45.749 C 72.791 45.557,72.656 45.590,72.494 45.823 C 72.332 46.056,71.806 46.515,71.324 46.844 C 67.568 49.406,44.934 72.095,48.062 70.162 C 48.350 69.984,48.415 70.052,48.234 70.345 C 48.075 70.602,47.822 70.739,47.672 70.649 C 47.523 70.558,47.168 70.735,46.884 71.042 C 46.601 71.349,46.511 71.604,46.684 71.609 C 46.858 71.614,46.550 71.989,46.000 72.444 C 45.450 72.898,45.223 73.154,45.495 73.014 C 45.827 72.843,45.909 72.971,45.744 73.402 C 45.608 73.756,45.252 73.952,44.953 73.837 C 44.654 73.723,44.452 73.757,44.505 73.914 C 44.557 74.071,44.473 74.200,44.317 74.200 C 43.911 74.200,42.840 75.742,43.032 76.052 C 43.121 76.195,42.745 76.606,42.197 76.965 C 41.648 77.325,41.200 77.850,41.200 78.134 C 41.200 78.417,40.833 79.043,40.384 79.525 C 39.936 80.006,39.706 80.400,39.873 80.400 C 40.041 80.400,39.775 80.682,39.282 81.027 C 38.790 81.372,38.478 81.803,38.590 81.984 C 38.702 82.164,38.329 82.617,37.762 82.988 C 37.195 83.360,36.833 83.766,36.958 83.891 C 37.083 84.016,36.812 84.443,36.356 84.838 C 35.873 85.257,35.651 85.759,35.825 86.041 C 36.004 86.330,35.955 86.420,35.704 86.264 C 35.301 86.015,34.601 87.066,34.740 87.711 C 34.777 87.882,34.537 88.126,34.206 88.253 C 33.875 88.380,33.704 88.645,33.826 88.842 C 33.948 89.039,33.852 89.200,33.614 89.200 C 33.375 89.200,33.009 89.650,32.800 90.200 C 32.591 90.750,32.272 91.200,32.092 91.200 C 31.912 91.200,31.432 92.005,31.026 92.989 C 30.620 93.973,30.152 94.694,29.986 94.591 C 29.690 94.409,29.187 95.271,28.970 96.334 C 28.910 96.627,28.550 97.095,28.169 97.373 C 27.738 97.688,27.599 98.075,27.801 98.401 C 28.014 98.746,27.967 98.827,27.662 98.638 C 27.408 98.481,27.200 98.543,27.200 98.776 C 27.200 99.668,27.129 99.824,26.334 100.670 C 25.858 101.177,25.643 101.746,25.820 102.032 C 26.015 102.347,25.958 102.421,25.662 102.238 C 25.370 102.058,25.200 102.256,25.200 102.776 C 25.200 103.229,25.009 103.600,24.776 103.600 C 24.543 103.600,24.464 103.780,24.600 104.000 C 24.736 104.220,24.660 104.400,24.432 104.400 C 23.947 104.400,22.400 107.281,22.400 108.184 C 22.400 108.523,22.201 108.800,21.957 108.800 C 21.714 108.800,21.622 109.079,21.753 109.421 C 21.884 109.762,21.840 109.948,21.655 109.834 C 21.470 109.720,21.105 110.340,20.843 111.213 C 20.582 112.086,20.176 112.800,19.941 112.800 C 19.706 112.800,19.622 113.079,19.753 113.421 C 19.884 113.762,19.832 113.943,19.638 113.824 C 19.444 113.704,19.162 114.099,19.012 114.703 C 18.861 115.306,18.460 116.108,18.120 116.485 C 17.781 116.862,17.603 117.432,17.726 117.752 C 17.849 118.072,17.691 118.433,17.375 118.554 C 17.059 118.676,16.800 119.119,16.800 119.538 C 16.800 119.958,16.560 120.502,16.266 120.745 C 15.972 120.989,15.501 121.956,15.219 122.894 C 14.606 124.930,14.531 125.116,13.803 126.388 C 13.370 127.145,13.351 127.448,13.719 127.682 C 14.068 127.904,14.073 127.989,13.737 127.994 C 13.482 127.997,13.043 128.900,12.761 130.000 C 12.479 131.100,12.084 132.000,11.882 132.000 C 11.680 132.000,11.618 132.270,11.745 132.600 C 11.871 132.930,11.825 133.200,11.642 133.200 C 11.459 133.200,11.073 134.312,10.785 135.671 C 10.417 137.407,10.181 137.916,9.994 137.382 C 9.765 136.730,9.698 136.774,9.521 137.699 C 9.408 138.291,9.470 138.681,9.658 138.564 C 10.140 138.266,10.087 138.541,9.411 139.844 C 9.087 140.468,8.700 141.793,8.551 142.788 C 8.329 144.270,8.217 144.453,7.932 143.799 C 7.683 143.226,7.637 143.424,7.768 144.500 C 7.868 145.325,7.804 146.000,7.625 146.000 C 7.301 146.000,6.631 148.288,6.762 148.947 C 6.800 149.137,6.584 149.677,6.281 150.147 C 5.475 151.398,5.218 152.734,5.742 152.950 C 6.067 153.084,6.046 153.247,5.671 153.511 C 5.380 153.715,5.090 154.314,5.025 154.841 C 4.411 159.847,4.265 160.552,3.996 159.800 C 3.781 159.196,3.671 159.409,3.548 160.666 C 3.459 161.583,3.524 162.247,3.693 162.143 C 3.862 162.038,4.000 162.143,4.000 162.376 C 4.000 162.609,3.848 162.800,3.662 162.800 C 3.289 162.800,2.343 169.026,2.396 171.133 C 2.414 171.866,2.263 172.363,2.060 172.237 C 1.856 172.111,1.612 172.537,1.517 173.183 C 1.422 173.829,1.492 174.267,1.672 174.155 C 1.853 174.044,2.000 174.398,2.000 174.943 C 2.000 175.488,1.837 175.993,1.638 176.067 C 1.149 176.247,1.005 178.022,1.404 178.953 C 1.599 179.409,1.529 180.021,1.226 180.507 C 0.879 181.063,0.762 182.789,0.842 186.154 C 0.981 191.949,0.981 199.667,0.842 210.869 C 0.785 215.417,0.904 219.467,1.106 219.869 C 1.309 220.271,1.358 221.050,1.215 221.600 C 0.906 222.796,1.153 224.400,1.647 224.400 C 1.841 224.400,2.000 224.861,2.000 225.424 C 2.000 225.987,1.858 226.359,1.684 226.252 C 1.510 226.144,1.439 226.672,1.527 227.425 C 1.615 228.178,1.847 228.694,2.043 228.573 C 2.240 228.452,2.432 228.993,2.470 229.776 C 2.674 233.927,3.216 237.362,3.716 237.680 C 4.012 237.868,4.032 237.990,3.769 237.994 C 3.519 237.997,3.412 238.502,3.514 239.196 C 3.614 239.873,3.866 240.283,4.097 240.140 C 4.324 240.000,4.416 240.135,4.306 240.444 C 4.197 240.750,4.246 241.270,4.414 241.600 C 4.582 241.930,4.824 243.168,4.951 244.350 C 5.331 247.881,5.675 249.326,6.007 248.788 C 6.269 248.364,6.942 251.365,6.989 253.167 C 6.997 253.479,7.228 253.809,7.502 253.901 C 7.776 253.992,8.000 254.332,8.000 254.657 C 8.000 254.982,7.837 255.146,7.637 255.023 C 7.095 254.688,7.624 256.497,8.296 257.275 C 8.616 257.646,8.768 258.128,8.633 258.347 C 8.498 258.566,8.582 258.865,8.821 259.013 C 9.059 259.160,9.155 259.540,9.034 259.856 C 8.913 260.172,9.079 260.532,9.404 260.657 C 9.808 260.812,9.922 261.217,9.765 261.942 C 9.578 262.802,9.623 262.888,10.002 262.400 C 10.391 261.900,10.437 261.947,10.277 262.681 C 10.171 263.165,10.239 263.615,10.427 263.681 C 10.615 263.746,10.868 264.610,10.989 265.600 C 11.110 266.590,11.467 267.592,11.781 267.827 C 12.096 268.062,12.439 268.782,12.544 269.427 C 12.648 270.072,12.770 270.690,12.814 270.800 C 12.859 270.910,12.872 271.140,12.844 271.311 C 12.816 271.482,13.044 271.719,13.352 271.837 C 13.681 271.963,13.827 272.376,13.706 272.839 C 13.592 273.272,13.781 273.937,14.125 274.317 C 14.468 274.696,14.835 275.455,14.939 276.004 C 15.230 277.534,15.652 278.415,15.992 278.205 C 16.161 278.100,16.413 278.723,16.552 279.588 C 16.690 280.454,17.118 281.345,17.502 281.569 C 17.886 281.793,17.981 281.981,17.713 281.988 C 17.444 281.995,17.328 282.269,17.454 282.598 C 17.581 282.926,17.825 283.108,17.998 283.001 C 18.171 282.894,18.423 283.390,18.557 284.104 C 18.692 284.817,19.198 286.030,19.682 286.800 C 20.166 287.570,20.589 288.290,20.621 288.400 C 21.030 289.771,21.753 291.200,22.039 291.200 C 22.238 291.200,22.400 291.464,22.400 291.786 C 22.400 292.717,23.697 295.187,24.066 294.959 C 24.250 294.846,24.422 294.943,24.450 295.176 C 24.610 296.535,25.671 298.803,26.039 298.576 C 26.366 298.374,26.569 298.932,26.447 299.700 C 26.421 299.865,26.580 300.000,26.800 300.000 C 27.020 300.000,27.200 300.360,27.200 300.800 C 27.200 301.240,27.579 301.979,28.041 302.441 C 28.504 302.904,28.927 303.489,28.981 303.741 C 29.202 304.775,29.704 305.583,30.007 305.395 C 30.185 305.285,30.570 305.736,30.863 306.398 C 31.156 307.059,31.531 307.600,31.698 307.600 C 31.864 307.600,32.000 307.791,32.000 308.024 C 32.000 308.257,31.775 308.333,31.500 308.193 C 31.225 308.053,31.405 308.297,31.900 308.734 C 32.395 309.171,32.800 309.785,32.800 310.098 C 32.800 310.411,33.346 311.155,34.014 311.749 C 34.682 312.344,35.134 312.984,35.018 313.170 C 34.903 313.357,35.167 313.603,35.604 313.717 C 36.042 313.831,36.400 314.133,36.400 314.386 C 36.400 314.640,36.175 314.733,35.900 314.594 C 35.625 314.455,35.749 314.624,36.176 314.970 C 36.604 315.317,37.093 315.600,37.264 315.600 C 37.435 315.600,37.471 315.870,37.345 316.200 C 37.218 316.530,37.324 316.800,37.581 316.800 C 37.837 316.800,37.933 316.984,37.794 317.210 C 37.655 317.435,37.775 317.570,38.061 317.510 C 38.347 317.449,38.643 317.805,38.718 318.300 C 38.794 318.795,39.118 319.200,39.438 319.200 C 39.758 319.200,40.182 319.625,40.379 320.145 C 40.577 320.665,41.037 321.206,41.403 321.346 C 41.768 321.486,41.994 321.817,41.906 322.082 C 41.818 322.347,42.208 322.991,42.773 323.514 C 43.338 324.037,43.530 324.345,43.200 324.200 C 42.870 324.055,43.095 324.391,43.700 324.949 C 44.305 325.506,44.800 326.140,44.800 326.358 C 44.800 326.576,45.129 326.990,45.531 327.277 C 45.933 327.565,46.428 328.093,46.631 328.452 C 48.313 331.423,69.645 352.666,70.448 352.170 C 70.642 352.051,70.800 352.233,70.800 352.576 C 70.800 352.919,70.979 353.200,71.197 353.200 C 71.415 353.200,72.075 353.740,72.663 354.400 C 73.251 355.060,73.817 355.517,73.919 355.414 C 74.022 355.311,74.457 355.673,74.885 356.217 C 75.314 356.762,75.821 357.111,76.012 356.993 C 76.203 356.874,76.563 357.157,76.811 357.620 C 77.060 358.085,77.507 358.368,77.810 358.251 C 78.126 358.130,78.464 358.372,78.606 358.820 C 78.743 359.249,79.212 359.600,79.651 359.600 C 80.089 359.600,80.342 359.771,80.212 359.980 C 79.979 360.357,81.537 361.444,82.088 361.289 C 82.246 361.244,82.581 361.590,82.831 362.058 C 83.166 362.684,83.368 362.775,83.599 362.401 C 83.825 362.036,83.988 362.133,84.183 362.747 C 84.350 363.271,84.790 363.602,85.327 363.606 C 86.011 363.611,86.075 363.691,85.621 363.979 C 85.167 364.266,85.275 364.403,86.121 364.616 C 86.714 364.765,87.200 365.047,87.200 365.243 C 87.200 365.440,87.571 365.600,88.024 365.600 C 88.477 365.600,88.742 365.771,88.612 365.980 C 88.340 366.421,89.770 367.296,90.147 366.919 C 90.286 366.780,90.400 366.877,90.400 367.133 C 90.400 367.390,90.760 367.600,91.200 367.600 C 91.640 367.600,92.000 367.836,92.000 368.125 C 92.000 368.414,92.622 368.895,93.382 369.193 C 94.142 369.491,94.683 369.866,94.584 370.025 C 94.486 370.185,95.124 370.603,96.003 370.954 C 96.881 371.306,97.600 371.763,97.600 371.970 C 97.600 372.277,98.637 372.811,99.600 373.000 C 100.615 373.200,101.573 373.720,101.411 373.982 C 101.219 374.293,102.362 374.854,104.306 375.402 C 104.804 375.543,105.117 375.810,105.002 375.997 C 104.887 376.183,105.469 376.553,106.296 376.818 C 107.123 377.084,108.070 377.536,108.401 377.823 C 109.033 378.372,110.820 379.141,111.258 379.052 C 111.400 379.023,111.850 379.297,112.258 379.660 C 112.666 380.023,113.678 380.600,114.507 380.943 C 116.063 381.585,116.115 381.600,116.824 381.600 C 117.057 381.600,117.118 381.808,116.961 382.063 C 116.765 382.380,116.947 382.455,117.538 382.300 C 118.013 382.176,118.308 382.225,118.195 382.409 C 117.980 382.757,118.486 382.956,120.753 383.414 C 121.631 383.591,121.930 383.796,121.603 383.998 C 121.295 384.189,122.192 384.590,123.923 385.036 C 125.476 385.436,126.676 385.876,126.591 386.014 C 126.414 386.301,130.318 387.600,131.359 387.600 C 131.737 387.600,131.952 387.753,131.837 387.941 C 131.608 388.310,134.194 389.200,135.497 389.200 C 135.940 389.200,136.538 389.484,136.827 389.832 C 137.129 390.196,137.737 390.391,138.262 390.290 C 138.762 390.195,139.224 390.272,139.287 390.462 C 139.351 390.652,139.852 390.895,140.401 391.002 C 140.951 391.109,141.983 391.307,142.696 391.442 C 143.410 391.577,143.907 391.827,143.801 391.998 C 143.696 392.169,144.057 392.394,144.605 392.499 C 145.180 392.609,145.603 392.502,145.606 392.245 C 145.611 391.924,145.694 391.926,145.906 392.251 C 146.068 392.499,147.010 392.834,148.000 392.995 C 148.990 393.155,150.109 393.560,150.486 393.893 C 150.904 394.262,151.595 394.418,152.257 394.291 C 152.911 394.166,153.568 394.310,153.913 394.656 C 154.367 395.110,154.606 395.127,155.073 394.740 C 155.479 394.402,155.744 394.383,155.930 394.677 C 156.079 394.912,157.187 395.238,158.393 395.402 C 159.651 395.573,160.796 395.977,161.080 396.350 C 161.400 396.771,161.579 396.824,161.587 396.500 C 161.603 395.892,163.049 395.832,163.414 396.423 C 163.562 396.662,164.168 396.739,164.800 396.600 C 165.418 396.464,166.030 396.525,166.160 396.736 C 166.290 396.946,167.658 397.245,169.198 397.400 C 170.739 397.555,172.000 397.866,172.000 398.092 C 172.000 398.349,172.621 398.403,173.667 398.236 C 174.675 398.075,175.435 398.133,175.589 398.383 C 175.892 398.873,177.351 398.953,178.943 398.567 C 179.729 398.377,180.192 398.463,180.428 398.845 C 180.950 399.690,218.184 399.665,219.764 398.819 C 220.580 398.383,221.024 398.347,221.553 398.678 C 222.321 399.157,224.400 398.921,224.400 398.353 C 224.400 398.159,224.760 398.000,225.200 398.000 C 225.640 398.000,226.000 398.155,226.000 398.345 C 226.000 398.534,226.448 398.603,226.995 398.499 C 227.543 398.394,227.892 398.149,227.772 397.954 C 227.651 397.759,228.418 397.572,229.476 397.538 C 230.534 397.503,231.850 397.418,232.400 397.348 C 232.950 397.278,234.094 397.132,234.943 397.024 C 235.791 396.916,236.765 396.596,237.108 396.314 C 237.558 395.942,237.773 395.927,237.884 396.258 C 238.058 396.774,239.600 396.500,239.600 395.953 C 239.600 395.759,239.791 395.600,240.024 395.600 C 240.257 395.600,240.312 395.825,240.147 396.100 C 239.907 396.499,239.972 396.498,240.466 396.099 C 240.806 395.823,241.606 395.511,242.242 395.404 C 245.222 394.905,246.000 394.681,246.000 394.323 C 246.000 394.098,246.523 394.051,247.250 394.211 C 248.119 394.402,248.417 394.351,248.226 394.043 C 248.069 393.789,248.229 393.600,248.600 393.600 C 249.007 393.600,249.139 393.786,248.955 394.100 C 248.794 394.375,249.008 394.305,249.431 393.944 C 249.854 393.582,250.964 393.162,251.898 393.009 C 252.832 392.856,253.702 392.559,253.832 392.349 C 253.961 392.139,254.412 392.077,254.834 392.211 C 255.255 392.344,255.600 392.273,255.600 392.051 C 255.600 391.830,256.410 391.528,257.400 391.379 C 258.390 391.231,259.200 390.928,259.200 390.706 C 259.200 390.476,259.459 390.517,259.800 390.800 C 260.294 391.210,260.400 391.175,260.400 390.602 C 260.400 390.104,260.626 389.966,261.200 390.116 C 261.640 390.231,262.000 390.162,262.000 389.963 C 262.000 389.763,262.315 389.599,262.700 389.598 C 263.085 389.596,263.926 389.321,264.569 388.985 C 265.505 388.497,265.803 388.478,266.063 388.888 C 266.297 389.256,266.389 389.191,266.394 388.653 C 266.398 388.111,266.614 387.963,267.181 388.111 C 267.610 388.223,268.017 388.150,268.084 387.949 C 268.151 387.748,268.774 387.542,269.469 387.492 C 270.164 387.441,270.702 387.220,270.666 387.000 C 270.630 386.780,270.915 386.653,271.300 386.718 C 271.685 386.782,272.000 386.671,272.000 386.470 C 272.000 386.268,272.815 385.876,273.810 385.597 C 274.806 385.318,275.712 384.943,275.823 384.763 C 275.934 384.582,276.290 384.536,276.613 384.660 C 276.936 384.784,277.200 384.692,277.200 384.455 C 277.200 384.218,277.499 384.140,277.866 384.281 C 278.313 384.452,278.436 384.383,278.242 384.068 C 277.972 383.632,278.521 383.441,279.900 383.493 C 280.175 383.503,280.400 383.351,280.400 383.156 C 280.400 382.960,280.670 382.800,281.000 382.800 C 281.330 382.800,281.600 382.629,281.600 382.420 C 281.600 382.212,282.590 381.729,283.800 381.347 C 285.010 380.966,286.000 380.488,286.000 380.284 C 286.000 380.081,286.270 380.018,286.600 380.145 C 286.930 380.271,287.200 380.229,287.200 380.052 C 287.200 379.728,288.686 378.926,289.355 378.888 C 289.551 378.877,289.821 378.699,289.955 378.491 C 290.313 377.939,294.030 376.371,294.416 376.610 C 294.597 376.722,294.875 376.602,295.034 376.345 C 295.226 376.034,295.134 375.975,294.762 376.168 C 294.453 376.328,294.560 376.168,295.000 375.812 C 295.440 375.456,296.205 375.064,296.700 374.939 C 297.195 374.815,297.600 374.553,297.600 374.357 C 297.600 374.160,297.791 374.000,298.024 374.000 C 298.257 374.000,298.319 374.208,298.162 374.462 C 297.984 374.750,298.052 374.815,298.345 374.634 C 298.602 374.475,298.726 374.203,298.619 374.031 C 298.402 373.680,300.118 372.800,301.019 372.800 C 301.338 372.800,301.923 372.485,302.317 372.100 C 303.726 370.726,304.600 370.121,304.198 370.800 C 304.002 371.130,304.432 370.815,305.152 370.100 C 305.872 369.385,306.718 368.800,307.031 368.800 C 307.344 368.800,307.600 368.616,307.600 368.390 C 307.600 368.045,308.578 367.498,309.680 367.227 C 309.834 367.189,310.528 366.627,311.223 365.979 C 311.917 365.331,312.736 364.800,313.042 364.800 C 313.349 364.800,313.600 364.616,313.600 364.390 C 313.600 364.165,314.050 363.809,314.600 363.600 C 315.150 363.391,315.600 363.052,315.600 362.847 C 315.600 362.642,315.968 362.571,316.417 362.689 C 316.957 362.830,317.194 362.727,317.117 362.384 C 317.053 362.099,317.435 361.639,317.968 361.362 C 318.500 361.085,319.094 360.576,319.288 360.229 C 319.481 359.883,319.894 359.600,320.206 359.600 C 320.517 359.600,320.965 359.240,321.200 358.800 C 321.435 358.360,321.812 358.000,322.038 358.000 C 322.263 358.000,322.336 358.180,322.200 358.400 C 322.064 358.620,322.039 358.800,322.144 358.800 C 322.249 358.800,322.724 358.170,323.200 357.400 C 323.676 356.630,324.253 356.000,324.482 356.000 C 324.717 356.000,324.659 356.289,324.349 356.664 C 323.848 357.270,323.877 357.281,324.674 356.784 C 325.155 356.485,325.476 356.123,325.388 355.981 C 325.149 355.593,326.795 353.949,327.182 354.189 C 327.366 354.302,327.624 354.115,327.755 353.772 C 327.887 353.430,328.152 353.246,328.344 353.365 C 328.811 353.654,330.084 352.218,329.701 351.834 C 329.535 351.669,329.603 351.593,329.852 351.667 C 330.973 351.997,351.600 331.718,351.600 330.285 C 351.600 330.057,352.116 329.405,352.747 328.836 C 353.379 328.266,354.025 327.382,354.184 326.871 C 354.362 326.298,354.687 326.024,355.031 326.157 C 355.339 326.275,355.548 326.210,355.495 326.014 C 355.443 325.817,355.760 325.360,356.200 324.999 C 356.640 324.637,356.775 324.455,356.500 324.594 C 355.450 325.126,356.057 324.011,357.178 323.349 C 357.826 322.966,358.257 322.492,358.135 322.295 C 358.013 322.097,358.293 321.670,358.757 321.345 C 359.220 321.020,359.600 320.489,359.600 320.165 C 359.600 319.840,359.884 319.466,360.231 319.333 C 360.577 319.200,361.027 318.655,361.230 318.121 C 361.433 317.588,361.760 317.252,361.957 317.374 C 362.259 317.560,362.961 316.473,362.800 316.070 C 362.771 315.998,363.087 315.638,363.502 315.270 C 363.917 314.901,364.604 313.975,365.028 313.212 C 365.453 312.449,366.115 311.470,366.500 311.037 C 366.885 310.603,367.200 310.022,367.200 309.744 C 367.200 309.467,367.429 309.096,367.710 308.920 C 368.410 308.480,369.600 306.553,369.600 305.857 C 369.600 305.543,369.870 305.182,370.200 305.055 C 370.530 304.929,370.800 304.576,370.800 304.271 C 370.800 303.966,371.250 303.231,371.800 302.638 C 372.350 302.044,372.800 301.290,372.800 300.962 C 372.800 300.634,373.245 299.885,373.788 299.299 C 374.509 298.522,374.644 298.149,374.288 297.923 C 373.932 297.696,373.927 297.611,374.269 297.606 C 374.527 297.603,374.946 296.968,375.201 296.196 C 375.456 295.424,375.803 294.878,375.973 294.983 C 376.142 295.088,376.526 294.431,376.825 293.523 C 377.125 292.615,377.737 291.515,378.185 291.078 C 378.633 290.640,378.775 290.409,378.500 290.565 C 378.225 290.720,378.000 290.657,378.000 290.424 C 378.000 290.191,378.166 290.000,378.369 290.000 C 378.572 290.000,378.946 289.368,379.201 288.596 C 379.456 287.824,379.811 287.283,379.990 287.394 C 380.170 287.505,380.415 287.338,380.536 287.024 C 380.656 286.709,380.540 286.364,380.278 286.257 C 379.922 286.113,379.920 286.055,380.269 286.032 C 380.527 286.014,380.946 285.368,381.201 284.596 C 381.471 283.780,381.843 283.303,382.091 283.456 C 382.374 283.631,382.428 283.364,382.251 282.660 C 382.052 281.869,382.136 281.600,382.580 281.600 C 382.944 281.600,383.086 281.368,382.945 281.000 C 382.818 280.670,382.914 280.400,383.157 280.400 C 383.401 280.400,383.579 280.265,383.553 280.100 C 383.353 278.834,383.673 277.835,384.034 278.600 C 384.357 279.285,384.390 279.242,384.261 278.300 C 384.178 277.695,384.243 277.200,384.403 277.200 C 384.564 277.200,384.920 276.402,385.193 275.426 C 385.466 274.450,385.979 273.540,386.334 273.404 C 386.892 273.190,386.899 273.107,386.389 272.778 C 385.969 272.508,385.931 272.314,386.256 272.100 C 386.506 271.935,386.948 270.990,387.236 270.000 C 387.525 269.010,387.950 268.068,388.181 267.906 C 388.443 267.722,388.450 267.608,388.200 267.600 C 387.980 267.593,388.029 267.442,388.309 267.264 C 388.590 267.087,388.904 266.504,389.008 265.971 C 389.112 265.437,389.311 264.397,389.450 263.660 C 389.602 262.860,389.822 262.511,389.996 262.794 C 390.191 263.109,390.362 262.988,390.507 262.434 C 390.635 261.945,390.534 261.597,390.263 261.594 C 389.914 261.589,389.914 261.515,390.261 261.294 C 390.514 261.132,390.949 259.840,391.228 258.422 C 391.622 256.417,391.810 256.017,392.075 256.622 C 392.313 257.168,392.361 256.960,392.236 255.924 C 392.138 255.112,392.236 254.388,392.454 254.315 C 392.672 254.243,392.902 253.737,392.966 253.192 C 393.295 250.377,393.714 248.737,393.990 249.184 C 394.188 249.503,394.362 249.313,394.491 248.637 C 394.600 248.067,394.512 247.600,394.296 247.600 C 394.076 247.600,394.113 247.346,394.379 247.026 C 394.641 246.710,394.913 245.855,394.983 245.126 C 395.281 242.038,395.716 240.000,396.077 240.000 C 396.298 240.000,396.351 239.487,396.200 238.800 C 396.026 238.007,396.093 237.600,396.399 237.600 C 396.672 237.600,396.826 237.067,396.775 236.300 C 396.728 235.585,396.831 234.665,397.005 234.255 C 397.315 233.523,397.362 233.100,397.558 229.300 C 397.637 227.767,397.729 227.555,398.035 228.200 C 398.298 228.755,398.355 228.172,398.222 226.300 C 398.094 224.501,398.176 223.600,398.466 223.600 C 398.747 223.600,398.834 222.898,398.711 221.619 C 398.605 220.507,398.704 219.456,398.939 219.221 C 399.217 218.943,399.347 213.466,399.325 202.901 C 399.280 180.201,399.305 181.200,398.784 181.200 C 398.454 181.200,398.402 180.509,398.600 178.800 C 398.803 177.053,398.749 176.400,398.402 176.400 C 398.060 176.400,398.003 175.835,398.200 174.400 C 398.370 173.162,398.324 172.400,398.079 172.400 C 397.861 172.400,397.556 170.960,397.400 169.200 C 397.244 167.440,396.953 166.000,396.754 166.000 C 396.554 166.000,396.506 165.280,396.646 164.400 C 396.826 163.276,396.759 162.800,396.419 162.800 C 396.091 162.800,396.021 162.416,396.200 161.600 C 396.345 160.940,396.300 160.400,396.101 160.400 C 395.902 160.400,395.511 158.917,395.234 157.105 C 394.957 155.292,394.617 153.628,394.480 153.405 C 394.342 153.183,394.276 152.460,394.332 151.800 C 394.399 151.012,394.314 150.777,394.084 151.115 C 393.853 151.455,393.562 150.669,393.231 148.815 C 392.954 147.267,392.544 146.000,392.320 146.000 C 392.086 146.000,392.020 145.576,392.164 145.000 C 392.302 144.450,392.248 144.000,392.043 144.000 C 391.728 144.000,391.058 141.526,391.013 140.200 C 391.006 139.980,390.730 139.578,390.400 139.308 C 389.867 138.870,389.867 138.771,390.400 138.414 C 390.926 138.062,390.715 137.841,389.947 137.937 C 389.598 137.981,389.152 135.602,389.425 135.159 C 389.547 134.962,389.356 134.800,389.000 134.800 C 388.644 134.800,388.469 134.612,388.611 134.382 C 388.753 134.153,388.658 133.711,388.400 133.400 C 388.142 133.089,388.047 132.647,388.189 132.418 C 388.331 132.188,388.257 132.000,388.024 132.000 C 387.791 132.000,387.600 131.680,387.600 131.289 C 387.600 130.898,387.320 130.178,386.977 129.688 C 386.634 129.199,386.455 128.634,386.579 128.433 C 386.703 128.233,386.579 127.977,386.302 127.865 C 385.920 127.710,385.941 127.563,386.389 127.252 C 386.896 126.900,386.881 126.806,386.283 126.577 C 385.889 126.425,385.398 125.553,385.147 124.555 C 384.904 123.590,384.536 122.800,384.329 122.800 C 384.122 122.800,384.076 122.600,384.228 122.355 C 384.379 122.111,384.290 121.779,384.031 121.619 C 383.772 121.459,383.531 120.939,383.495 120.464 C 383.459 119.989,383.179 119.600,382.872 119.600 C 382.541 119.600,382.408 119.357,382.545 119.000 C 382.671 118.670,382.603 118.400,382.393 118.400 C 382.183 118.400,381.808 117.590,381.558 116.600 C 381.309 115.610,380.936 114.800,380.729 114.800 C 380.522 114.800,380.464 114.620,380.600 114.400 C 380.736 114.180,380.696 114.000,380.511 114.000 C 380.066 114.000,379.165 111.581,379.442 111.131 C 379.562 110.938,379.421 110.830,379.130 110.890 C 378.838 110.951,378.645 110.775,378.700 110.500 C 378.755 110.225,378.627 110.000,378.416 110.000 C 378.205 110.000,377.816 109.280,377.553 108.400 C 377.289 107.520,376.911 106.800,376.713 106.800 C 376.515 106.800,376.464 106.620,376.600 106.400 C 376.736 106.180,376.637 106.000,376.381 106.000 C 376.124 106.000,376.012 105.745,376.132 105.433 C 376.252 105.121,376.072 104.760,375.733 104.630 C 375.390 104.498,375.218 104.131,375.344 103.801 C 375.475 103.461,375.365 103.250,375.086 103.305 C 374.819 103.357,374.645 103.175,374.700 102.900 C 374.755 102.625,374.608 102.400,374.373 102.400 C 374.122 102.400,374.050 102.029,374.199 101.500 C 374.379 100.860,374.342 100.760,374.070 101.153 C 373.764 101.595,373.633 101.534,373.417 100.853 C 373.268 100.384,372.959 100.000,372.730 100.000 C 372.502 100.000,372.418 99.730,372.545 99.400 C 372.671 99.070,372.590 98.800,372.364 98.800 C 372.138 98.800,372.052 98.639,372.174 98.442 C 372.296 98.245,372.108 97.973,371.756 97.839 C 371.392 97.699,371.215 97.337,371.346 96.997 C 371.494 96.611,371.331 96.398,370.887 96.394 C 370.338 96.389,370.312 96.317,370.754 96.037 C 371.196 95.757,371.133 95.592,370.443 95.223 C 369.967 94.968,369.672 94.608,369.786 94.422 C 369.901 94.236,369.726 93.981,369.398 93.854 C 369.069 93.728,368.800 93.349,368.800 93.013 C 368.800 92.676,368.601 92.400,368.357 92.400 C 368.114 92.400,368.022 92.121,368.153 91.779 C 368.291 91.419,368.223 91.262,367.991 91.406 C 367.771 91.542,367.482 91.108,367.348 90.442 C 367.215 89.776,366.902 89.269,366.653 89.316 C 366.404 89.362,366.250 89.099,366.311 88.730 C 366.371 88.362,366.209 87.929,365.949 87.768 C 365.632 87.573,365.583 87.649,365.800 88.000 C 366.014 88.346,365.967 88.427,365.662 88.238 C 365.408 88.081,365.200 87.688,365.200 87.364 C 365.200 87.040,364.920 86.667,364.577 86.536 C 364.234 86.404,364.040 86.073,364.145 85.799 C 364.250 85.525,363.897 85.066,363.360 84.779 C 362.821 84.490,362.567 84.144,362.792 84.005 C 363.050 83.846,362.968 83.467,362.570 82.976 C 362.224 82.549,362.079 82.470,362.247 82.800 C 362.511 83.317,362.459 83.324,361.877 82.851 C 361.505 82.549,361.200 81.964,361.200 81.551 C 361.200 81.138,360.936 80.800,360.613 80.800 C 360.259 80.800,360.115 80.565,360.252 80.209 C 360.397 79.830,360.100 79.446,359.424 79.138 C 358.832 78.869,358.456 78.431,358.567 78.141 C 358.676 77.857,358.234 77.311,357.583 76.926 C 356.932 76.542,356.400 76.076,356.400 75.890 C 356.400 75.705,356.593 75.672,356.830 75.818 C 357.067 75.965,357.031 75.719,356.750 75.268 C 356.470 74.820,356.052 74.486,355.820 74.527 C 355.589 74.567,355.445 74.375,355.500 74.100 C 355.555 73.825,355.383 73.645,355.118 73.700 C 354.853 73.755,354.628 73.620,354.618 73.399 C 354.608 73.179,354.017 72.441,353.305 71.761 C 352.593 71.080,352.097 70.436,352.203 70.330 C 352.310 70.224,352.027 69.791,351.574 69.368 C 349.590 67.515,348.449 66.248,348.522 65.979 C 348.565 65.820,347.655 64.764,346.500 63.633 C 345.345 62.502,344.400 61.402,344.400 61.188 C 344.400 60.975,344.265 60.838,344.100 60.885 C 343.681 61.003,342.000 59.879,342.000 59.480 C 342.000 59.300,342.208 59.281,342.462 59.438 C 342.750 59.616,342.815 59.548,342.634 59.255 C 342.475 58.998,342.198 58.878,342.018 58.989 C 341.838 59.100,341.468 58.923,341.196 58.596 C 340.924 58.268,340.836 58.000,341.000 58.000 C 341.164 58.000,341.079 57.736,340.811 57.413 C 340.543 57.090,340.130 56.865,339.894 56.913 C 339.658 56.961,339.255 56.596,338.997 56.102 C 338.739 55.609,338.431 55.302,338.313 55.421 C 338.194 55.540,337.520 54.909,336.815 54.018 C 336.110 53.128,335.278 52.400,334.966 52.400 C 334.655 52.400,334.445 52.238,334.500 52.040 C 334.555 51.842,334.420 51.642,334.200 51.596 C 333.437 51.436,331.600 49.943,331.587 49.473 C 331.581 49.213,331.101 48.654,330.522 48.232 C 329.844 47.738,329.575 47.666,329.768 48.032 C 329.933 48.344,329.475 47.970,328.750 47.200 C 328.026 46.430,327.290 45.778,327.116 45.750 C 326.942 45.723,326.601 45.678,326.357 45.650 C 326.114 45.623,326.017 45.332,326.143 45.005 C 326.268 44.677,326.243 44.452,326.086 44.505 C 325.929 44.557,325.728 44.420,325.640 44.200 C 325.405 43.614,324.255 42.843,323.922 43.048 C 323.764 43.146,323.329 42.759,322.956 42.189 C 322.486 41.472,322.185 41.301,321.979 41.634 C 321.780 41.955,321.463 41.696,321.030 40.858 C 320.672 40.166,320.283 39.600,320.166 39.600 C 320.049 39.600,320.064 39.780,320.200 40.000 C 320.336 40.220,320.263 40.400,320.038 40.400 C 319.812 40.400,319.435 40.040,319.200 39.600 C 318.965 39.160,318.512 38.800,318.195 38.800 C 317.878 38.800,317.317 38.339,316.948 37.776 C 316.442 37.004,316.195 36.881,315.944 37.276 C 315.762 37.564,315.609 37.609,315.606 37.376 C 315.603 37.144,315.317 36.604,314.970 36.176 C 314.624 35.749,314.455 35.625,314.594 35.900 C 314.733 36.175,314.651 36.400,314.411 36.400 C 314.171 36.400,313.878 36.146,313.759 35.837 C 313.640 35.527,313.018 35.056,312.376 34.790 C 311.735 34.525,311.326 34.120,311.467 33.892 C 311.615 33.653,311.530 33.596,311.268 33.758 C 311.012 33.916,310.280 33.495,309.600 32.800 C 308.933 32.118,308.211 31.670,307.994 31.804 C 307.777 31.938,307.600 31.847,307.600 31.603 C 307.600 31.358,307.056 30.969,306.392 30.737 C 305.727 30.505,304.988 29.950,304.749 29.504 C 304.399 28.851,304.245 28.800,303.963 29.246 C 303.759 29.568,303.610 29.611,303.606 29.347 C 303.603 29.097,303.222 28.794,302.760 28.674 C 302.219 28.532,302.028 28.278,302.225 27.959 C 302.439 27.614,302.330 27.541,301.866 27.719 C 301.499 27.860,301.200 27.782,301.200 27.545 C 301.200 27.308,300.959 27.207,300.665 27.320 C 300.370 27.433,299.702 27.008,299.180 26.376 C 298.509 25.564,298.140 25.369,297.922 25.713 C 297.681 26.092,297.611 26.089,297.606 25.700 C 297.603 25.425,297.319 25.200,296.976 25.200 C 296.633 25.200,296.436 25.065,296.538 24.900 C 296.640 24.735,296.282 24.574,295.742 24.541 C 294.764 24.482,291.875 22.738,290.870 21.600 C 290.579 21.270,290.455 21.225,290.594 21.500 C 290.733 21.775,290.657 22.000,290.424 22.000 C 290.191 22.000,290.000 21.809,290.000 21.576 C 290.000 21.343,289.820 21.264,289.600 21.400 C 289.380 21.536,289.200 21.457,289.200 21.224 C 289.200 20.991,288.949 20.800,288.643 20.800 C 288.336 20.800,287.977 20.518,287.845 20.172 C 287.685 19.755,287.335 19.630,286.802 19.799 C 286.361 19.939,286.000 19.895,286.000 19.700 C 286.000 19.505,285.010 19.034,283.800 18.653 C 282.590 18.271,281.600 17.788,281.600 17.580 C 281.600 17.371,281.330 17.200,281.000 17.200 C 280.670 17.200,280.400 17.020,280.400 16.800 C 280.400 16.580,280.265 16.421,280.100 16.447 C 278.846 16.645,277.843 16.357,278.400 15.959 C 278.882 15.615,278.823 15.569,278.100 15.728 C 277.605 15.836,277.200 15.741,277.200 15.516 C 277.200 15.291,276.840 15.201,276.400 15.316 C 275.960 15.431,275.600 15.362,275.600 15.163 C 275.600 14.963,275.395 14.800,275.144 14.800 C 274.893 14.800,274.430 14.485,274.114 14.100 C 273.799 13.715,273.655 13.625,273.794 13.900 C 273.933 14.175,273.857 14.400,273.624 14.400 C 273.391 14.400,273.200 14.209,273.200 13.976 C 273.200 13.743,273.008 13.671,272.773 13.816 C 272.539 13.961,272.094 13.747,271.786 13.340 C 271.478 12.933,271.220 12.814,271.213 13.076 C 271.203 13.422,270.898 13.395,270.100 12.979 C 269.495 12.663,268.775 12.404,268.500 12.402 C 268.225 12.401,268.000 12.208,268.000 11.973 C 268.000 11.728,267.659 11.654,267.200 11.800 C 266.728 11.950,266.400 11.872,266.400 11.609 C 266.400 11.365,266.175 11.202,265.900 11.247 C 265.625 11.292,264.893 11.119,264.274 10.864 C 263.655 10.609,262.890 10.400,262.574 10.400 C 262.258 10.400,262.000 10.237,262.000 10.037 C 262.000 9.838,261.640 9.769,261.200 9.884 C 260.722 10.009,260.400 9.896,260.400 9.604 C 260.400 9.335,260.136 9.216,259.813 9.340 C 259.490 9.464,259.129 9.409,259.011 9.217 C 258.893 9.026,258.077 8.748,257.198 8.600 C 256.319 8.451,255.600 8.162,255.600 7.957 C 255.600 7.752,255.150 7.698,254.600 7.836 C 253.984 7.990,253.600 7.917,253.600 7.643 C 253.600 7.400,253.251 7.200,252.824 7.200 C 252.397 7.200,251.934 7.017,251.796 6.793 C 251.658 6.570,251.369 6.495,251.155 6.628 C 250.940 6.761,250.368 6.613,249.882 6.300 C 248.727 5.555,247.200 5.178,247.200 5.637 C 247.200 5.837,246.930 6.000,246.600 6.000 C 246.270 6.000,246.000 5.800,246.000 5.557 C 246.000 5.283,245.616 5.210,245.000 5.364 C 244.450 5.502,244.000 5.449,244.000 5.247 C 244.000 5.044,242.920 4.753,241.601 4.600 C 240.281 4.447,239.289 4.180,239.396 4.006 C 239.503 3.833,239.233 3.597,238.795 3.483 C 238.357 3.368,238.100 3.438,238.223 3.637 C 238.346 3.837,237.987 4.000,237.424 4.000 C 236.861 4.000,236.400 3.812,236.400 3.582 C 236.400 3.321,235.875 3.262,235.000 3.426 C 234.163 3.583,233.600 3.529,233.600 3.292 C 233.600 3.073,232.249 2.767,230.598 2.613 C 228.946 2.458,227.684 2.187,227.793 2.011 C 227.902 1.835,227.548 1.607,227.007 1.504 C 226.467 1.400,226.119 1.470,226.236 1.658 C 226.352 1.846,225.717 2.000,224.824 2.000 C 223.931 2.000,223.200 1.833,223.200 1.629 C 223.200 1.418,222.249 1.356,221.000 1.485 C 219.403 1.650,218.800 1.577,218.800 1.220 C 218.800 0.848,217.985 0.796,215.450 1.007 C 213.152 1.199,212.015 1.147,211.827 0.843 C 211.572 0.432,188.019 0.145,187.567 0.548 M126.800 73.170 C 126.800 73.315,127.593 73.646,128.562 73.905 C 131.028 74.565,137.611 80.611,136.978 81.635 C 136.877 81.798,137.021 82.023,137.298 82.135 C 137.678 82.290,137.654 82.442,137.200 82.763 C 136.686 83.127,136.705 83.189,137.329 83.194 C 137.811 83.198,138.010 83.438,137.915 83.900 C 137.836 84.285,138.026 84.795,138.338 85.033 C 139.016 85.550,139.148 91.690,138.499 92.496 C 138.275 92.773,137.967 93.585,137.814 94.300 C 137.662 95.015,137.374 95.600,137.176 95.600 C 136.978 95.600,136.701 96.055,136.562 96.611 C 136.422 97.166,135.964 97.805,135.543 98.031 C 135.122 98.256,134.876 98.599,134.995 98.792 C 135.217 99.150,133.541 101.200,133.027 101.200 C 132.873 101.200,132.158 101.649,131.438 102.198 C 130.718 102.747,130.010 103.077,129.865 102.931 C 129.719 102.786,129.600 102.859,129.600 103.093 C 129.600 103.996,120.571 105.005,118.800 104.300 C 118.470 104.168,117.504 103.846,116.654 103.584 C 115.033 103.085,114.851 102.949,111.735 99.919 C 109.231 97.484,108.423 96.428,108.122 95.200 C 107.987 94.650,107.691 94.078,107.463 93.930 C 106.885 93.553,106.600 86.542,107.118 85.468 C 107.349 84.991,107.656 84.060,107.800 83.400 C 108.101 82.025,111.545 76.612,111.896 76.962 C 112.024 77.090,112.380 76.836,112.687 76.397 C 112.994 75.959,113.422 75.600,113.639 75.600 C 113.855 75.600,114.520 75.248,115.116 74.819 C 116.554 73.783,118.650 73.255,118.201 74.042 C 118.026 74.349,118.235 74.240,118.665 73.800 C 119.438 73.010,126.800 72.440,126.800 73.170 M245.800 123.842 C 247.560 123.967,249.216 124.248,249.480 124.467 C 249.744 124.686,250.464 124.812,251.080 124.747 C 251.696 124.682,252.380 124.737,252.600 124.869 C 252.820 125.001,254.305 125.238,255.900 125.395 C 257.495 125.553,258.800 125.818,258.800 125.985 C 258.800 126.152,259.250 126.203,259.800 126.098 C 260.416 125.980,260.800 126.091,260.800 126.385 C 260.800 126.709,261.189 126.778,262.000 126.600 C 262.807 126.423,263.200 126.492,263.200 126.811 C 263.200 127.072,263.464 127.184,263.787 127.060 C 264.110 126.936,264.468 126.986,264.582 127.171 C 264.697 127.356,265.602 127.629,266.595 127.778 C 267.588 127.927,268.400 128.212,268.400 128.412 C 268.400 128.612,268.670 128.671,269.000 128.545 C 269.330 128.418,269.600 128.533,269.600 128.800 C 269.600 129.067,269.864 129.184,270.187 129.060 C 270.510 128.936,270.866 128.982,270.977 129.163 C 271.088 129.343,271.999 129.720,273.000 130.000 C 274.001 130.280,274.918 130.668,275.038 130.861 C 275.157 131.055,275.423 131.109,275.628 130.983 C 275.832 130.856,276.000 130.943,276.000 131.176 C 276.000 131.409,276.279 131.600,276.620 131.600 C 276.961 131.600,277.816 131.907,278.520 132.282 C 279.224 132.657,279.935 132.927,280.100 132.882 C 280.265 132.837,280.400 132.944,280.400 133.120 C 280.400 133.295,281.030 133.667,281.800 133.946 C 282.570 134.224,283.200 134.631,283.200 134.849 C 283.200 135.068,283.411 135.117,283.668 134.958 C 283.981 134.765,284.053 134.885,283.885 135.322 C 283.748 135.681,283.835 136.098,284.079 136.249 C 284.348 136.415,284.411 136.341,284.238 136.062 C 283.555 134.957,288.064 137.260,289.600 138.801 C 289.710 138.911,290.308 139.263,290.928 139.583 C 292.191 140.235,294.000 141.926,294.000 142.455 C 294.000 142.645,294.315 142.813,294.700 142.829 C 295.085 142.845,296.120 143.718,297.000 144.769 C 297.880 145.821,298.740 146.604,298.910 146.511 C 299.472 146.202,302.099 149.165,301.847 149.823 C 301.716 150.163,301.750 150.355,301.922 150.248 C 302.580 149.841,307.779 155.595,309.606 158.752 C 309.939 159.329,310.948 160.880,311.848 162.200 C 312.748 163.520,313.726 165.275,314.022 166.100 C 314.318 166.925,314.715 167.600,314.904 167.600 C 315.093 167.600,315.136 167.780,315.000 168.000 C 314.864 168.220,314.915 168.400,315.112 168.400 C 315.310 168.400,315.710 169.120,316.000 170.000 C 316.290 170.880,316.690 171.600,316.888 171.600 C 317.085 171.600,317.144 171.768,317.017 171.972 C 316.891 172.177,316.982 172.465,317.221 172.613 C 317.459 172.760,317.562 173.121,317.450 173.415 C 317.337 173.708,317.402 174.005,317.593 174.074 C 317.784 174.143,318.070 174.722,318.229 175.360 C 318.459 176.289,318.406 176.455,317.958 176.196 C 317.628 176.004,317.536 176.021,317.733 176.236 C 317.917 176.436,318.277 176.608,318.533 176.618 C 318.790 176.628,318.955 176.853,318.900 177.118 C 318.845 177.383,318.951 177.600,319.135 177.600 C 319.319 177.600,319.800 179.049,320.204 180.820 C 320.609 182.590,321.071 184.121,321.232 184.220 C 321.393 184.319,321.431 184.761,321.316 185.200 C 321.199 185.647,321.304 186.000,321.553 186.000 C 321.799 186.000,322.000 186.281,322.000 186.624 C 322.000 186.967,321.846 187.152,321.658 187.036 C 321.470 186.919,321.404 187.285,321.511 187.849 C 321.655 188.598,321.799 188.729,322.048 188.337 C 322.283 187.966,322.409 188.171,322.456 189.000 C 322.633 192.081,322.715 192.500,323.199 192.799 C 323.550 193.016,323.645 193.647,323.496 194.759 C 323.375 195.662,323.416 196.486,323.586 196.591 C 324.793 197.338,324.712 217.200,323.502 217.200 C 323.264 217.200,323.214 217.897,323.374 218.965 C 323.523 219.959,323.473 220.832,323.259 220.964 C 323.050 221.093,322.753 222.279,322.600 223.599 C 322.447 224.920,322.156 226.000,321.953 226.000 C 321.751 226.000,321.698 226.450,321.836 227.000 C 321.992 227.624,321.917 228.000,321.636 228.000 C 321.354 228.000,321.279 228.376,321.436 229.000 C 321.597 229.642,321.518 230.000,321.216 230.000 C 320.928 230.000,320.844 230.310,321.000 230.800 C 321.140 231.240,321.104 231.600,320.922 231.600 C 320.739 231.600,320.367 232.534,320.096 233.675 C 319.825 234.817,319.445 235.852,319.252 235.975 C 319.059 236.099,318.773 236.787,318.618 237.503 C 318.462 238.220,318.186 238.715,318.005 238.603 C 317.823 238.491,317.769 238.759,317.884 239.199 C 318.006 239.665,317.896 240.000,317.623 240.000 C 317.364 240.000,317.254 240.163,317.377 240.363 C 317.501 240.563,316.977 241.868,316.213 243.263 C 315.448 244.658,314.620 246.295,314.373 246.900 C 314.125 247.505,313.765 248.000,313.573 248.000 C 313.382 248.000,313.329 248.270,313.455 248.600 C 313.586 248.940,313.465 249.200,313.176 249.200 C 312.896 249.200,312.776 249.309,312.909 249.443 C 313.043 249.576,312.976 249.891,312.762 250.143 C 312.548 250.394,311.501 251.950,310.436 253.600 C 309.371 255.250,307.397 257.860,306.048 259.400 C 304.700 260.940,303.111 262.830,302.517 263.600 C 301.924 264.370,300.440 265.857,299.219 266.904 C 297.999 267.952,295.380 270.240,293.400 271.990 C 291.420 273.739,289.350 275.395,288.800 275.668 C 288.250 275.942,287.530 276.382,287.200 276.646 C 286.870 276.911,285.790 277.566,284.800 278.101 C 283.810 278.637,282.370 279.419,281.600 279.838 C 280.830 280.257,280.068 280.780,279.906 281.000 C 279.745 281.220,279.609 281.243,279.606 281.051 C 279.603 280.859,279.330 280.926,279.000 281.200 C 278.670 281.474,278.400 281.573,278.400 281.420 C 278.400 281.268,278.117 281.426,277.771 281.771 C 277.426 282.117,276.886 282.400,276.571 282.400 C 276.257 282.400,276.000 282.574,276.000 282.787 C 276.000 283.001,275.730 283.071,275.400 282.945 C 275.070 282.818,274.800 282.933,274.800 283.200 C 274.800 283.467,274.530 283.582,274.200 283.455 C 273.870 283.329,273.600 283.419,273.600 283.655 C 273.600 283.892,273.330 283.982,273.000 283.855 C 272.670 283.729,272.400 283.785,272.400 283.981 C 272.400 284.176,271.860 284.455,271.200 284.600 C 270.540 284.745,270.000 285.001,270.000 285.168 C 270.000 285.335,269.002 285.712,267.781 286.004 C 266.561 286.297,265.475 286.678,265.369 286.851 C 265.262 287.024,264.910 287.064,264.587 286.940 C 264.264 286.816,264.000 286.935,264.000 287.204 C 264.000 287.496,263.678 287.609,263.200 287.484 C 262.760 287.369,262.400 287.461,262.400 287.687 C 262.400 287.934,261.909 288.002,261.180 287.856 C 260.509 287.722,260.058 287.771,260.178 287.965 C 260.298 288.159,258.859 288.546,256.980 288.826 C 255.102 289.105,253.471 289.484,253.358 289.668 C 253.245 289.852,252.415 289.884,251.515 289.740 C 250.328 289.550,249.956 289.605,250.162 289.939 C 250.362 290.263,249.869 290.400,248.504 290.400 C 247.435 290.400,246.335 290.625,246.060 290.900 C 245.174 291.786,169.803 291.891,170.142 291.006 C 170.284 290.637,170.400 252.820,170.400 206.970 L 170.400 123.605 201.500 123.481 C 232.624 123.357,239.812 123.416,245.800 123.842 M134.800 207.200 L 134.800 290.800 122.800 290.800 L 110.800 290.800 110.800 207.200 L 110.800 123.600 122.800 123.600 L 134.800 123.600 134.800 207.200 M194.400 206.976 C 194.400 245.594,194.543 268.841,194.780 268.988 C 195.922 269.693,245.292 269.120,245.533 268.398 C 245.729 267.814,247.998 267.907,248.013 268.500 C 248.020 268.805,248.232 268.728,248.557 268.300 C 248.864 267.895,249.617 267.600,250.344 267.600 C 251.035 267.600,251.600 267.414,251.600 267.186 C 251.600 266.906,251.861 266.912,252.406 267.203 C 253.039 267.542,253.262 267.503,253.448 267.020 C 253.609 266.599,253.985 266.481,254.642 266.646 C 255.246 266.798,255.600 266.713,255.600 266.416 C 255.600 266.119,255.912 266.045,256.450 266.216 C 257.022 266.397,257.211 266.341,257.026 266.043 C 256.869 265.789,257.029 265.600,257.400 265.600 C 257.786 265.600,257.945 265.802,257.794 266.100 C 257.655 266.375,257.799 266.285,258.114 265.900 C 258.430 265.515,258.983 265.200,259.344 265.200 C 259.705 265.200,260.000 265.026,260.000 264.813 C 260.000 264.599,260.270 264.529,260.600 264.655 C 260.930 264.782,261.200 264.674,261.200 264.416 C 261.200 264.119,261.513 264.045,262.050 264.216 C 262.622 264.397,262.811 264.341,262.626 264.043 C 262.476 263.799,262.588 263.586,262.876 263.569 C 264.605 263.468,267.200 262.497,267.200 261.951 C 267.200 261.758,267.470 261.600,267.800 261.600 C 268.130 261.600,268.760 261.240,269.200 260.800 C 269.688 260.312,270.005 260.195,270.013 260.500 C 270.020 260.805,270.232 260.728,270.557 260.300 C 270.849 259.915,271.293 259.600,271.544 259.600 C 271.795 259.600,272.000 259.409,272.000 259.176 C 272.000 258.943,272.154 258.848,272.342 258.964 C 272.530 259.081,273.430 258.537,274.342 257.757 C 275.254 256.976,276.000 256.487,276.000 256.669 C 276.001 256.851,276.427 256.505,276.947 255.900 C 277.467 255.295,278.031 254.800,278.201 254.800 C 279.001 254.800,286.385 246.737,287.093 245.090 C 287.403 244.368,287.761 244.052,288.061 244.237 C 288.384 244.437,288.454 244.318,288.281 243.866 C 288.140 243.500,288.209 243.200,288.433 243.200 C 288.658 243.200,289.030 242.660,289.260 242.000 C 289.490 241.341,289.838 240.900,290.034 241.021 C 290.230 241.142,290.284 240.962,290.153 240.621 C 289.990 240.198,290.151 239.998,290.657 239.994 C 291.283 239.989,291.306 239.927,290.800 239.600 C 290.400 239.342,290.367 239.210,290.700 239.206 C 290.975 239.203,291.200 238.941,291.200 238.624 C 291.200 238.307,291.408 237.919,291.662 237.762 C 291.967 237.573,292.014 237.654,291.800 238.000 C 291.582 238.353,291.632 238.427,291.954 238.228 C 292.217 238.066,292.323 237.588,292.189 237.166 C 292.011 236.604,292.140 236.398,292.673 236.394 C 293.289 236.389,293.308 236.328,292.800 236.000 C 292.454 235.776,292.398 235.610,292.668 235.606 C 292.926 235.603,293.254 235.064,293.398 234.410 C 293.542 233.755,293.781 233.237,293.930 233.257 C 294.714 233.366,294.931 233.139,294.400 232.763 C 293.981 232.467,293.941 232.281,294.269 232.147 C 294.527 232.041,294.966 231.064,295.245 229.977 C 295.523 228.890,295.880 228.000,296.038 228.000 C 296.196 228.000,296.231 227.640,296.116 227.200 C 295.999 226.753,296.104 226.400,296.353 226.400 C 296.599 226.400,296.800 226.070,296.800 225.667 C 296.800 225.263,296.922 224.811,297.072 224.662 C 297.221 224.512,297.414 223.630,297.501 222.701 C 297.587 221.771,297.793 220.919,297.958 220.806 C 298.463 220.460,298.800 219.200,298.387 219.200 C 297.819 219.200,297.914 218.095,298.500 217.900 C 298.884 217.772,299.000 215.151,299.000 206.600 C 299.000 198.049,298.884 195.428,298.500 195.300 C 298.225 195.208,298.000 194.688,298.000 194.143 C 298.000 193.482,298.166 193.237,298.500 193.406 C 298.775 193.545,298.708 193.418,298.350 193.122 C 297.993 192.827,297.571 191.644,297.413 190.493 C 297.254 189.342,296.950 188.400,296.736 188.400 C 296.521 188.400,296.460 188.040,296.600 187.600 C 296.748 187.135,296.672 186.800,296.419 186.800 C 296.149 186.800,296.085 186.400,296.251 185.740 C 296.428 185.033,296.374 184.769,296.088 184.946 C 295.821 185.111,295.474 184.380,295.166 183.005 C 294.895 181.792,294.538 180.800,294.374 180.800 C 294.209 180.800,294.164 180.395,294.272 179.900 C 294.407 179.284,294.354 179.162,294.103 179.513 C 293.841 179.881,293.586 179.569,293.204 178.413 C 292.912 177.526,292.538 176.800,292.373 176.800 C 292.209 176.800,292.164 176.395,292.272 175.900 C 292.408 175.282,292.354 175.161,292.102 175.514 C 291.840 175.882,291.599 175.574,291.257 174.432 C 290.994 173.554,290.333 172.307,289.789 171.660 C 289.245 171.014,288.800 170.306,288.800 170.088 C 288.800 169.870,288.350 169.397,287.800 169.037 C 287.250 168.676,286.800 168.136,286.800 167.837 C 286.800 167.537,286.344 166.993,285.787 166.628 C 285.230 166.263,284.868 165.813,284.983 165.628 C 285.097 165.442,284.878 165.045,284.496 164.745 C 283.852 164.241,283.845 164.260,284.393 165.000 C 284.979 165.790,284.975 165.791,284.103 165.047 C 283.617 164.632,283.318 164.133,283.439 163.937 C 283.560 163.741,283.421 163.630,283.130 163.690 C 282.838 163.751,282.649 163.562,282.710 163.270 C 282.770 162.979,282.659 162.840,282.463 162.961 C 282.058 163.211,280.684 161.849,281.012 161.521 C 281.129 161.404,280.682 161.083,280.018 160.807 C 279.354 160.532,278.907 160.150,279.026 159.958 C 279.144 159.766,278.931 159.728,278.551 159.874 C 278.024 160.076,277.921 159.982,278.116 159.474 C 278.256 159.109,278.243 158.837,278.086 158.869 C 277.524 158.987,275.600 158.012,275.600 157.610 C 275.600 157.384,275.465 157.244,275.300 157.297 C 274.853 157.441,273.167 156.166,273.442 155.891 C 273.572 155.761,273.304 155.752,272.844 155.872 C 272.298 156.015,271.924 155.868,271.762 155.445 C 271.626 155.090,271.253 154.800,270.934 154.800 C 270.614 154.800,270.456 154.632,270.583 154.428 C 270.709 154.223,270.602 153.925,270.345 153.766 C 270.038 153.576,269.984 153.651,270.188 153.981 C 270.591 154.632,268.741 154.107,268.306 153.446 C 268.144 153.201,268.009 153.148,268.006 153.329 C 268.003 153.509,267.717 153.374,267.371 153.029 C 267.026 152.683,266.475 152.400,266.148 152.400 C 265.815 152.400,265.673 152.205,265.826 151.957 C 266.011 151.659,265.822 151.603,265.250 151.784 C 264.713 151.955,264.400 151.881,264.400 151.584 C 264.400 151.326,264.130 151.218,263.800 151.345 C 263.470 151.471,263.200 151.409,263.200 151.206 C 263.200 151.002,262.552 150.715,261.760 150.566 C 260.699 150.367,260.463 150.196,260.860 149.916 C 261.231 149.655,261.055 149.611,260.300 149.775 C 259.605 149.927,259.200 149.848,259.200 149.561 C 259.200 149.304,258.853 149.197,258.400 149.316 C 257.960 149.431,257.600 149.373,257.600 149.187 C 257.600 149.001,256.772 148.725,255.760 148.573 C 254.440 148.375,254.072 148.190,254.460 147.919 C 254.818 147.668,254.495 147.624,253.500 147.788 C 252.675 147.925,252.000 147.871,252.000 147.669 C 252.000 147.166,249.007 146.634,245.276 146.474 C 244.245 146.430,243.652 146.239,243.800 146.000 C 243.939 145.774,243.615 145.600,243.056 145.600 C 242.511 145.600,241.751 145.479,241.367 145.332 C 240.891 145.149,240.761 145.213,240.958 145.532 C 241.164 145.866,240.667 146.000,239.224 146.000 C 238.111 146.000,237.200 145.820,237.200 145.600 C 237.200 145.338,229.800 145.200,215.800 145.200 L 194.400 145.200 194.400 206.976 " stroke="none" fill="#d44c64" fill-rule="evenodd"></path><path id="path1" d="M223.790 1.584 C 223.932 1.813,224.517 2.000,225.090 2.000 C 226.344 2.000,226.199 1.808,224.666 1.440 C 223.923 1.262,223.621 1.311,223.790 1.584 M134.000 99.200 C 133.683 99.396,133.556 99.689,133.718 99.852 C 133.881 100.014,134.223 99.937,134.480 99.680 C 135.084 99.076,134.747 98.738,134.000 99.200 M291.400 140.257 C 293.437 142.064,294.187 142.591,293.402 141.663 C 292.966 141.148,292.247 140.541,291.804 140.314 C 291.362 140.087,291.180 140.062,291.400 140.257 M238.190 145.584 C 238.332 145.813,238.917 146.000,239.490 146.000 C 240.744 146.000,240.599 145.808,239.066 145.440 C 238.323 145.262,238.021 145.311,238.190 145.584 M317.200 239.400 C 317.200 239.730,317.380 240.000,317.600 240.000 C 317.820 240.000,318.000 239.730,318.000 239.400 C 318.000 239.070,317.820 238.800,317.600 238.800 C 317.380 238.800,317.200 239.070,317.200 239.400 M300.778 264.700 L 299.400 266.200 300.900 264.822 C 301.725 264.063,302.400 263.388,302.400 263.322 C 302.400 263.016,302.062 263.304,300.778 264.700 M245.800 268.400 C 245.508 268.873,245.899 268.873,247.000 268.400 C 247.771 268.069,247.769 268.055,246.924 268.028 C 246.442 268.013,245.936 268.180,245.800 268.400 M280.800 279.600 C 280.315 279.914,280.372 279.989,281.100 279.994 C 281.595 279.997,282.000 279.820,282.000 279.600 C 282.000 279.099,281.576 279.099,280.800 279.600 M182.929 291.100 C 189.930 291.161,201.270 291.161,208.129 291.100 C 214.988 291.038,209.260 290.988,195.400 290.988 C 181.540 290.988,175.928 291.039,182.929 291.100 " stroke="none" fill="#de7d8d" fill-rule="evenodd"></path><path id="path2" d="M16.156 0.489 C 27.321 0.740,32.239 0.721,32.536 0.424 C 32.835 0.125,28.123 0.019,16.580 0.064 L 0.200 0.129 16.156 0.489 M326.800 0.400 C 326.800 0.852,354.621 0.864,375.200 0.422 C 385.346 0.204,381.860 0.136,357.300 0.075 C 337.183 0.026,326.800 0.136,326.800 0.400 M399.465 12.065 C 399.050 30.971,399.135 63.200,399.600 63.200 C 399.863 63.200,400.000 52.400,400.000 31.600 C 400.000 14.220,399.939 -0.000,399.865 -0.000 C 399.790 -0.000,399.610 5.429,399.465 12.065 M216.100 0.676 C 216.485 0.776,217.115 0.776,217.500 0.676 C 217.885 0.575,217.570 0.493,216.800 0.493 C 216.030 0.493,215.715 0.575,216.100 0.676 M121.100 73.493 C 122.035 73.577,123.565 73.577,124.500 73.493 C 125.435 73.409,124.670 73.340,122.800 73.340 C 120.930 73.340,120.165 73.409,121.100 73.493 M112.600 77.128 C 112.160 77.514,111.445 78.273,111.010 78.815 C 110.576 79.357,110.981 79.088,111.910 78.219 C 113.432 76.795,113.804 76.373,113.500 76.413 C 113.445 76.421,113.040 76.742,112.600 77.128 M137.600 88.800 C 137.600 90.667,137.767 92.000,138.000 92.000 C 138.233 92.000,138.400 90.667,138.400 88.800 C 138.400 86.933,138.233 85.600,138.000 85.600 C 137.767 85.600,137.600 86.933,137.600 88.800 M107.331 89.000 C 107.333 90.540,107.405 91.121,107.492 90.291 C 107.579 89.461,107.577 88.201,107.489 87.491 C 107.400 86.781,107.329 87.460,107.331 89.000 M107.600 92.800 C 107.600 93.547,107.707 93.653,108.080 93.280 C 108.453 92.907,108.453 92.693,108.080 92.320 C 107.707 91.947,107.600 92.053,107.600 92.800 M114.639 101.756 C 114.761 102.076,115.144 102.446,115.488 102.578 C 116.463 102.952,116.414 102.669,115.368 101.887 C 114.651 101.350,114.470 101.318,114.639 101.756 M119.776 104.038 C 119.651 104.242,120.875 104.400,122.576 104.400 C 124.239 104.400,125.600 104.245,125.600 104.056 C 125.600 103.594,120.061 103.578,119.776 104.038 M187.500 123.893 C 188.435 123.977,189.965 123.977,190.900 123.893 C 191.835 123.809,191.070 123.740,189.200 123.740 C 187.330 123.740,186.565 123.809,187.500 123.893 M195.297 123.989 C 199.875 124.455,239.106 124.476,239.393 124.012 C 239.566 123.731,232.175 123.618,216.124 123.657 C 203.186 123.688,193.814 123.837,195.297 123.989 M244.300 124.689 C 245.015 124.778,246.185 124.778,246.900 124.689 C 247.615 124.601,247.030 124.528,245.600 124.528 C 244.170 124.528,243.585 124.601,244.300 124.689 M299.583 148.111 C 301.259 149.886,302.499 150.856,301.062 149.269 C 300.698 148.866,300.400 148.326,300.400 148.069 C 300.400 147.811,300.189 147.600,299.931 147.600 C 299.674 147.600,299.089 147.290,298.631 146.911 C 298.174 146.533,298.602 147.073,299.583 148.111 M302.849 151.581 C 303.329 152.230,304.009 152.871,304.361 153.005 C 304.712 153.139,304.380 152.608,303.622 151.825 C 301.944 150.091,301.688 150.010,302.849 151.581 M322.901 195.000 C 322.905 195.880,322.987 196.193,323.083 195.695 C 323.179 195.198,323.175 194.478,323.075 194.095 C 322.975 193.713,322.896 194.120,322.901 195.000 M323.200 206.800 C 323.200 212.596,323.338 215.562,323.600 215.400 C 323.846 215.248,324.000 211.937,324.000 206.800 C 324.000 201.663,323.846 198.352,323.600 198.200 C 323.338 198.038,323.200 201.004,323.200 206.800 M307.287 256.409 C 306.819 257.159,306.841 257.181,307.591 256.713 C 308.036 256.435,308.400 256.071,308.400 255.904 C 308.400 255.326,307.791 255.603,307.287 256.409 M296.501 268.240 C 296.006 268.804,295.811 269.196,296.067 269.111 C 296.498 268.967,297.880 267.191,297.549 267.207 C 297.467 267.211,296.995 267.676,296.501 268.240 M249.600 268.000 C 249.600 268.220,249.870 268.400,250.200 268.400 C 250.530 268.400,250.800 268.220,250.800 268.000 C 250.800 267.780,250.530 267.600,250.200 267.600 C 249.870 267.600,249.600 267.780,249.600 268.000 M288.953 274.503 C 288.539 274.989,288.470 275.188,288.800 274.947 C 289.130 274.705,289.661 274.426,289.980 274.327 C 290.352 274.211,290.407 274.052,290.134 273.883 C 289.899 273.738,289.368 274.017,288.953 274.503 M244.800 290.000 C 244.076 290.232,244.551 290.331,246.524 290.360 C 248.247 290.385,249.156 290.253,249.000 290.000 C 248.713 289.535,246.252 289.535,244.800 290.000 M198.930 290.700 C 207.251 290.760,220.751 290.760,228.930 290.700 C 237.108 290.639,230.300 290.590,213.800 290.590 C 197.300 290.590,190.608 290.639,198.930 290.700 M33.200 399.600 C 23.548 399.738,32.861 399.848,59.324 399.907 C 86.661 399.969,100.364 399.866,100.200 399.600 C 99.943 399.184,62.253 399.184,33.200 399.600 M292.400 399.600 C 292.400 399.865,308.250 399.975,339.300 399.925 C 370.105 399.875,381.876 399.756,373.600 399.578 C 352.769 399.130,292.400 399.147,292.400 399.600 " stroke="none" fill="#ecd1c4" fill-rule="evenodd"></path><path id="path3" d="M109.892 79.442 C 109.731 79.602,109.600 80.009,109.600 80.347 C 109.600 80.797,109.718 80.842,110.045 80.515 C 110.290 80.270,110.421 79.863,110.337 79.610 C 110.252 79.357,110.052 79.281,109.892 79.442 M113.600 101.524 C 113.600 101.739,113.885 102.024,114.233 102.157 C 114.623 102.307,114.806 102.218,114.708 101.925 C 114.509 101.327,113.600 100.998,113.600 101.524 M117.600 103.623 C 117.600 104.025,119.580 104.356,119.805 103.991 C 119.908 103.825,119.454 103.611,118.796 103.514 C 118.138 103.418,117.600 103.466,117.600 103.623 M239.400 124.000 C 239.260 124.227,239.596 124.400,240.176 124.400 C 240.739 124.400,241.200 124.220,241.200 124.000 C 241.200 123.780,240.851 123.600,240.424 123.600 C 239.997 123.600,239.536 123.780,239.400 124.000 M245.633 124.143 C 246.050 124.502,248.797 124.719,248.585 124.376 C 248.457 124.169,247.703 124.000,246.910 124.000 C 246.116 124.000,245.542 124.065,245.633 124.143 M295.052 143.791 C 295.180 144.126,295.536 144.400,295.843 144.400 C 296.624 144.400,296.536 144.101,295.609 143.605 C 294.964 143.259,294.861 143.294,295.052 143.791 M324.131 207.400 C 324.133 208.940,324.205 209.521,324.292 208.691 C 324.379 207.861,324.377 206.601,324.289 205.891 C 324.200 205.181,324.129 205.860,324.131 207.400 M195.900 269.493 C 196.835 269.577,198.365 269.577,199.300 269.493 C 200.235 269.409,199.470 269.340,197.600 269.340 C 195.730 269.340,194.965 269.409,195.900 269.493 M202.700 269.493 C 203.635 269.577,205.165 269.577,206.100 269.493 C 207.035 269.409,206.270 269.340,204.400 269.340 C 202.530 269.340,201.765 269.409,202.700 269.493 M294.887 270.009 C 294.419 270.759,294.441 270.781,295.191 270.313 C 295.636 270.035,296.000 269.671,296.000 269.504 C 296.000 268.926,295.391 269.203,294.887 270.009 M226.321 291.099 C 228.588 291.170,232.188 291.170,234.321 291.098 C 236.455 291.026,234.600 290.968,230.200 290.968 C 225.800 290.968,224.055 291.027,226.321 291.099 M240.300 291.082 C 240.795 291.178,241.605 291.178,242.100 291.082 C 242.595 290.987,242.190 290.909,241.200 290.909 C 240.210 290.909,239.805 290.987,240.300 291.082 " stroke="none" fill="#e494a4" fill-rule="evenodd"></path><path id="path4" d="M211.803 0.805 C 211.937 1.022,212.877 1.200,213.890 1.200 C 216.168 1.200,216.010 0.993,213.479 0.661 C 212.255 0.501,211.647 0.553,211.803 0.805 M218.800 1.289 C 218.800 1.460,219.520 1.600,220.400 1.600 C 221.280 1.600,222.000 1.529,222.000 1.442 C 222.000 1.355,221.280 1.215,220.400 1.131 C 219.520 1.048,218.800 1.119,218.800 1.289 M293.544 23.606 C 294.555 24.456,295.200 24.624,295.200 24.039 C 295.200 23.841,294.615 23.483,293.900 23.245 L 292.600 22.812 293.544 23.606 M310.243 33.369 C 310.364 33.682,310.715 34.035,311.025 34.154 C 311.489 34.332,311.502 34.232,311.098 33.585 C 310.532 32.680,309.919 32.525,310.243 33.369 M328.788 47.388 C 329.584 48.235,330.400 48.420,330.400 47.753 C 330.400 47.643,330.253 47.644,330.073 47.755 C 329.893 47.866,329.493 47.607,329.185 47.179 C 328.876 46.750,328.452 46.400,328.242 46.400 C 328.032 46.400,328.278 46.844,328.788 47.388 M331.600 49.773 C 331.600 49.868,332.185 50.343,332.900 50.829 L 334.200 51.712 333.117 50.656 C 332.101 49.664,331.600 49.373,331.600 49.773 M338.800 56.125 C 338.800 56.194,339.385 56.779,340.100 57.425 L 341.400 58.600 340.225 57.300 C 339.130 56.088,338.800 55.816,338.800 56.125 M124.800 72.953 C 124.800 73.038,125.250 73.193,125.800 73.298 C 126.350 73.403,126.800 73.334,126.800 73.145 C 126.800 72.955,126.350 72.800,125.800 72.800 C 125.250 72.800,124.800 72.869,124.800 72.953 M110.800 78.000 C 110.330 78.660,110.036 79.200,110.146 79.200 C 110.256 79.200,110.730 78.660,111.200 78.000 C 111.670 77.340,111.964 76.800,111.854 76.800 C 111.744 76.800,111.270 77.340,110.800 78.000 M108.911 80.900 C 108.194 81.828,107.951 82.400,108.276 82.397 C 108.454 82.395,108.808 81.945,109.062 81.397 C 109.568 80.306,109.512 80.123,108.911 80.900 M137.864 85.071 C 138.119 85.253,138.414 85.942,138.520 86.601 C 138.697 87.699,138.708 87.685,138.656 86.431 C 138.622 85.588,138.369 85.000,138.000 84.900 C 137.595 84.791,137.551 84.847,137.864 85.071 M106.966 85.745 C 106.851 86.044,106.814 87.349,106.884 88.645 L 107.012 91.000 107.206 88.099 C 107.401 85.188,107.354 84.733,106.966 85.745 M138.776 88.500 C 138.763 88.775,138.610 89.864,138.437 90.920 C 138.263 91.975,138.251 92.695,138.411 92.520 C 138.763 92.131,139.315 88.000,139.014 88.000 C 138.896 88.000,138.789 88.225,138.776 88.500 M107.044 92.600 C 107.373 94.071,107.602 94.390,107.594 93.367 C 107.591 92.945,107.405 92.330,107.182 92.000 C 106.885 91.562,106.848 91.724,107.044 92.600 M381.606 117.100 C 381.624 117.977,382.388 118.559,382.394 117.700 C 382.397 117.205,382.220 116.800,382.000 116.800 C 381.780 116.800,381.603 116.935,381.606 117.100 M234.716 123.497 C 236.099 123.575,238.259 123.574,239.516 123.495 C 240.772 123.416,239.640 123.352,237.000 123.353 C 234.360 123.353,233.332 123.418,234.716 123.497 M242.201 123.999 C 242.052 124.240,242.548 124.400,243.443 124.400 C 245.105 124.400,245.129 124.239,243.525 123.855 C 242.933 123.713,242.337 123.778,242.201 123.999 M299.000 146.657 C 301.037 148.464,301.787 148.991,301.002 148.063 C 300.566 147.548,299.847 146.941,299.404 146.714 C 298.962 146.487,298.780 146.462,299.000 146.657 M268.400 153.637 C 268.400 153.837,268.724 154.000,269.120 154.000 C 269.516 154.000,270.092 154.225,270.401 154.500 C 270.873 154.921,270.883 154.896,270.468 154.343 C 269.909 153.600,268.400 153.085,268.400 153.637 M307.147 155.800 C 307.594 156.460,308.433 157.540,309.013 158.200 L 310.066 159.400 309.253 158.200 C 308.806 157.540,307.967 156.460,307.387 155.800 L 306.334 154.600 307.147 155.800 M271.800 155.600 C 271.936 155.820,272.317 156.000,272.647 156.000 C 272.977 156.000,273.136 155.820,273.000 155.600 C 272.864 155.380,272.483 155.200,272.153 155.200 C 271.823 155.200,271.664 155.380,271.800 155.600 M312.627 164.000 C 313.452 165.712,313.603 165.894,313.591 165.167 C 313.586 164.855,313.215 164.150,312.767 163.600 L 311.952 162.600 312.627 164.000 M1.502 175.000 C 1.397 175.550,1.466 176.000,1.655 176.000 C 1.845 176.000,2.000 175.550,2.000 175.000 C 2.000 174.450,1.931 174.000,1.847 174.000 C 1.762 174.000,1.607 174.450,1.502 175.000 M398.400 180.000 C 398.400 180.660,398.549 181.200,398.731 181.200 C 398.913 181.200,398.982 180.660,398.885 180.000 C 398.788 179.340,398.640 178.800,398.555 178.800 C 398.470 178.800,398.400 179.340,398.400 180.000 M398.846 185.600 C 398.827 186.150,398.987 186.870,399.200 187.200 C 399.694 187.964,399.694 187.142,399.200 185.600 L 398.880 184.600 398.846 185.600 M0.700 191.700 C 0.599 191.975,0.510 194.810,0.503 198.000 C 0.496 201.190,0.627 203.440,0.793 203.000 C 1.076 202.250,1.279 191.200,1.010 191.200 C 0.941 191.200,0.802 191.425,0.700 191.700 M324.481 206.650 C 324.437 208.438,324.311 210.507,324.201 211.250 L 324.003 212.600 324.417 211.283 C 324.645 210.558,324.771 208.488,324.697 206.683 L 324.563 203.400 324.481 206.650 M0.493 210.400 C 0.493 211.170,0.575 211.485,0.676 211.100 C 0.776 210.715,0.776 210.085,0.676 209.700 C 0.575 209.315,0.493 209.630,0.493 210.400 M315.033 244.657 C 314.652 245.650,315.072 245.786,315.582 244.834 C 315.827 244.375,315.861 244.000,315.657 244.000 C 315.453 244.000,315.172 244.296,315.033 244.657 M309.300 254.665 C 309.025 254.776,308.800 255.120,308.800 255.430 C 308.800 255.740,308.440 256.218,308.000 256.493 C 307.560 256.768,307.200 257.197,307.200 257.447 C 307.200 257.697,306.922 258.133,306.581 258.415 C 305.873 259.003,304.253 261.200,304.528 261.200 C 304.673 261.200,307.799 257.404,309.715 254.900 C 310.122 254.368,310.086 254.348,309.300 254.665 M300.000 265.665 C 298.790 266.782,298.340 267.317,299.000 266.854 C 300.618 265.719,301.297 265.131,301.949 264.300 C 302.849 263.152,302.325 263.519,300.000 265.665 M292.000 272.838 C 289.061 275.226,287.528 276.622,288.800 275.751 C 289.781 275.080,295.200 270.651,295.200 270.520 C 295.200 270.264,294.908 270.476,292.000 272.838 M245.000 290.800 C 244.229 291.131,244.231 291.145,245.076 291.172 C 245.558 291.187,246.064 291.020,246.200 290.800 C 246.492 290.327,246.101 290.327,245.000 290.800 M170.000 291.300 C 170.000 291.465,185.075 291.558,203.500 291.506 C 221.925 291.454,231.600 291.365,225.000 291.307 C 193.631 291.031,170.000 291.028,170.000 291.300 M326.500 354.288 C 326.225 354.386,326.000 354.735,326.000 355.062 C 326.000 355.567,326.098 355.559,326.648 355.010 C 327.352 354.306,327.290 354.006,326.500 354.288 M272.629 385.980 C 271.952 386.226,271.938 386.291,272.516 386.513 C 272.878 386.651,273.288 386.581,273.427 386.356 C 273.784 385.778,273.524 385.656,272.629 385.980 M174.400 398.400 C 175.176 398.901,175.600 398.901,175.600 398.400 C 175.600 398.180,175.195 398.003,174.700 398.006 C 173.972 398.011,173.915 398.086,174.400 398.400 M178.400 398.553 C 178.400 398.638,178.850 398.793,179.400 398.898 C 179.950 399.003,180.400 398.934,180.400 398.745 C 180.400 398.555,179.950 398.400,179.400 398.400 C 178.850 398.400,178.400 398.469,178.400 398.553 M219.800 398.800 C 219.508 399.273,219.899 399.273,221.000 398.800 C 221.771 398.469,221.769 398.455,220.924 398.428 C 220.442 398.413,219.936 398.580,219.800 398.800 " stroke="none" fill="#dc6578" fill-rule="evenodd"></path></g></svg>