<svg id="svg" version="1.1" xmlns="http://www.w3.org/2000/svg" xmlns:xlink="http://www.w3.org/1999/xlink" width="400" height="400" viewBox="0, 0, 400,400"><g id="svgg"><path id="path0" d="M261.454 102.202 C 260.767 102.561,259.225 102.800,257.603 102.800 C 254.773 102.800,253.758 103.108,248.853 105.458 C 242.731 108.391,236.800 116.827,236.800 122.603 C 236.800 123.541,236.531 124.824,236.202 125.454 C 235.314 127.157,235.314 156.043,236.202 157.746 C 236.531 158.376,236.800 159.760,236.800 160.822 C 236.800 161.884,236.980 162.864,237.200 163.000 C 237.420 163.136,237.601 163.552,237.602 163.924 C 237.604 164.296,237.874 165.116,238.202 165.746 C 238.531 166.376,238.800 167.080,238.800 167.311 C 238.800 167.719,241.132 171.601,241.617 172.000 C 241.751 172.110,242.176 172.740,242.562 173.400 C 243.759 175.447,249.100 178.709,253.010 179.780 C 254.325 180.140,255.713 180.607,256.095 180.817 C 256.980 181.305,267.343 181.319,268.972 180.835 C 269.647 180.634,271.100 180.265,272.200 180.015 C 276.489 179.041,282.498 175.355,284.504 172.467 C 287.405 168.288,289.181 164.305,289.194 161.946 C 289.197 161.366,289.469 160.376,289.798 159.746 C 290.582 158.242,290.690 140.850,289.920 140.080 C 289.235 139.395,266.765 139.395,266.080 140.080 C 265.531 140.629,265.426 145.907,265.949 146.730 C 266.200 147.127,267.966 147.293,272.973 147.389 C 281.758 147.558,281.764 147.563,281.453 153.400 C 281.112 159.785,279.922 164.800,278.747 164.800 C 278.577 164.800,278.152 165.401,277.803 166.137 C 276.060 169.810,270.748 172.800,265.966 172.800 C 264.197 172.800,262.450 173.012,262.024 173.278 C 261.431 173.648,261.023 173.648,260.211 173.278 C 259.634 173.015,258.885 172.800,258.547 172.800 C 254.713 172.800,247.780 166.353,246.138 161.259 C 244.679 156.737,243.941 131.538,245.106 126.075 C 246.547 119.323,249.575 114.370,253.469 112.395 C 254.091 112.079,255.029 111.501,255.554 111.111 C 256.079 110.720,256.799 110.399,257.154 110.398 C 257.509 110.396,258.316 110.126,258.946 109.798 C 261.428 108.503,268.398 109.330,272.386 111.393 C 273.858 112.154,277.822 116.145,279.278 118.330 C 280.515 120.187,280.615 120.180,285.653 117.849 C 288.556 116.505,288.585 116.414,286.856 114.000 C 283.991 109.999,278.132 104.800,276.488 104.800 C 276.088 104.800,275.589 104.646,275.380 104.458 C 274.619 103.773,270.800 102.800,268.871 102.800 C 267.782 102.800,266.376 102.531,265.746 102.202 C 265.116 101.874,264.150 101.605,263.600 101.605 C 263.050 101.605,262.084 101.874,261.454 102.202 M111.099 151.034 C 110.934 151.199,110.800 152.200,110.800 153.259 C 110.800 155.393,110.403 155.128,115.000 156.065 C 122.876 157.671,125.617 159.663,127.700 165.292 L 128.800 168.265 128.800 223.852 C 128.800 254.887,128.646 279.608,128.451 279.820 C 128.260 280.029,127.774 281.271,127.372 282.579 C 126.158 286.529,121.158 290.800,117.748 290.800 C 117.033 290.800,116.336 290.980,116.200 291.200 C 116.064 291.420,115.255 291.600,114.402 291.600 C 111.434 291.600,110.739 292.132,110.878 294.298 L 111.000 296.200 118.400 296.321 C 124.411 296.419,126.222 296.316,128.048 295.773 C 130.646 295.001,145.040 295.133,147.597 295.952 C 149.819 296.664,165.373 296.556,165.980 295.824 C 167.809 293.620,165.106 291.602,160.324 291.601 C 158.632 291.600,157.136 291.420,157.000 291.200 C 156.864 290.980,155.897 290.800,154.852 290.800 C 151.555 290.800,149.213 289.228,146.510 285.200 C 144.742 282.567,144.705 282.001,144.539 255.575 L 144.388 231.351 145.428 230.375 C 146.455 229.412,146.562 229.400,154.134 229.396 C 164.580 229.390,164.912 229.590,169.717 238.800 C 170.578 240.450,171.514 242.070,171.797 242.400 C 172.079 242.730,172.800 243.947,173.399 245.103 C 173.998 246.260,174.642 247.302,174.830 247.419 C 175.019 247.535,175.644 248.567,176.218 249.711 C 176.793 250.856,177.385 251.884,177.533 251.996 C 177.921 252.290,180.800 256.739,180.800 257.045 C 180.800 257.187,181.520 258.358,182.400 259.647 C 183.280 260.936,184.000 262.086,184.000 262.202 C 184.000 262.317,184.855 263.624,185.900 265.106 C 186.945 266.588,187.980 268.090,188.200 268.444 C 189.408 270.389,190.293 271.562,191.636 273.000 C 192.458 273.880,193.461 275.156,193.865 275.835 C 195.314 278.272,196.703 280.222,197.407 280.805 C 197.800 281.132,198.836 282.366,199.708 283.547 C 201.242 285.623,205.409 290.000,205.852 290.000 C 206.106 290.000,209.439 292.275,210.600 293.242 C 211.040 293.608,211.850 294.042,212.400 294.206 C 212.950 294.370,214.120 294.833,215.000 295.234 C 217.730 296.478,220.139 297.188,221.654 297.194 C 222.454 297.197,223.624 297.469,224.254 297.798 C 226.039 298.728,236.777 298.607,239.200 297.628 C 242.629 296.243,241.519 292.800,237.643 292.800 C 236.986 292.800,236.345 292.634,236.219 292.431 C 236.094 292.228,235.461 291.945,234.813 291.803 C 233.576 291.531,230.343 290.077,230.000 289.639 C 229.890 289.498,228.540 288.582,227.000 287.603 C 224.379 285.938,212.400 274.432,212.400 273.581 C 212.400 273.388,211.410 272.121,210.200 270.765 C 208.990 269.409,208.000 268.155,208.000 267.978 C 208.000 267.801,207.370 266.989,206.600 266.173 C 205.830 265.356,205.200 264.544,205.200 264.367 C 205.200 264.191,204.300 263.018,203.200 261.761 C 202.100 260.504,201.200 259.348,201.200 259.192 C 201.200 259.036,200.676 258.308,200.036 257.575 C 199.396 256.842,198.383 255.332,197.785 254.221 C 197.187 253.109,196.570 252.110,196.415 252.000 C 195.975 251.690,192.000 246.123,192.000 245.817 C 192.000 245.668,191.550 244.957,191.000 244.236 C 190.450 243.514,190.000 242.784,190.000 242.613 C 190.000 242.442,188.920 240.712,187.600 238.768 C 186.280 236.825,185.200 235.078,185.200 234.888 C 185.200 234.697,184.570 233.655,183.800 232.572 C 183.030 231.489,182.400 230.281,182.400 229.888 C 182.400 228.993,184.947 226.400,185.826 226.400 C 186.505 226.400,188.535 225.602,190.600 224.525 C 195.404 222.016,197.828 220.678,198.000 220.437 C 198.110 220.284,198.920 219.637,199.800 219.002 C 202.356 217.155,203.585 215.948,205.300 213.600 C 206.184 212.390,207.108 211.220,207.354 211.000 C 208.659 209.830,212.400 203.171,212.400 202.017 C 212.400 201.781,212.562 201.277,212.760 200.895 C 212.958 200.513,213.397 199.210,213.736 198.000 C 214.074 196.790,214.555 195.080,214.803 194.200 C 215.652 191.189,214.844 179.124,213.641 176.877 C 213.399 176.424,213.200 175.573,213.200 174.987 C 213.200 173.885,210.422 168.179,209.147 166.661 C 208.749 166.188,207.724 164.893,206.870 163.786 C 204.755 161.043,195.305 154.800,193.268 154.800 C 192.878 154.800,192.389 154.646,192.180 154.458 C 191.640 153.972,187.826 152.803,186.725 152.786 C 186.216 152.778,185.350 152.514,184.800 152.200 C 184.250 151.886,182.801 151.622,181.580 151.614 C 180.359 151.606,179.176 151.416,178.952 151.192 C 178.680 150.920,172.273 150.854,159.772 150.995 C 129.660 151.332,114.301 151.343,112.799 151.029 C 112.028 150.867,111.263 150.870,111.099 151.034 M173.800 158.983 C 174.900 159.132,176.367 159.512,177.060 159.827 C 177.754 160.142,178.538 160.400,178.804 160.400 C 183.375 160.400,195.600 171.775,195.600 176.028 C 195.600 176.276,195.842 177.046,196.139 177.740 C 197.234 180.303,197.600 181.914,197.600 184.168 C 197.600 185.468,197.883 187.075,198.247 187.842 C 198.785 188.976,198.805 189.312,198.368 189.839 C 198.079 190.187,197.711 191.941,197.550 193.736 C 197.042 199.411,194.631 206.314,192.557 208.036 C 192.250 208.290,191.999 208.701,191.997 208.949 C 191.992 209.548,188.028 213.785,186.958 214.334 C 186.496 214.571,185.347 215.409,184.406 216.195 C 182.607 217.698,179.073 219.485,177.132 219.874 C 176.500 220.000,175.886 220.260,175.768 220.452 C 175.650 220.643,174.854 220.800,174.000 220.800 C 173.146 220.800,172.336 220.980,172.200 221.200 C 171.644 222.099,146.866 221.701,145.562 220.773 L 144.400 219.946 144.400 190.295 L 144.400 160.644 145.485 159.511 L 146.570 158.379 159.185 158.545 C 166.123 158.636,172.700 158.833,173.800 158.983 " stroke="none" fill="#f8f6f7" fill-rule="evenodd"></path><path id="path1" d="M1.147 0.900 C 1.066 1.395,1.046 91.395,1.102 200.900 L 1.203 400.000 200.602 400.000 L 400.000 400.000 400.000 200.602 L 400.000 1.204 201.333 1.102 C 42.828 1.021,2.633 0.899,2.500 0.500 C 2.223 -0.332,1.303 -0.061,1.147 0.900 M265.600 100.600 C 266.810 100.925,268.340 101.193,269.000 101.195 C 270.287 101.200,277.049 103.296,278.954 104.280 C 280.497 105.077,286.501 111.278,288.256 113.886 C 290.525 117.258,290.254 117.663,284.034 120.191 C 280.916 121.459,279.758 121.280,278.400 119.321 C 271.173 108.896,259.907 107.707,250.941 116.421 C 246.839 120.409,245.871 125.617,246.116 142.400 C 246.404 162.103,247.896 166.531,255.400 169.959 C 256.500 170.461,257.817 171.072,258.326 171.317 C 260.427 172.328,269.034 171.299,272.310 169.645 C 275.111 168.232,278.564 163.693,279.016 160.830 C 279.140 160.044,279.413 158.645,279.621 157.723 C 279.829 156.800,280.000 154.526,280.000 152.670 C 280.000 148.581,280.449 148.813,272.526 148.805 C 264.666 148.798,264.000 148.376,264.000 143.400 C 264.000 138.111,264.279 138.005,278.240 138.002 C 292.962 137.999,292.000 137.214,292.000 149.235 C 292.000 160.358,290.812 165.223,286.445 171.979 C 280.763 180.770,265.294 185.352,253.984 181.595 C 242.359 177.732,237.582 171.910,234.627 158.000 C 232.945 150.083,233.926 125.244,236.172 118.878 C 239.598 109.170,249.204 101.227,257.563 101.192 C 258.924 101.187,263.400 100.304,263.400 100.041 C 263.400 100.023,264.390 100.275,265.600 100.600 M127.400 149.690 C 183.563 149.373,178.864 149.281,185.488 150.836 C 188.790 151.612,193.393 153.137,196.000 154.319 C 199.855 156.068,208.400 162.452,208.400 163.583 C 208.400 163.811,209.030 164.695,209.801 165.548 C 212.697 168.754,214.724 173.810,216.369 181.931 C 218.050 190.235,215.275 202.054,209.844 209.720 C 208.940 210.996,207.614 212.886,206.898 213.920 C 205.583 215.818,201.745 219.600,201.133 219.600 C 200.951 219.600,200.127 220.207,199.301 220.949 C 198.476 221.691,196.630 222.885,195.200 223.602 C 193.770 224.320,192.185 225.231,191.678 225.628 C 191.171 226.025,189.551 226.744,188.078 227.226 C 183.815 228.622,183.269 229.449,184.938 231.978 C 185.453 232.760,186.646 234.708,187.588 236.308 C 188.530 237.907,189.461 239.314,189.656 239.435 C 189.852 239.555,190.391 240.407,190.856 241.327 C 191.996 243.588,196.619 250.552,197.421 251.217 C 197.775 251.511,198.576 252.764,199.200 254.000 C 199.824 255.236,200.644 256.504,201.022 256.818 C 201.400 257.132,202.152 258.090,202.693 258.947 C 203.234 259.804,204.187 261.067,204.811 261.753 C 205.435 262.439,206.363 263.570,206.873 264.266 C 207.383 264.962,208.371 266.312,209.068 267.266 C 213.239 272.969,223.317 283.551,226.749 285.829 C 227.987 286.651,229.744 287.832,230.654 288.454 C 231.564 289.075,233.994 290.062,236.054 290.647 C 241.955 292.321,242.800 292.954,242.800 295.697 C 242.800 301.345,226.579 301.648,213.745 296.239 C 208.648 294.091,198.000 285.547,198.000 283.605 C 198.000 283.383,197.356 282.526,196.570 281.701 C 195.783 280.875,194.309 278.940,193.293 277.400 C 192.278 275.860,190.863 273.970,190.149 273.200 C 188.788 271.733,181.643 261.034,177.200 253.810 C 175.770 251.485,174.168 248.912,173.640 248.092 C 173.111 247.271,172.283 245.880,171.798 245.000 C 171.314 244.120,170.306 242.373,169.559 241.117 C 168.811 239.862,167.575 237.731,166.812 236.382 C 166.048 235.033,164.854 233.270,164.158 232.464 L 162.893 231.000 155.265 230.876 C 150.270 230.795,147.355 230.903,146.819 231.190 C 145.617 231.833,145.532 277.343,146.724 281.609 C 148.411 287.642,152.172 290.000,160.109 290.000 C 166.483 290.000,170.411 293.989,167.200 297.200 C 166.141 298.259,150.705 298.418,147.364 297.404 C 144.608 296.568,130.710 296.565,127.600 297.400 C 124.377 298.265,111.332 298.248,110.089 297.377 C 109.115 296.695,108.814 293.469,109.588 292.022 C 110.036 291.186,112.748 290.000,114.213 290.000 C 119.471 290.000,124.318 286.822,126.075 282.221 L 127.000 279.800 127.106 224.221 C 127.221 163.496,127.329 166.601,124.962 162.517 C 123.487 159.972,118.989 158.165,110.127 156.557 C 108.974 156.347,108.774 155.514,109.149 152.467 C 109.512 149.518,109.986 149.052,112.200 149.467 C 113.080 149.631,119.920 149.732,127.400 149.690 M146.184 160.500 C 146.079 160.775,146.040 174.230,146.097 190.400 L 146.200 219.800 158.735 219.906 L 171.271 220.011 175.535 218.781 C 184.152 216.296,189.350 211.928,193.603 203.600 C 196.023 198.861,196.982 191.173,196.074 183.800 C 194.525 171.230,187.292 163.488,174.618 160.834 C 169.765 159.818,146.549 159.545,146.184 160.500 " stroke="none" fill="#d44c64" fill-rule="evenodd"></path><path id="path2" d="M0.800 0.600 C 0.800 0.930,0.620 1.200,0.400 1.200 C 0.134 1.200,0.000 67.933,0.000 200.600 C 0.000 377.864,0.067 400.000,0.602 400.000 C 1.137 400.000,1.203 377.800,1.198 200.000 C 1.195 90.000,1.104 0.000,0.996 0.000 C 0.888 0.000,0.800 0.270,0.800 0.600 M2.400 0.348 C 2.400 0.539,3.075 0.807,3.900 0.943 C 7.633 1.560,400.000 1.220,400.000 0.600 C 400.000 0.067,377.644 0.000,201.200 0.000 C 88.885 0.000,2.400 0.151,2.400 0.348 M262.400 100.372 C 261.609 100.603,261.901 100.718,263.800 100.925 C 265.120 101.069,267.460 101.352,269.000 101.555 C 270.540 101.757,271.863 101.862,271.941 101.787 C 272.018 101.713,271.388 101.549,270.541 101.424 C 268.500 101.122,264.489 100.397,263.882 100.221 C 263.617 100.144,262.950 100.212,262.400 100.372 M257.308 101.184 C 255.718 101.330,254.316 101.550,254.194 101.673 C 253.868 101.999,259.660 101.544,260.600 101.170 C 261.500 100.811,261.347 100.812,257.308 101.184 M275.600 103.295 C 276.150 103.537,277.230 104.005,278.000 104.335 C 279.847 105.125,287.135 112.541,288.375 114.891 C 289.483 116.991,289.255 117.618,287.027 118.596 C 286.352 118.892,286.070 119.149,286.400 119.166 C 287.520 119.224,289.600 117.652,289.600 116.747 C 289.600 113.375,278.412 102.643,275.089 102.827 C 274.820 102.842,275.050 103.052,275.600 103.295 M246.200 105.262 C 244.826 106.013,239.969 110.941,239.361 112.200 L 238.782 113.400 239.491 112.407 C 240.438 111.080,245.168 106.373,246.410 105.521 C 247.529 104.753,247.407 104.602,246.200 105.262 M257.891 111.202 C 251.929 113.469,248.114 117.688,246.861 123.400 C 246.620 124.500,246.238 126.245,246.011 127.277 C 245.768 128.386,245.635 134.114,245.684 141.277 L 245.769 153.400 246.034 140.400 C 246.319 126.486,246.346 126.201,247.855 121.529 C 249.855 115.334,256.457 110.800,263.477 110.800 C 269.838 110.800,274.233 113.309,278.400 119.321 C 279.466 120.859,281.107 121.516,282.264 120.868 C 282.804 120.566,282.609 120.480,281.379 120.482 C 279.704 120.484,279.794 120.562,276.716 116.438 C 272.825 111.226,264.164 108.817,257.891 111.202 M283.824 119.813 C 282.836 120.560,283.485 120.552,284.800 119.800 C 285.380 119.468,285.548 119.228,285.200 119.227 C 284.870 119.226,284.251 119.490,283.824 119.813 M235.445 121.100 C 234.899 123.854,234.767 125.380,235.123 124.800 C 235.326 124.470,235.598 123.255,235.727 122.100 C 235.977 119.866,235.809 119.268,235.445 121.100 M234.250 126.850 C 233.903 128.586,234.013 155.571,234.372 156.800 C 234.533 157.350,234.674 150.555,234.685 141.700 C 234.707 125.299,234.688 124.661,234.250 126.850 M266.139 138.438 C 263.590 139.176,263.129 148.400,265.642 148.400 C 265.953 148.400,265.889 148.140,265.462 147.669 C 264.460 146.561,264.512 140.384,265.531 139.462 C 266.643 138.456,290.019 138.457,290.851 139.464 C 291.283 139.986,291.400 142.204,291.400 149.890 C 291.400 155.259,291.517 159.235,291.660 158.726 C 292.109 157.130,292.033 141.415,291.571 140.089 C 291.284 139.267,290.733 138.716,289.911 138.429 C 288.397 137.901,267.965 137.909,266.139 138.438 M267.400 148.653 C 270.117 148.935,279.891 148.978,279.463 148.706 C 279.208 148.544,276.120 148.438,272.600 148.470 C 269.080 148.502,266.740 148.584,267.400 148.653 M110.031 149.573 C 108.604 150.475,108.684 156.282,110.127 156.576 C 112.402 157.039,114.178 157.171,113.400 156.819 C 112.960 156.619,112.150 156.441,111.600 156.422 C 109.773 156.359,109.418 155.836,109.522 153.353 C 109.642 150.481,110.039 150.007,112.349 149.972 C 113.751 149.951,114.006 149.860,113.400 149.600 C 112.332 149.141,110.733 149.128,110.031 149.573 M142.234 149.500 C 142.069 149.665,135.784 149.902,128.267 150.028 L 114.600 150.255 128.800 150.097 C 136.610 150.010,151.157 149.907,161.126 149.869 C 171.095 149.831,178.835 149.683,178.326 149.540 C 177.020 149.173,142.598 149.135,142.234 149.500 M280.006 152.723 C 280.003 154.550,279.829 156.800,279.621 157.723 C 279.413 158.645,279.138 160.059,279.010 160.864 C 278.882 161.670,277.807 163.786,276.622 165.567 C 274.118 169.329,274.357 169.524,276.975 165.855 C 278.019 164.393,278.952 162.528,279.218 161.375 C 279.468 160.289,279.926 158.368,280.236 157.106 C 280.884 154.469,280.967 150.877,280.400 150.000 C 280.132 149.586,280.010 150.430,280.006 152.723 M180.600 150.400 C 182.365 150.849,184.845 150.849,183.800 150.400 C 183.360 150.211,182.190 150.065,181.200 150.075 C 179.575 150.093,179.517 150.124,180.600 150.400 M185.800 151.252 C 186.460 151.466,188.710 152.190,190.800 152.861 C 192.890 153.532,194.771 154.243,194.980 154.441 C 195.189 154.638,195.630 154.800,195.960 154.800 C 197.282 154.800,195.593 153.999,190.973 152.435 C 188.318 151.536,185.798 150.814,185.373 150.832 C 184.858 150.853,185.001 150.993,185.800 151.252 M246.255 156.000 C 246.650 160.542,247.972 164.228,250.061 166.609 C 251.618 168.384,255.425 170.935,256.122 170.671 C 256.385 170.571,255.897 170.185,255.037 169.813 C 250.657 167.918,246.869 161.990,246.772 156.879 C 246.756 156.066,246.591 155.040,246.404 154.600 C 246.187 154.089,246.133 154.594,246.255 156.000 M196.800 154.962 C 196.800 155.051,198.579 156.296,200.753 157.730 C 206.396 161.451,210.201 165.733,213.076 171.597 C 213.778 173.029,214.363 173.977,214.376 173.704 C 214.419 172.811,211.235 167.135,209.801 165.548 C 209.030 164.695,208.400 163.811,208.400 163.583 C 208.400 162.829,205.155 160.064,201.159 157.412 C 197.428 154.936,196.800 154.583,196.800 154.962 M116.912 157.995 C 121.259 159.154,123.833 160.598,124.989 162.526 C 126.217 164.575,126.342 164.153,125.131 162.048 C 123.866 159.850,117.977 157.079,114.905 157.236 C 114.517 157.256,115.420 157.597,116.912 157.995 M235.050 159.600 C 235.375 161.841,235.602 162.160,235.594 160.367 C 235.591 159.615,235.408 158.730,235.188 158.400 C 234.909 157.981,234.867 158.342,235.050 159.600 M149.600 159.465 C 144.753 159.710,145.200 156.605,145.200 190.062 L 145.200 218.836 146.182 219.818 L 147.164 220.800 158.749 220.800 C 165.121 220.800,170.664 220.665,171.067 220.500 C 171.470 220.335,166.040 220.110,159.000 220.000 L 146.200 219.800 146.200 190.000 L 146.200 160.200 158.372 160.094 C 177.730 159.926,185.428 162.438,191.659 170.960 C 192.287 171.818,192.800 172.338,192.800 172.116 C 192.800 171.643,189.995 168.361,188.037 166.544 C 181.789 160.744,169.412 158.465,149.600 159.465 M290.600 161.200 C 290.448 161.891,290.414 162.547,290.524 162.657 C 290.634 162.767,290.848 162.291,291.000 161.600 C 291.152 160.909,291.186 160.253,291.076 160.143 C 290.966 160.033,290.752 160.509,290.600 161.200 M289.644 164.710 C 288.775 167.247,287.937 168.915,286.383 171.200 C 283.654 175.213,282.336 176.368,277.400 179.069 C 276.080 179.791,275.181 180.386,275.403 180.391 C 276.328 180.412,282.770 176.487,284.266 174.991 C 286.469 172.788,291.002 164.068,290.305 163.372 C 290.222 163.289,289.924 163.891,289.644 164.710 M236.028 163.876 C 236.118 164.915,236.744 165.796,236.772 164.924 C 236.787 164.442,236.620 163.936,236.400 163.800 C 236.180 163.664,236.013 163.698,236.028 163.876 M236.800 166.181 C 236.800 167.672,242.067 175.311,244.086 176.749 C 246.166 178.230,250.416 180.517,250.651 180.282 C 250.745 180.189,249.961 179.678,248.911 179.148 C 243.885 176.610,240.146 172.717,237.918 167.700 C 237.259 166.218,236.800 165.594,236.800 166.181 M127.000 223.377 C 127.000 254.478,127.132 279.716,127.294 279.462 C 127.664 278.881,127.642 168.447,127.272 167.515 C 127.122 167.138,127.000 192.276,127.000 223.377 M272.000 169.800 C 271.010 170.330,270.365 170.772,270.566 170.782 C 271.200 170.813,274.000 169.461,274.000 169.123 C 274.000 168.709,274.101 168.675,272.000 169.800 M265.720 171.175 C 263.916 171.314,262.296 171.580,262.120 171.767 C 261.704 172.208,268.779 171.656,269.585 171.184 C 270.117 170.873,270.119 170.831,269.600 170.874 C 269.270 170.901,267.524 171.037,265.720 171.175 M192.800 173.040 C 192.800 173.260,192.955 173.611,193.145 173.820 C 193.934 174.688,196.003 181.755,196.040 183.709 C 196.103 187.000,196.711 188.350,196.760 185.306 C 196.791 183.393,196.436 181.730,195.238 178.164 C 193.858 174.057,192.800 171.834,192.800 173.040 M214.555 175.200 C 214.642 175.750,215.091 178.000,215.553 180.200 C 216.755 185.925,216.691 191.007,215.355 195.940 C 213.996 200.956,213.844 201.752,214.618 199.800 C 217.354 192.896,217.531 185.123,215.144 176.800 C 214.733 175.370,214.469 174.650,214.555 175.200 M251.200 180.572 C 251.200 181.985,265.692 183.577,268.488 182.472 C 268.866 182.322,266.672 182.262,263.612 182.338 C 258.502 182.464,257.787 182.391,254.842 181.438 C 251.512 180.360,251.200 180.286,251.200 180.572 M272.274 181.025 C 269.611 181.752,269.102 182.045,270.987 181.766 C 271.861 181.637,273.121 181.291,273.787 180.998 C 275.300 180.333,274.773 180.343,272.274 181.025 M196.305 191.600 C 196.143 192.150,196.006 193.410,196.001 194.400 C 195.995 195.390,195.725 197.190,195.400 198.400 C 194.777 200.722,194.669 201.465,195.003 201.130 C 195.558 200.576,196.830 194.205,196.723 192.522 C 196.623 190.956,196.545 190.785,196.305 191.600 M193.858 203.068 C 191.773 207.496,188.509 211.753,185.759 213.627 C 183.913 214.884,181.496 216.800,181.754 216.800 C 182.055 216.800,184.080 215.561,184.400 215.181 C 184.510 215.051,185.625 214.193,186.879 213.275 C 188.132 212.357,189.681 210.840,190.322 209.903 C 192.148 207.232,194.840 202.320,194.703 201.908 C 194.635 201.704,194.254 202.225,193.858 203.068 M212.297 204.747 C 209.653 210.118,204.493 216.567,200.400 219.616 C 198.970 220.682,197.350 221.936,196.800 222.404 L 195.800 223.254 196.800 222.769 C 197.350 222.503,198.476 221.681,199.301 220.942 C 200.127 220.204,200.951 219.600,201.133 219.600 C 201.745 219.600,205.583 215.818,206.898 213.920 C 207.614 212.886,208.981 210.938,209.935 209.591 C 211.597 207.243,214.253 202.105,213.947 201.828 C 213.866 201.754,213.124 203.068,212.297 204.747 M178.400 217.828 C 176.970 218.340,174.900 219.028,173.800 219.356 C 171.923 219.916,171.898 219.940,173.400 219.741 C 175.265 219.493,180.393 217.767,180.967 217.193 C 181.439 216.721,181.604 216.680,178.400 217.828 M192.318 224.760 C 190.850 225.617,188.727 226.626,187.599 227.000 C 186.471 227.375,185.620 227.754,185.708 227.842 C 186.006 228.139,190.577 226.386,191.994 225.431 C 192.767 224.910,193.940 224.202,194.600 223.858 C 195.260 223.514,195.617 223.225,195.394 223.216 C 195.170 223.207,193.786 223.902,192.318 224.760 M183.601 229.976 C 183.600 230.593,185.686 234.197,189.091 239.461 C 190.251 241.255,191.200 242.807,191.200 242.909 C 191.200 243.087,193.927 247.166,198.777 254.244 C 201.518 258.244,204.352 262.067,204.973 262.600 C 205.229 262.820,205.970 263.741,206.619 264.648 C 208.389 267.117,211.064 270.604,211.676 271.239 C 211.973 271.548,212.876 272.700,213.683 273.800 C 218.689 280.626,231.726 290.932,235.149 290.769 C 235.507 290.752,234.968 290.437,233.951 290.069 C 232.934 289.701,231.404 288.935,230.551 288.366 C 229.698 287.798,227.987 286.658,226.749 285.834 C 223.310 283.543,213.232 272.960,209.068 267.266 C 208.371 266.312,207.383 264.962,206.873 264.266 C 206.363 263.570,205.435 262.439,204.811 261.753 C 204.187 261.067,203.234 259.804,202.693 258.947 C 202.152 258.090,201.400 257.132,201.022 256.818 C 200.644 256.504,199.824 255.236,199.200 254.000 C 198.576 252.764,197.775 251.511,197.421 251.217 C 196.705 250.623,192.188 243.897,190.828 241.400 C 190.349 240.520,189.326 238.900,188.554 237.800 C 187.782 236.700,186.667 234.929,186.075 233.864 C 185.484 232.800,184.685 231.360,184.301 230.664 C 183.916 229.969,183.601 229.659,183.601 229.976 M146.049 231.348 L 145.158 232.296 145.313 255.648 C 145.476 280.172,145.549 281.221,147.350 284.704 C 148.317 286.573,150.379 288.800,151.141 288.799 C 151.550 288.798,151.331 288.511,150.564 288.044 C 148.986 287.081,147.439 284.439,146.633 281.327 C 145.561 277.192,145.689 231.795,146.774 231.214 C 147.757 230.688,161.186 230.663,162.559 231.184 C 163.793 231.653,165.853 234.396,167.978 238.400 C 169.764 241.766,171.996 245.209,171.997 244.600 C 171.997 244.380,171.279 243.120,170.400 241.800 C 169.521 240.480,168.802 239.263,168.801 239.096 C 168.796 237.924,164.156 231.457,162.963 230.959 C 160.366 229.874,147.148 230.178,146.049 231.348 M172.000 245.330 C 172.000 245.489,172.585 246.509,173.300 247.596 C 174.015 248.683,175.770 251.477,177.200 253.805 C 181.608 260.981,188.782 271.727,190.149 273.200 C 190.863 273.970,192.278 275.860,193.293 277.400 C 194.309 278.940,195.783 280.875,196.570 281.701 C 197.356 282.526,198.000 283.383,198.000 283.605 C 198.000 285.341,209.697 294.953,212.800 295.767 C 213.673 295.996,213.648 295.945,212.600 295.366 C 207.047 292.298,201.550 287.619,198.307 283.200 C 197.419 281.990,196.480 280.820,196.219 280.600 C 195.958 280.380,194.736 278.760,193.503 277.000 C 192.270 275.240,190.901 273.417,190.461 272.949 C 188.880 271.268,174.800 249.715,174.800 248.976 C 174.800 248.850,174.315 248.084,173.722 247.273 C 172.282 245.305,172.000 244.987,172.000 245.330 M125.862 282.616 C 124.393 287.034,121.509 288.751,113.000 290.272 C 111.518 290.537,111.485 290.570,112.559 290.711 C 118.148 291.450,127.930 284.777,126.690 281.073 C 126.603 280.813,126.230 281.507,125.862 282.616 M152.600 289.160 C 154.205 289.851,158.277 290.538,161.400 290.645 C 163.532 290.718,164.266 290.642,163.600 290.417 C 163.050 290.232,161.520 290.061,160.200 290.038 C 158.880 290.014,157.170 289.833,156.400 289.634 C 154.229 289.074,151.655 288.753,152.600 289.160 M110.000 291.600 C 108.801 292.799,108.858 296.515,110.089 297.377 C 111.095 298.082,124.905 298.238,126.800 297.566 C 127.410 297.350,124.596 297.286,119.586 297.404 C 109.977 297.629,109.600 297.524,109.600 294.631 C 109.600 293.493,109.882 292.550,110.429 291.854 C 111.406 290.612,111.143 290.457,110.000 291.600 M165.900 291.596 C 167.115 292.336,167.200 292.533,167.200 294.604 C 167.200 297.712,167.172 297.718,155.648 297.172 C 142.313 296.540,129.902 296.314,128.896 296.685 C 128.426 296.858,131.883 296.942,136.578 296.872 C 143.454 296.769,145.527 296.866,147.230 297.372 C 150.744 298.416,166.117 298.283,167.200 297.200 C 169.004 295.396,167.597 290.796,165.242 290.801 C 164.873 290.802,165.153 291.140,165.900 291.596 M236.392 291.186 C 236.717 291.392,237.660 291.675,238.486 291.815 C 241.268 292.285,243.007 294.754,242.142 297.006 C 241.372 299.012,232.836 300.217,226.400 299.228 C 220.928 298.388,219.962 298.338,222.600 299.034 C 229.183 300.771,241.177 299.885,242.415 297.571 C 243.785 295.012,242.278 292.470,238.775 291.430 C 236.388 290.721,235.514 290.632,236.392 291.186 M215.800 296.968 C 216.900 297.507,218.340 298.056,219.000 298.188 C 219.660 298.320,219.120 297.997,217.800 297.470 C 214.204 296.036,213.573 295.877,215.800 296.968 " stroke="none" fill="#c47281" fill-rule="evenodd"></path><path id="path3" d="M261.600 101.400 C 260.830 101.697,259.120 101.955,257.800 101.975 C 248.227 102.120,236.046 113.711,236.006 122.713 C 236.003 123.435,235.730 124.672,235.400 125.462 C 234.904 126.649,234.800 129.421,234.800 141.462 C 234.800 153.503,234.904 156.274,235.400 157.462 C 235.730 158.251,236.000 159.553,236.000 160.354 C 236.000 161.156,236.375 162.799,236.834 164.006 C 237.292 165.213,237.773 166.560,237.902 167.000 C 238.121 167.745,240.714 171.954,241.229 172.400 C 241.356 172.510,241.777 173.140,242.165 173.800 C 243.471 176.024,248.365 178.934,253.944 180.803 C 257.734 182.072,265.955 182.529,268.972 181.637 C 269.647 181.437,271.280 180.954,272.600 180.564 C 281.355 177.974,287.742 171.589,289.586 163.583 C 289.863 162.382,290.339 160.674,290.645 159.787 C 291.053 158.601,291.200 155.837,291.200 149.356 C 291.200 137.641,292.636 138.800,278.119 138.800 C 264.404 138.800,265.070 138.554,265.161 143.596 C 265.245 148.184,264.936 148.000,272.560 148.000 C 281.130 148.000,280.943 147.877,280.661 153.347 C 280.274 160.834,279.843 162.428,277.181 166.200 C 275.268 168.911,274.743 169.342,271.464 170.894 C 269.571 171.790,268.570 172.000,266.183 172.000 C 264.563 172.000,262.785 172.206,262.231 172.459 C 258.450 174.181,249.195 167.863,247.205 162.200 C 245.519 157.403,244.401 133.478,245.588 127.600 C 247.066 120.283,247.922 118.168,250.417 115.659 C 258.417 107.618,273.289 108.477,277.822 117.242 C 279.466 120.421,281.030 120.887,284.400 119.203 C 285.170 118.818,286.250 118.368,286.800 118.204 C 289.148 117.503,289.282 116.944,287.697 114.464 C 283.155 107.353,274.991 102.000,268.690 102.000 C 267.704 102.000,266.251 101.730,265.462 101.400 C 263.765 100.691,263.441 100.691,261.600 101.400 M265.746 102.202 C 266.376 102.531,267.782 102.800,268.871 102.800 C 270.800 102.800,274.619 103.773,275.380 104.458 C 275.589 104.646,276.088 104.800,276.488 104.800 C 278.132 104.800,283.991 109.999,286.856 114.000 C 288.585 116.414,288.556 116.505,285.653 117.849 C 280.615 120.180,280.515 120.187,279.278 118.330 C 277.822 116.145,273.858 112.154,272.386 111.393 C 268.398 109.330,261.428 108.503,258.946 109.798 C 258.316 110.126,257.509 110.396,257.154 110.398 C 256.799 110.399,256.079 110.720,255.554 111.111 C 255.029 111.501,254.091 112.079,253.469 112.395 C 249.575 114.370,246.547 119.323,245.106 126.075 C 243.941 131.538,244.679 156.737,246.138 161.259 C 247.780 166.353,254.713 172.800,258.547 172.800 C 258.885 172.800,259.634 173.015,260.211 173.278 C 261.023 173.648,261.431 173.648,262.024 173.278 C 262.450 173.012,264.197 172.800,265.966 172.800 C 270.748 172.800,276.060 169.810,277.803 166.137 C 278.152 165.401,278.577 164.800,278.747 164.800 C 279.922 164.800,281.112 159.785,281.453 153.400 C 281.764 147.563,281.758 147.558,272.973 147.389 C 267.966 147.293,266.200 147.127,265.949 146.730 C 265.426 145.907,265.531 140.629,266.080 140.080 C 266.765 139.395,289.235 139.395,289.920 140.080 C 290.690 140.850,290.582 158.242,289.798 159.746 C 289.469 160.376,289.197 161.366,289.194 161.946 C 289.181 164.305,287.405 168.288,284.504 172.467 C 282.498 175.355,276.489 179.041,272.200 180.015 C 271.100 180.265,269.647 180.634,268.972 180.835 C 267.343 181.319,256.980 181.305,256.095 180.817 C 255.713 180.607,254.325 180.140,253.010 179.780 C 249.100 178.709,243.759 175.447,242.562 173.400 C 242.176 172.740,241.751 172.110,241.617 172.000 C 241.132 171.601,238.800 167.719,238.800 167.311 C 238.800 167.080,238.531 166.376,238.202 165.746 C 237.874 165.116,237.604 164.296,237.602 163.924 C 237.601 163.552,237.420 163.136,237.200 163.000 C 236.980 162.864,236.800 161.884,236.800 160.822 C 236.800 159.760,236.531 158.376,236.202 157.746 C 235.314 156.043,235.314 127.157,236.202 125.454 C 236.531 124.824,236.800 123.541,236.800 122.603 C 236.800 116.827,242.731 108.391,248.853 105.458 C 253.758 103.108,254.773 102.800,257.603 102.800 C 259.225 102.800,260.767 102.561,261.454 102.202 C 262.084 101.874,263.050 101.605,263.600 101.605 C 264.150 101.605,265.116 101.874,265.746 102.202 M110.500 150.452 C 110.207 150.750,110.000 152.002,110.000 153.480 L 110.000 156.000 111.265 156.000 C 112.465 156.000,113.563 156.269,119.562 158.030 C 124.067 159.352,125.454 160.785,127.165 165.887 C 127.996 168.361,128.000 168.670,127.999 223.687 L 127.997 279.000 126.832 282.119 C 124.682 287.874,122.259 289.591,114.800 290.642 C 110.894 291.192,110.000 291.927,110.000 294.586 C 110.000 295.942,110.186 296.471,110.774 296.786 C 112.047 297.468,125.564 297.318,127.600 296.600 C 130.013 295.749,144.553 295.752,147.364 296.604 C 149.469 297.243,165.336 297.483,166.268 296.890 C 166.928 296.470,167.335 294.590,167.029 293.374 C 166.667 291.929,164.520 291.099,160.200 290.731 C 154.451 290.241,152.272 289.833,150.789 288.966 C 148.959 287.898,146.462 284.559,146.176 282.800 C 146.051 282.030,145.781 280.987,145.575 280.481 C 145.356 279.945,145.200 269.494,145.200 255.404 L 145.200 231.245 146.089 230.623 C 147.161 229.872,160.769 229.708,162.674 230.423 C 164.442 231.086,166.157 233.283,168.768 238.227 C 169.457 239.532,170.374 241.140,170.806 241.800 C 171.237 242.460,171.728 243.270,171.897 243.600 C 172.065 243.930,173.069 245.640,174.127 247.400 C 175.185 249.160,176.264 250.960,176.525 251.400 C 176.786 251.840,177.102 252.290,177.227 252.400 C 177.352 252.510,178.150 253.770,179.000 255.200 C 182.019 260.275,189.761 271.817,190.885 272.915 C 191.512 273.529,192.849 275.329,193.857 276.915 C 194.864 278.502,196.085 280.160,196.570 280.600 C 197.056 281.040,198.183 282.390,199.075 283.600 C 202.127 287.739,210.353 294.466,213.400 295.314 C 213.840 295.436,215.524 296.091,217.141 296.768 C 218.759 297.446,220.649 298.002,221.341 298.004 C 222.034 298.007,223.484 298.277,224.564 298.604 C 227.411 299.468,236.602 299.426,238.892 298.538 C 243.507 296.749,242.932 292.849,237.925 291.982 C 235.728 291.601,230.642 289.695,230.467 289.187 C 230.393 288.974,230.182 288.800,229.996 288.800 C 228.323 288.800,216.162 277.893,213.493 274.000 C 212.814 273.010,211.796 271.745,211.230 271.189 C 210.663 270.633,209.120 268.671,207.800 266.830 C 206.480 264.989,204.900 262.958,204.290 262.317 C 203.679 261.676,202.741 260.457,202.206 259.609 C 201.670 258.761,201.048 257.953,200.822 257.814 C 200.597 257.674,199.681 256.354,198.788 254.880 C 197.895 253.406,196.360 251.120,195.377 249.800 C 194.393 248.480,192.840 246.140,191.925 244.600 C 191.010 243.060,189.329 240.360,188.190 238.600 C 181.990 229.024,181.939 228.476,187.100 226.776 C 188.585 226.287,190.250 225.575,190.800 225.194 C 191.350 224.812,193.060 223.840,194.600 223.034 C 215.170 212.259,222.426 184.163,209.298 166.121 C 206.650 162.481,202.894 158.800,201.828 158.800 C 201.703 158.800,200.746 158.192,199.701 157.448 C 196.566 155.218,193.426 153.809,188.800 152.557 C 187.590 152.230,186.060 151.775,185.400 151.546 C 182.297 150.471,177.613 150.250,159.600 150.326 C 149.370 150.369,134.880 150.431,127.400 150.464 C 119.920 150.496,113.170 150.392,112.400 150.233 C 111.458 150.038,110.837 150.110,110.500 150.452 M127.600 151.263 C 134.970 151.231,149.447 151.110,159.772 150.995 C 172.273 150.854,178.680 150.920,178.952 151.192 C 179.176 151.416,180.359 151.606,181.580 151.614 C 182.801 151.622,184.250 151.886,184.800 152.200 C 185.350 152.514,186.216 152.778,186.725 152.786 C 187.826 152.803,191.640 153.972,192.180 154.458 C 192.389 154.646,192.878 154.800,193.268 154.800 C 195.305 154.800,204.755 161.043,206.870 163.786 C 207.724 164.893,208.749 166.188,209.147 166.661 C 210.422 168.179,213.200 173.885,213.200 174.987 C 213.200 175.573,213.399 176.424,213.641 176.877 C 214.844 179.124,215.652 191.189,214.803 194.200 C 214.555 195.080,214.074 196.790,213.736 198.000 C 213.397 199.210,212.958 200.513,212.760 200.895 C 212.562 201.277,212.400 201.781,212.400 202.017 C 212.400 203.171,208.659 209.830,207.354 211.000 C 207.108 211.220,206.184 212.390,205.300 213.600 C 203.585 215.948,202.356 217.155,199.800 219.002 C 198.920 219.637,198.110 220.284,198.000 220.437 C 197.828 220.678,195.404 222.016,190.600 224.525 C 188.535 225.602,186.505 226.400,185.826 226.400 C 184.947 226.400,182.400 228.993,182.400 229.888 C 182.400 230.281,183.030 231.489,183.800 232.572 C 184.570 233.655,185.200 234.697,185.200 234.888 C 185.200 235.078,186.280 236.825,187.600 238.768 C 188.920 240.712,190.000 242.442,190.000 242.613 C 190.000 242.784,190.450 243.514,191.000 244.236 C 191.550 244.957,192.000 245.668,192.000 245.817 C 192.000 246.123,195.975 251.690,196.415 252.000 C 196.570 252.110,197.187 253.109,197.785 254.221 C 198.383 255.332,199.396 256.842,200.036 257.575 C 200.676 258.308,201.200 259.036,201.200 259.192 C 201.200 259.348,202.100 260.504,203.200 261.761 C 204.300 263.018,205.200 264.191,205.200 264.367 C 205.200 264.544,205.830 265.356,206.600 266.173 C 207.370 266.989,208.000 267.801,208.000 267.978 C 208.000 268.155,208.990 269.409,210.200 270.765 C 211.410 272.121,212.400 273.388,212.400 273.581 C 212.400 274.432,224.379 285.938,227.000 287.603 C 228.540 288.582,229.890 289.498,230.000 289.639 C 230.343 290.077,233.576 291.531,234.813 291.803 C 235.461 291.945,236.094 292.228,236.219 292.431 C 236.345 292.634,236.986 292.800,237.643 292.800 C 241.519 292.800,242.629 296.243,239.200 297.628 C 236.777 298.607,226.039 298.728,224.254 297.798 C 223.624 297.469,222.454 297.197,221.654 297.194 C 220.139 297.188,217.730 296.478,215.000 295.234 C 214.120 294.833,212.950 294.370,212.400 294.206 C 211.850 294.042,211.040 293.608,210.600 293.242 C 209.439 292.275,206.106 290.000,205.852 290.000 C 205.409 290.000,201.242 285.623,199.708 283.547 C 198.836 282.366,197.800 281.132,197.407 280.805 C 196.703 280.222,195.314 278.272,193.865 275.835 C 193.461 275.156,192.458 273.880,191.636 273.000 C 190.293 271.562,189.408 270.389,188.200 268.444 C 187.980 268.090,186.945 266.588,185.900 265.106 C 184.855 263.624,184.000 262.317,184.000 262.202 C 184.000 262.086,183.280 260.936,182.400 259.647 C 181.520 258.358,180.800 257.187,180.800 257.045 C 180.800 256.739,177.921 252.290,177.533 251.996 C 177.385 251.884,176.793 250.856,176.218 249.711 C 175.644 248.567,175.019 247.535,174.830 247.419 C 174.642 247.302,173.998 246.260,173.399 245.103 C 172.800 243.947,172.079 242.730,171.797 242.400 C 171.514 242.070,170.578 240.450,169.717 238.800 C 164.912 229.590,164.580 229.390,154.134 229.396 C 146.562 229.400,146.455 229.412,145.428 230.375 L 144.388 231.351 144.539 255.575 C 144.705 282.001,144.742 282.567,146.510 285.200 C 149.213 289.228,151.555 290.800,154.852 290.800 C 155.897 290.800,156.864 290.980,157.000 291.200 C 157.136 291.420,158.632 291.600,160.324 291.601 C 165.106 291.602,167.809 293.620,165.980 295.824 C 165.373 296.556,149.819 296.664,147.597 295.952 C 145.040 295.133,130.646 295.001,128.048 295.773 C 126.222 296.316,124.411 296.419,118.400 296.321 L 111.000 296.200 110.878 294.298 C 110.739 292.132,111.434 291.600,114.402 291.600 C 115.255 291.600,116.064 291.420,116.200 291.200 C 116.336 290.980,117.033 290.800,117.748 290.800 C 121.158 290.800,126.158 286.529,127.372 282.579 C 127.774 281.271,128.260 280.029,128.451 279.820 C 128.646 279.608,128.800 254.887,128.800 223.852 L 128.800 168.265 127.700 165.292 C 125.617 159.663,122.876 157.671,115.000 156.065 C 110.403 155.128,110.800 155.393,110.800 153.259 C 110.800 150.902,111.020 150.657,112.799 151.029 C 113.569 151.190,120.230 151.296,127.600 151.263 M145.485 159.511 L 144.400 160.644 144.400 190.295 L 144.400 219.946 145.562 220.773 C 146.866 221.701,171.644 222.099,172.200 221.200 C 172.336 220.980,173.146 220.800,174.000 220.800 C 174.854 220.800,175.650 220.643,175.768 220.452 C 175.886 220.260,176.500 220.000,177.132 219.874 C 179.073 219.485,182.607 217.698,184.406 216.195 C 185.347 215.409,186.496 214.571,186.958 214.334 C 188.028 213.785,191.992 209.548,191.997 208.949 C 191.999 208.701,192.250 208.290,192.557 208.036 C 194.631 206.314,197.042 199.411,197.550 193.736 C 197.711 191.941,198.079 190.187,198.368 189.839 C 198.805 189.312,198.785 188.976,198.247 187.842 C 197.883 187.075,197.600 185.468,197.600 184.168 C 197.600 181.914,197.234 180.303,196.139 177.740 C 195.842 177.046,195.600 176.276,195.600 176.028 C 195.600 171.775,183.375 160.400,178.804 160.400 C 178.538 160.400,177.754 160.142,177.060 159.827 C 175.022 158.901,172.493 158.720,159.185 158.545 L 146.570 158.379 145.485 159.511 M174.400 159.916 C 192.289 163.518,200.516 178.484,196.037 199.278 C 195.397 202.248,192.382 207.845,189.336 211.718 C 188.922 212.244,187.792 213.174,186.824 213.785 C 185.855 214.396,184.689 215.251,184.231 215.683 C 182.676 217.155,177.985 219.186,174.000 220.113 C 170.600 220.904,146.812 220.935,145.944 220.149 C 144.847 219.156,144.777 161.130,145.872 159.921 C 146.655 159.056,170.106 159.052,174.400 159.916 " stroke="none" fill="#d69cac" fill-rule="evenodd"></path><path id="path4" d="M261.058 101.075 C 260.907 101.226,259.482 101.470,257.892 101.616 L 255.000 101.883 257.600 101.911 C 259.956 101.936,264.302 100.908,262.167 100.830 C 261.708 100.814,261.210 100.924,261.058 101.075 M265.546 101.380 C 266.289 101.722,267.812 101.974,268.946 101.941 L 271.000 101.882 268.800 101.610 C 267.590 101.460,266.060 101.208,265.400 101.049 C 264.230 100.768,264.233 100.776,265.546 101.380 M253.200 102.400 C 252.667 102.745,252.667 102.788,253.200 102.788 C 253.530 102.788,254.070 102.613,254.400 102.400 C 254.933 102.055,254.933 102.012,254.400 102.012 C 254.070 102.012,253.530 102.187,253.200 102.400 M271.600 102.400 C 271.930 102.613,272.470 102.788,272.800 102.788 C 273.333 102.788,273.333 102.745,272.800 102.400 C 272.470 102.187,271.930 102.012,271.600 102.012 C 271.067 102.012,271.067 102.055,271.600 102.400 M248.691 104.342 C 245.686 105.959,243.727 107.458,243.407 108.388 C 243.291 108.725,243.673 108.465,244.256 107.811 C 244.838 107.157,246.954 105.768,248.957 104.724 C 250.961 103.680,252.330 102.839,252.000 102.855 C 251.670 102.871,250.181 103.541,248.691 104.342 M274.746 103.416 C 275.486 103.737,276.296 103.993,276.546 103.984 C 276.796 103.976,276.394 103.706,275.654 103.384 C 274.914 103.063,274.104 102.807,273.854 102.816 C 273.604 102.824,274.006 103.094,274.746 103.416 M280.000 105.680 C 280.000 105.822,281.260 107.214,282.800 108.772 C 284.340 110.331,285.600 111.465,285.600 111.292 C 285.600 111.120,284.340 109.728,282.800 108.200 C 281.260 106.672,280.000 105.538,280.000 105.680 M241.164 110.426 C 239.836 111.858,236.784 117.319,236.813 118.211 C 236.820 118.425,237.680 116.961,238.724 114.957 C 239.768 112.954,241.157 110.854,241.811 110.291 C 242.465 109.729,242.910 109.180,242.800 109.072 C 242.690 108.965,241.954 109.574,241.164 110.426 M258.600 110.652 C 257.687 111.098,257.639 111.167,258.400 110.939 C 259.721 110.543,267.073 110.517,268.600 110.904 C 269.628 111.164,269.599 111.125,268.400 110.634 C 266.502 109.857,260.202 109.869,258.600 110.652 M273.454 113.140 C 275.150 114.369,276.264 115.611,278.292 118.537 C 279.002 119.561,279.775 120.400,280.010 120.400 C 280.244 120.400,279.979 119.943,279.420 119.384 C 278.861 118.825,278.142 117.861,277.822 117.242 C 277.174 115.990,272.977 112.000,272.308 112.000 C 272.072 112.000,272.588 112.513,273.454 113.140 M253.004 113.423 C 251.420 114.498,250.187 115.600,250.568 115.600 C 250.750 115.600,254.136 113.145,254.767 112.556 C 255.310 112.048,254.291 112.549,253.004 113.423 M287.594 114.300 C 288.295 115.455,288.958 116.400,289.067 116.400 C 289.337 116.400,287.618 113.546,286.898 112.800 C 286.580 112.470,286.893 113.145,287.594 114.300 M249.366 116.692 C 248.580 117.477,247.036 120.770,247.320 121.054 C 247.423 121.157,247.709 120.663,247.955 119.956 C 248.202 119.249,248.862 118.070,249.422 117.336 C 250.518 115.899,250.489 115.568,249.366 116.692 M288.454 117.335 C 288.209 117.630,287.242 118.105,286.305 118.392 C 285.367 118.678,284.793 118.981,285.028 119.066 C 285.629 119.280,288.159 118.173,288.781 117.423 C 289.065 117.080,289.208 116.800,289.098 116.800 C 288.988 116.800,288.698 117.041,288.454 117.335 M236.200 119.600 C 236.050 120.073,236.017 120.550,236.127 120.660 C 236.237 120.770,236.450 120.473,236.600 120.000 C 236.750 119.527,236.783 119.050,236.673 118.940 C 236.563 118.830,236.350 119.127,236.200 119.600 M282.919 119.762 C 281.155 120.404,280.794 120.861,282.419 120.395 C 283.149 120.185,283.929 119.831,284.153 119.607 C 284.619 119.141,284.628 119.140,282.919 119.762 M235.540 122.800 C 235.407 123.790,235.183 125.050,235.044 125.600 C 234.878 126.256,235.007 126.136,235.417 125.251 C 235.761 124.509,235.984 123.249,235.913 122.451 L 235.783 121.000 235.540 122.800 M246.420 123.330 C 246.150 124.294,246.010 125.514,246.110 126.041 C 246.261 126.842,246.300 126.796,246.346 125.760 C 246.375 125.078,246.601 123.943,246.846 123.239 C 247.092 122.535,247.207 121.873,247.101 121.768 C 246.996 121.663,246.690 122.366,246.420 123.330 M245.452 128.100 C 245.121 129.337,245.190 153.234,245.528 154.086 C 245.678 154.463,245.800 148.568,245.800 140.986 C 245.800 133.404,245.776 127.200,245.747 127.200 C 245.717 127.200,245.585 127.605,245.452 128.100 M234.548 142.000 C 234.548 144.310,234.614 145.255,234.695 144.100 C 234.776 142.945,234.776 141.055,234.695 139.900 C 234.614 138.745,234.548 139.690,234.548 142.000 M265.427 139.570 C 265.044 139.994,264.815 140.669,264.919 141.070 C 265.074 141.670,265.115 141.643,265.154 140.923 C 265.179 140.440,265.600 139.765,266.089 139.423 C 266.578 139.080,266.786 138.800,266.551 138.800 C 266.316 138.800,265.810 139.147,265.427 139.570 M290.202 139.602 C 290.602 140.044,291.015 140.318,291.121 140.212 C 291.390 139.943,290.392 138.800,289.889 138.800 C 289.662 138.800,289.803 139.161,290.202 139.602 M291.369 148.800 C 291.369 153.310,291.427 155.155,291.498 152.900 C 291.570 150.645,291.570 146.955,291.498 144.700 C 291.427 142.445,291.369 144.290,291.369 148.800 M264.877 144.438 C 264.762 148.360,264.837 148.399,272.631 148.406 C 279.236 148.412,279.569 148.473,280.322 149.800 C 280.702 150.471,280.778 150.490,280.788 149.923 C 280.816 148.340,279.361 148.000,272.560 148.000 C 265.095 148.000,265.306 148.102,265.098 144.385 L 264.954 141.800 264.877 144.438 M151.700 149.900 C 156.485 149.963,164.315 149.963,169.100 149.900 C 173.885 149.836,169.970 149.784,160.400 149.784 C 150.830 149.784,146.915 149.836,151.700 149.900 M110.101 150.500 C 109.559 151.183,109.249 154.421,109.632 155.402 C 109.834 155.918,109.954 155.273,109.972 153.580 C 109.988 152.113,110.211 150.749,110.480 150.480 C 110.744 150.216,110.856 150.000,110.729 150.000 C 110.602 150.000,110.319 150.225,110.101 150.500 M113.738 150.494 C 114.318 150.863,140.353 150.842,141.285 150.472 C 141.662 150.322,135.514 150.200,127.623 150.200 C 119.732 150.200,113.484 150.332,113.738 150.494 M178.600 150.400 C 179.040 150.589,179.940 150.735,180.600 150.725 L 181.800 150.705 180.600 150.400 C 179.940 150.232,179.040 150.086,178.600 150.075 L 177.800 150.056 178.600 150.400 M184.746 151.416 C 185.486 151.737,186.476 151.988,186.946 151.973 C 187.426 151.958,187.012 151.698,186.000 151.379 C 183.680 150.648,183.022 150.667,184.746 151.416 M191.600 153.400 C 192.150 153.714,192.870 153.971,193.200 153.970 C 193.530 153.969,193.194 153.706,192.454 153.384 C 190.751 152.645,190.294 152.653,191.600 153.400 M195.633 154.928 C 195.725 154.998,196.520 155.452,197.400 155.936 L 199.000 156.816 197.800 155.810 C 197.140 155.257,196.345 154.803,196.033 154.802 C 195.722 154.801,195.542 154.857,195.633 154.928 M246.089 157.000 C 246.074 158.100,246.319 159.630,246.634 160.400 C 247.148 161.656,247.179 161.677,246.935 160.600 C 246.785 159.940,246.540 158.410,246.390 157.200 L 246.118 155.000 246.089 157.000 M280.229 156.629 C 280.081 157.215,280.038 157.772,280.132 157.866 C 280.227 157.960,280.424 157.558,280.571 156.971 C 280.719 156.385,280.762 155.828,280.668 155.734 C 280.573 155.640,280.376 156.042,280.229 156.629 M111.600 156.401 C 112.370 156.571,113.630 156.823,114.400 156.960 L 115.800 157.210 114.400 156.636 C 113.630 156.319,112.370 156.068,111.600 156.076 L 110.200 156.092 111.600 156.401 M235.010 157.400 C 235.146 158.060,235.401 159.410,235.575 160.400 L 235.893 162.200 235.947 160.546 C 235.976 159.636,235.721 158.286,235.381 157.546 C 234.764 156.205,234.763 156.204,235.010 157.400 M200.200 157.750 C 200.860 158.312,201.580 158.772,201.800 158.773 C 202.257 158.775,200.996 157.742,199.800 157.135 C 199.360 156.912,199.540 157.188,200.200 157.750 M117.000 157.600 C 118.196 158.114,119.195 158.114,118.400 157.600 C 118.070 157.387,117.440 157.222,117.000 157.234 L 116.200 157.256 117.000 157.600 M120.833 158.531 C 121.594 159.126,124.000 160.415,124.000 160.227 C 124.000 159.926,121.526 158.404,121.033 158.401 C 120.832 158.401,120.742 158.459,120.833 158.531 M279.664 159.440 C 279.522 162.188,277.646 165.630,274.725 168.500 C 273.033 170.163,273.177 170.586,274.894 168.994 C 277.634 166.453,280.155 161.689,279.893 159.547 L 279.728 158.200 279.664 159.440 M202.400 158.946 C 202.400 159.056,202.940 159.530,203.600 160.000 C 204.260 160.470,204.800 160.764,204.800 160.654 C 204.800 160.544,204.260 160.070,203.600 159.600 C 202.940 159.130,202.400 158.836,202.400 158.946 M290.622 159.483 C 290.469 159.877,290.190 161.010,290.000 162.000 C 289.810 162.990,289.539 164.160,289.397 164.600 C 289.200 165.213,289.230 165.260,289.527 164.800 C 289.995 164.074,291.278 159.145,291.056 158.923 C 290.970 158.836,290.774 159.088,290.622 159.483 M145.862 159.931 C 145.498 160.334,145.200 160.804,145.200 160.976 C 145.200 161.148,145.515 160.912,145.900 160.453 C 146.473 159.768,147.143 159.593,149.600 159.488 L 152.600 159.359 149.562 159.279 C 147.061 159.214,146.407 159.329,145.862 159.931 M168.033 159.345 C 168.125 159.424,169.277 159.596,170.592 159.725 C 172.146 159.879,172.777 159.830,172.392 159.587 C 171.851 159.244,167.649 159.011,168.033 159.345 M174.600 160.390 C 175.480 160.549,176.740 160.798,177.400 160.943 C 178.488 161.183,178.470 161.154,177.200 160.634 C 176.430 160.319,175.170 160.070,174.400 160.080 L 173.000 160.100 174.600 160.390 M124.406 160.444 C 124.403 160.578,124.938 161.748,125.595 163.044 C 126.252 164.340,126.792 165.168,126.795 164.884 C 126.798 164.600,126.447 163.700,126.015 162.884 C 125.083 161.120,124.415 160.106,124.406 160.444 M179.200 161.564 C 179.530 161.750,180.250 162.023,180.800 162.168 L 181.800 162.433 180.800 161.831 C 180.250 161.499,179.530 161.227,179.200 161.226 C 178.667 161.225,178.667 161.262,179.200 161.564 M182.000 162.570 C 182.000 162.688,182.765 163.168,183.700 163.638 C 184.635 164.107,185.982 164.928,186.693 165.461 C 187.479 166.050,187.899 166.202,187.764 165.849 C 187.549 165.290,182.000 162.133,182.000 162.570 M207.260 163.082 C 207.484 163.852,211.734 169.599,211.933 169.400 C 212.032 169.301,211.489 168.451,210.726 167.510 C 209.963 166.570,208.840 165.080,208.230 164.200 C 207.619 163.320,207.183 162.817,207.260 163.082 M248.000 164.283 C 248.000 164.537,248.855 165.622,249.900 166.695 C 250.945 167.768,251.242 168.005,250.560 167.223 C 249.878 166.440,249.023 165.355,248.660 164.811 C 248.297 164.267,248.000 164.029,248.000 164.283 M236.814 165.054 C 236.806 165.304,237.069 166.024,237.398 166.654 C 237.726 167.284,237.990 167.530,237.983 167.200 C 237.969 166.483,236.835 164.400,236.814 165.054 M127.080 166.600 C 127.486 168.122,127.470 278.983,127.064 280.600 C 126.772 281.760,126.783 281.755,127.381 280.454 C 128.323 278.405,128.323 168.792,127.380 166.746 C 126.789 165.462,126.775 165.455,127.080 166.600 M288.199 167.486 C 287.811 168.319,287.417 169.135,287.323 169.300 C 287.230 169.465,287.249 169.600,287.367 169.600 C 287.647 169.600,289.239 166.305,289.050 166.116 C 288.970 166.037,288.587 166.653,288.199 167.486 M190.820 169.500 C 191.578 170.325,192.333 171.171,192.499 171.380 C 192.687 171.617,192.800 171.611,192.800 171.363 C 192.800 170.906,190.141 168.000,189.722 168.000 C 189.569 168.000,190.063 168.675,190.820 169.500 M238.563 169.000 C 238.899 169.660,239.555 170.650,240.021 171.200 L 240.867 172.200 240.191 170.974 C 239.819 170.299,239.163 169.309,238.733 168.774 L 237.952 167.800 238.563 169.000 M252.601 169.202 C 252.869 169.636,255.200 170.934,255.200 170.650 C 255.200 170.556,254.559 170.101,253.776 169.639 C 252.993 169.177,252.464 168.980,252.601 169.202 M212.000 170.127 C 212.000 170.556,213.577 173.600,213.800 173.600 C 214.034 173.600,213.194 171.640,212.518 170.611 C 212.233 170.177,212.000 169.959,212.000 170.127 M285.600 171.800 C 284.919 172.790,284.452 173.600,284.562 173.600 C 284.672 173.600,285.319 172.790,286.000 171.800 C 286.681 170.810,287.148 170.000,287.038 170.000 C 286.928 170.000,286.281 170.810,285.600 171.800 M256.600 171.414 C 257.260 171.717,258.070 171.965,258.400 171.966 C 258.730 171.968,258.394 171.706,257.654 171.384 C 255.953 170.646,254.982 170.674,256.600 171.414 M269.850 171.083 C 269.694 171.239,268.719 171.485,267.683 171.630 L 265.800 171.893 267.600 171.932 C 268.590 171.954,269.850 171.714,270.400 171.400 C 271.058 171.024,271.184 170.824,270.767 170.814 C 270.418 170.806,270.006 170.928,269.850 171.083 M192.804 172.100 C 192.820 172.543,194.778 176.080,194.787 175.684 C 194.802 175.104,193.289 172.000,192.992 172.000 C 192.886 172.000,192.802 172.045,192.804 172.100 M259.684 172.461 C 259.968 172.641,260.560 172.788,261.000 172.788 C 261.440 172.788,262.032 172.641,262.316 172.461 C 262.626 172.263,262.103 172.133,261.000 172.133 C 259.897 172.133,259.374 172.263,259.684 172.461 M241.600 173.600 C 242.698 175.142,242.958 175.143,242.081 173.603 C 241.707 172.944,241.253 172.404,241.073 172.403 C 240.893 172.401,241.130 172.940,241.600 173.600 M214.057 174.800 C 214.059 175.350,214.303 176.430,214.600 177.200 C 215.305 179.030,215.310 178.322,214.609 175.800 C 214.288 174.642,214.055 174.221,214.057 174.800 M283.133 174.743 C 282.917 175.299,277.936 178.550,276.200 179.269 C 275.320 179.633,273.880 180.223,273.000 180.580 C 271.732 181.094,271.649 181.180,272.600 180.993 C 275.319 180.458,283.600 175.769,283.600 174.765 C 283.600 174.304,283.309 174.290,283.133 174.743 M244.951 176.800 C 246.208 177.680,247.360 178.400,247.513 178.400 C 247.921 178.400,243.464 175.228,243.034 175.213 C 242.832 175.206,243.695 175.920,244.951 176.800 M194.816 176.654 C 194.807 176.904,195.063 177.714,195.384 178.454 C 195.706 179.194,195.976 179.596,195.984 179.346 C 195.993 179.096,195.737 178.286,195.416 177.546 C 195.094 176.806,194.824 176.404,194.816 176.654 M215.206 180.433 C 215.209 181.185,215.392 182.070,215.612 182.400 C 215.891 182.819,215.933 182.458,215.750 181.200 C 215.425 178.959,215.198 178.640,215.206 180.433 M249.802 179.603 C 250.024 179.962,254.023 181.310,254.236 181.098 C 254.317 181.017,253.310 180.580,252.000 180.127 C 250.689 179.673,249.700 179.438,249.802 179.603 M196.056 180.400 C 196.056 180.730,196.211 181.360,196.400 181.800 C 196.617 182.304,196.744 182.378,196.744 182.000 C 196.744 181.670,196.589 181.040,196.400 180.600 C 196.183 180.096,196.056 180.022,196.056 180.400 M268.800 181.600 C 268.005 182.114,269.004 182.114,270.200 181.600 L 271.000 181.256 270.200 181.234 C 269.760 181.222,269.130 181.387,268.800 181.600 M259.682 182.296 C 261.158 182.373,263.678 182.373,265.282 182.297 C 266.887 182.221,265.680 182.158,262.600 182.158 C 259.520 182.157,258.207 182.219,259.682 182.296 M216.154 188.000 C 216.154 190.750,216.218 191.875,216.296 190.500 C 216.374 189.125,216.374 186.875,216.296 185.500 C 216.218 184.125,216.154 185.250,216.154 188.000 M196.950 189.000 C 196.950 190.593,197.073 191.401,197.247 190.956 C 197.410 190.540,197.544 189.660,197.544 189.000 C 197.544 188.340,197.410 187.460,197.247 187.044 C 197.073 186.599,196.950 187.407,196.950 189.000 M215.429 194.229 C 215.281 194.815,215.238 195.372,215.332 195.466 C 215.427 195.560,215.624 195.158,215.771 194.571 C 215.919 193.985,215.962 193.428,215.868 193.334 C 215.773 193.240,215.576 193.642,215.429 194.229 M196.229 196.629 C 196.081 197.215,196.038 197.772,196.132 197.866 C 196.227 197.960,196.424 197.558,196.571 196.971 C 196.719 196.385,196.762 195.828,196.668 195.734 C 196.573 195.640,196.376 196.042,196.229 196.629 M214.436 198.036 C 214.166 198.939,214.018 199.752,214.108 199.842 C 214.198 199.932,214.493 199.266,214.764 198.364 C 215.034 197.461,215.182 196.648,215.092 196.558 C 215.002 196.468,214.707 197.134,214.436 198.036 M195.522 199.400 C 195.386 200.060,195.166 201.050,195.033 201.600 C 194.869 202.280,194.992 202.169,195.417 201.251 C 195.761 200.508,195.981 199.518,195.906 199.051 C 195.796 198.361,195.723 198.427,195.522 199.400 M213.211 201.800 C 212.926 202.680,212.352 204.075,211.938 204.900 C 211.523 205.725,211.289 206.400,211.417 206.400 C 211.801 206.400,214.055 201.163,213.886 200.663 C 213.801 200.408,213.497 200.920,213.211 201.800 M192.661 206.100 C 191.647 207.915,191.193 208.951,191.652 208.401 C 192.477 207.415,194.955 202.800,194.659 202.800 C 194.575 202.800,193.676 204.285,192.661 206.100 M210.190 207.900 C 209.189 209.471,205.076 214.937,204.600 215.330 C 204.344 215.542,204.366 215.614,204.659 215.530 C 205.097 215.406,210.067 208.962,210.852 207.500 C 211.446 206.394,210.965 206.685,210.190 207.900 M189.000 211.331 C 188.120 212.249,186.860 213.409,186.200 213.909 C 185.293 214.596,185.435 214.558,186.782 213.752 C 188.537 212.702,189.621 211.674,190.421 210.300 C 190.999 209.307,190.807 209.446,189.000 211.331 M180.800 217.266 C 179.150 218.141,178.250 218.730,178.800 218.576 C 180.215 218.180,183.495 216.493,183.795 216.008 C 184.117 215.487,184.300 215.411,180.800 217.266 M203.018 217.018 C 201.583 218.454,201.745 218.794,203.200 217.400 C 203.860 216.768,204.400 216.194,204.400 216.125 C 204.400 215.796,203.948 216.088,203.018 217.018 M199.400 219.990 C 198.300 220.863,196.140 222.234,194.600 223.038 C 193.060 223.843,191.350 224.812,190.800 225.194 C 190.250 225.575,188.585 226.287,187.100 226.776 C 183.516 227.956,182.366 229.580,183.807 231.424 C 184.377 232.154,184.388 232.140,183.983 231.189 C 183.193 229.332,183.993 228.292,187.034 227.218 C 188.531 226.690,190.933 225.569,192.371 224.729 C 193.810 223.888,195.173 223.200,195.401 223.200 C 195.629 223.200,196.642 222.525,197.652 221.700 C 198.663 220.875,200.010 219.805,200.645 219.322 C 201.280 218.839,201.710 218.435,201.600 218.424 C 201.490 218.413,200.500 219.118,199.400 219.990 M145.200 219.152 C 145.200 219.542,146.755 220.998,146.923 220.764 C 146.987 220.674,146.626 220.201,146.120 219.714 C 145.614 219.227,145.200 218.974,145.200 219.152 M176.000 219.200 C 175.670 219.413,174.860 219.617,174.200 219.654 C 173.115 219.714,173.097 219.735,174.011 219.878 C 174.567 219.965,175.647 219.765,176.411 219.434 C 177.175 219.102,177.530 218.827,177.200 218.822 C 176.870 218.817,176.330 218.987,176.000 219.200 M171.200 220.400 C 170.667 220.745,170.667 220.788,171.200 220.788 C 171.530 220.788,172.070 220.613,172.400 220.400 C 172.933 220.055,172.933 220.012,172.400 220.012 C 172.070 220.012,171.530 220.187,171.200 220.400 M146.089 230.623 C 145.600 230.965,145.200 231.447,145.200 231.692 C 145.200 231.938,145.617 231.748,146.126 231.270 C 147.453 230.023,160.914 229.932,163.311 231.155 C 164.125 231.570,164.681 231.731,164.547 231.514 C 163.559 229.916,148.160 229.172,146.089 230.623 M166.599 235.243 C 168.622 238.523,169.404 239.440,167.929 236.800 C 166.000 233.348,165.398 232.405,165.123 232.403 C 164.971 232.401,165.635 233.679,166.599 235.243 M185.852 234.800 C 186.578 236.332,189.523 240.800,189.807 240.800 C 189.904 240.800,189.132 239.474,188.092 237.854 C 185.296 233.500,185.126 233.268,185.852 234.800 M168.800 238.997 C 168.800 239.487,170.472 242.061,170.665 241.868 C 170.761 241.772,170.381 241.018,169.820 240.191 C 169.259 239.365,168.800 238.827,168.800 238.997 M192.418 245.496 C 193.103 246.649,193.855 247.711,194.090 247.855 C 194.646 248.199,193.279 245.895,192.096 244.494 C 191.432 243.708,191.523 243.990,192.418 245.496 M172.000 244.628 C 172.000 244.943,174.397 248.400,174.616 248.400 C 174.713 248.400,174.239 247.500,173.562 246.400 C 172.418 244.540,172.000 244.066,172.000 244.628 M195.991 250.788 C 196.457 251.441,197.042 252.102,197.291 252.256 C 197.541 252.411,197.241 251.876,196.625 251.068 C 195.288 249.315,194.784 249.092,195.991 250.788 M178.599 255.243 C 180.622 258.523,181.404 259.440,179.929 256.800 C 178.000 253.348,177.398 252.405,177.123 252.403 C 176.971 252.401,177.635 253.679,178.599 255.243 M198.997 255.195 C 199.337 255.852,200.122 256.977,200.741 257.695 C 201.360 258.413,202.203 259.579,202.612 260.287 C 203.022 260.996,203.595 261.666,203.885 261.777 C 204.176 261.889,203.684 261.039,202.793 259.890 C 201.901 258.740,200.612 256.945,199.926 255.900 C 198.516 253.749,198.077 253.416,198.997 255.195 M182.410 261.327 C 182.889 262.139,183.468 262.919,183.698 263.060 C 184.246 263.399,182.757 260.869,182.070 260.295 C 181.778 260.051,181.931 260.516,182.410 261.327 M205.206 263.007 C 205.212 263.392,210.054 270.086,211.080 271.129 C 212.192 272.258,211.513 271.097,209.700 268.769 C 208.655 267.427,207.215 265.493,206.500 264.472 C 205.785 263.450,205.203 262.791,205.206 263.007 M186.225 267.131 C 186.651 267.863,187.259 268.673,187.575 268.931 C 187.935 269.225,187.861 268.904,187.375 268.069 C 186.949 267.337,186.341 266.527,186.025 266.269 C 185.665 265.975,185.739 266.296,186.225 267.131 M190.400 272.534 C 190.400 272.677,190.985 273.575,191.700 274.531 C 194.471 278.236,194.807 278.598,193.619 276.600 C 192.436 274.612,190.400 272.040,190.400 272.534 M213.902 274.600 C 214.365 275.260,216.866 277.870,219.460 280.400 L 224.176 285.000 218.802 279.400 C 215.846 276.320,213.345 273.710,213.243 273.600 C 213.142 273.490,213.438 273.940,213.902 274.600 M145.206 278.233 C 145.209 279.095,145.388 280.070,145.603 280.400 C 145.870 280.810,145.914 280.365,145.741 279.000 C 145.425 276.505,145.198 276.181,145.206 278.233 M146.180 282.489 C 146.354 284.047,148.045 286.835,149.644 288.200 C 150.210 288.683,150.073 288.403,149.298 287.495 C 147.840 285.784,146.816 283.951,146.340 282.200 C 146.042 281.102,146.028 281.126,146.180 282.489 M198.189 283.132 C 199.871 285.473,206.136 291.522,207.915 292.523 C 209.900 293.639,209.440 293.085,206.900 291.299 C 204.378 289.525,199.956 285.057,198.394 282.703 C 197.847 281.879,197.265 281.204,197.101 281.203 C 196.936 281.201,197.426 282.069,198.189 283.132 M125.984 283.448 C 125.712 284.274,124.619 285.820,123.555 286.883 C 121.577 288.861,122.072 288.927,124.150 286.962 C 125.285 285.889,127.050 282.516,126.673 282.140 C 126.567 282.033,126.257 282.622,125.984 283.448 M224.413 285.081 C 224.425 285.400,228.000 287.715,228.000 287.404 C 228.000 287.313,227.190 286.681,226.200 286.000 C 225.210 285.319,224.406 284.905,224.413 285.081 M119.000 289.411 C 117.748 289.824,117.617 289.942,118.400 289.955 C 118.950 289.964,119.850 289.714,120.400 289.400 C 121.617 288.704,121.133 288.708,119.000 289.411 M151.600 289.361 C 152.150 289.697,153.320 289.956,154.200 289.936 L 155.800 289.900 154.200 289.589 C 153.320 289.418,152.150 289.159,151.600 289.014 L 150.600 288.750 151.600 289.361 M156.600 290.400 C 157.040 290.589,157.670 290.744,158.000 290.744 C 158.378 290.744,158.304 290.617,157.800 290.400 C 157.360 290.211,156.730 290.056,156.400 290.056 C 156.022 290.056,156.096 290.183,156.600 290.400 M110.429 291.854 C 107.978 294.970,109.744 297.638,114.189 297.534 L 117.000 297.468 114.000 297.234 C 110.281 296.944,110.000 296.763,110.000 294.653 C 110.000 292.870,110.467 291.991,111.800 291.262 C 112.460 290.901,112.482 290.822,111.929 290.812 C 111.560 290.805,110.885 291.274,110.429 291.854 M164.800 291.460 C 165.570 291.788,166.425 292.347,166.700 292.704 C 166.998 293.091,167.200 293.158,167.200 292.871 C 167.200 292.290,164.844 290.790,164.000 290.834 C 163.670 290.851,164.030 291.133,164.800 291.460 M235.600 291.400 C 236.150 291.714,237.050 291.970,237.600 291.968 C 238.393 291.966,238.268 291.845,237.000 291.388 C 234.967 290.656,234.308 290.661,235.600 291.400 M209.801 293.602 C 210.069 294.036,212.400 295.334,212.400 295.050 C 212.400 294.956,211.759 294.501,210.976 294.039 C 210.193 293.577,209.664 293.380,209.801 293.602 M242.046 295.451 C 241.993 296.886,241.361 297.524,239.046 298.478 C 238.141 298.850,237.610 299.165,237.867 299.178 C 240.245 299.292,242.779 296.855,242.282 294.932 C 242.170 294.501,242.074 294.714,242.046 295.451 M212.809 295.317 C 213.137 295.685,219.258 298.075,219.431 297.903 C 219.516 297.817,218.374 297.253,216.893 296.649 C 213.875 295.416,212.498 294.967,212.809 295.317 M127.600 296.636 L 126.200 297.210 127.600 296.907 C 129.429 296.511,145.788 296.513,147.600 296.910 C 148.575 297.124,148.454 297.034,147.200 296.615 C 144.688 295.774,129.660 295.790,127.600 296.636 M160.700 297.493 C 161.635 297.577,163.165 297.577,164.100 297.493 C 165.035 297.409,164.270 297.340,162.400 297.340 C 160.530 297.340,159.765 297.409,160.700 297.493 M221.400 298.388 C 222.280 298.547,223.720 298.796,224.600 298.943 L 226.200 299.210 224.400 298.611 C 223.410 298.282,221.970 298.032,221.200 298.056 L 219.800 298.100 221.400 298.388 M229.715 299.496 C 230.988 299.576,232.968 299.575,234.115 299.494 C 235.262 299.414,234.220 299.349,231.800 299.350 C 229.380 299.351,228.442 299.416,229.715 299.496 " stroke="none" fill="#d28695" fill-rule="evenodd"></path></g></svg>