<svg id="svg" version="1.1" xmlns="http://www.w3.org/2000/svg" xmlns:xlink="http://www.w3.org/1999/xlink" width="400" height="400" viewBox="0, 0, 400,400"><g id="svgg"><path id="path0" d="M100.251 79.035 C 45.353 122.470,0.426 158.128,0.413 158.276 C 0.401 158.423,21.265 175.529,46.777 196.289 C 72.290 217.049,93.315 234.249,93.500 234.511 C 93.710 234.810,93.025 237.033,91.661 240.475 C 55.823 330.925,140.928 422.928,234.303 394.678 C 298.746 375.182,333.234 303.366,308.345 240.495 C 307.169 237.524,306.260 234.954,306.326 234.784 C 306.392 234.615,327.451 217.382,353.125 196.490 C 378.799 175.597,399.847 158.467,399.898 158.422 C 399.950 158.378,359.344 126.163,309.664 86.833 C 259.984 47.503,215.000 11.890,209.700 7.693 L 200.065 0.062 100.251 79.035 " stroke="none" fill="#d44c64" fill-rule="evenodd"></path><path id="path1" d="M195.152 3.515 C 193.022 5.211,191.001 6.907,190.659 7.282 C 190.318 7.657,190.830 7.348,191.797 6.596 C 197.354 2.272,199.695 0.295,199.121 0.410 C 199.067 0.421,197.281 1.818,195.152 3.515 M202.344 1.678 C 202.344 1.778,203.171 2.536,204.181 3.365 C 205.192 4.193,205.892 4.666,205.738 4.417 C 205.410 3.885,202.344 1.412,202.344 1.678 M185.777 10.937 C 183.647 12.633,181.626 14.328,181.284 14.704 C 180.943 15.079,181.455 14.770,182.422 14.018 C 187.979 9.693,190.320 7.717,189.746 7.832 C 189.692 7.843,187.906 9.240,185.777 10.937 M211.719 9.100 C 211.719 9.199,212.546 9.958,213.556 10.786 C 214.567 11.614,215.267 12.088,215.113 11.839 C 214.785 11.307,211.719 8.833,211.719 9.100 M176.402 18.359 C 174.272 20.055,172.251 21.750,171.909 22.125 C 171.568 22.501,172.080 22.192,173.047 21.440 C 178.604 17.115,180.945 15.139,180.371 15.254 C 180.317 15.265,178.531 16.662,176.402 18.359 M221.094 16.522 C 221.094 16.621,221.921 17.380,222.931 18.208 C 223.942 19.036,224.642 19.510,224.488 19.260 C 224.160 18.729,221.094 16.255,221.094 16.522 M167.027 25.780 C 164.897 27.477,162.876 29.172,162.534 29.547 C 162.193 29.922,162.705 29.614,163.672 28.861 C 169.229 24.537,171.570 22.560,170.996 22.676 C 170.942 22.687,169.156 24.084,167.027 25.780 M230.469 23.944 C 230.469 24.043,231.296 24.802,232.306 25.630 C 233.317 26.458,234.017 26.932,233.863 26.682 C 233.535 26.151,230.469 23.677,230.469 23.944 M157.652 33.202 C 155.522 34.899,153.501 36.594,153.159 36.969 C 152.818 37.344,153.330 37.036,154.297 36.283 C 159.854 31.959,162.195 29.982,161.621 30.098 C 161.567 30.109,159.781 31.506,157.652 33.202 M239.844 31.365 C 239.844 31.465,240.671 32.224,241.681 33.052 C 242.692 33.880,243.392 34.354,243.238 34.104 C 242.910 33.573,239.844 31.099,239.844 31.365 M148.277 40.624 C 146.147 42.321,144.126 44.016,143.784 44.391 C 143.443 44.766,143.955 44.457,144.922 43.705 C 150.479 39.381,152.820 37.404,152.246 37.520 C 152.192 37.530,150.406 38.928,148.277 40.624 M249.219 38.787 C 249.219 38.887,250.046 39.646,251.056 40.474 C 252.067 41.302,252.767 41.775,252.613 41.526 C 252.285 40.995,249.219 38.521,249.219 38.787 M138.902 48.046 C 136.772 49.743,134.751 51.438,134.409 51.813 C 134.068 52.188,134.580 51.879,135.547 51.127 C 141.104 46.803,143.445 44.826,142.871 44.942 C 142.817 44.952,141.031 46.349,138.902 48.046 M258.594 46.209 C 258.594 46.309,259.421 47.068,260.431 47.896 C 261.442 48.724,262.142 49.197,261.988 48.948 C 261.660 48.417,258.594 45.943,258.594 46.209 M129.527 55.468 C 127.397 57.165,125.376 58.860,125.034 59.235 C 124.693 59.610,125.205 59.301,126.172 58.549 C 131.729 54.225,134.070 52.248,133.496 52.363 C 133.442 52.374,131.656 53.771,129.527 55.468 M267.969 53.631 C 267.969 53.731,268.796 54.490,269.806 55.318 C 270.817 56.146,271.517 56.619,271.363 56.370 C 271.035 55.838,267.969 53.365,267.969 53.631 M120.152 62.890 C 118.022 64.586,116.001 66.282,115.659 66.657 C 115.318 67.032,115.830 66.723,116.797 65.971 C 122.354 61.647,124.695 59.670,124.121 59.785 C 124.067 59.796,122.281 61.193,120.152 62.890 M277.344 61.053 C 277.344 61.153,278.171 61.911,279.181 62.740 C 280.192 63.568,280.892 64.041,280.738 63.792 C 280.410 63.260,277.344 60.787,277.344 61.053 M110.777 70.312 C 108.647 72.008,106.626 73.703,106.284 74.079 C 105.943 74.454,106.455 74.145,107.422 73.393 C 112.979 69.068,115.320 67.092,114.746 67.207 C 114.692 67.218,112.906 68.615,110.777 70.312 M286.719 68.475 C 286.719 68.574,287.546 69.333,288.556 70.161 C 289.567 70.989,290.267 71.463,290.113 71.214 C 289.785 70.682,286.719 68.208,286.719 68.475 M101.402 77.734 C 99.272 79.430,97.251 81.125,96.909 81.500 C 96.568 81.876,97.080 81.567,98.047 80.815 C 103.604 76.490,105.945 74.514,105.371 74.629 C 105.317 74.640,103.531 76.037,101.402 77.734 M296.094 75.897 C 296.094 75.996,296.921 76.755,297.931 77.583 C 298.942 78.411,299.642 78.885,299.488 78.635 C 299.160 78.104,296.094 75.630,296.094 75.897 M92.027 85.155 C 89.897 86.852,87.876 88.547,87.534 88.922 C 87.193 89.297,87.705 88.989,88.672 88.236 C 94.229 83.912,96.570 81.935,95.996 82.051 C 95.942 82.062,94.156 83.459,92.027 85.155 M305.469 83.319 C 305.469 83.418,306.296 84.177,307.306 85.005 C 308.317 85.833,309.017 86.307,308.863 86.057 C 308.535 85.526,305.469 83.052,305.469 83.319 M82.652 92.577 C 80.522 94.274,78.501 95.969,78.159 96.344 C 77.818 96.719,78.330 96.411,79.297 95.658 C 84.854 91.334,87.195 89.357,86.621 89.473 C 86.567 89.484,84.781 90.881,82.652 92.577 M314.844 90.740 C 314.844 90.840,315.671 91.599,316.681 92.427 C 317.692 93.255,318.392 93.729,318.238 93.479 C 317.910 92.948,314.844 90.474,314.844 90.740 M73.277 99.999 C 71.147 101.696,69.126 103.391,68.784 103.766 C 68.443 104.141,68.955 103.832,69.922 103.080 C 75.479 98.756,77.820 96.779,77.246 96.895 C 77.192 96.905,75.406 98.303,73.277 99.999 M324.219 98.162 C 324.219 98.262,325.046 99.021,326.056 99.849 C 327.067 100.677,327.767 101.150,327.613 100.901 C 327.285 100.370,324.219 97.896,324.219 98.162 M63.902 107.421 C 61.772 109.118,59.751 110.813,59.409 111.188 C 59.068 111.563,59.580 111.254,60.547 110.502 C 66.104 106.178,68.445 104.201,67.871 104.317 C 67.817 104.327,66.031 105.724,63.902 107.421 M333.594 105.584 C 333.594 105.684,334.421 106.443,335.431 107.271 C 336.442 108.099,337.142 108.572,336.988 108.323 C 336.660 107.792,333.594 105.318,333.594 105.584 M54.527 114.843 C 52.397 116.540,50.376 118.235,50.034 118.610 C 49.693 118.985,50.205 118.676,51.172 117.924 C 56.729 113.600,59.070 111.623,58.496 111.738 C 58.442 111.749,56.656 113.146,54.527 114.843 M342.969 113.006 C 342.969 113.106,343.796 113.865,344.806 114.693 C 345.817 115.521,346.517 115.994,346.363 115.745 C 346.035 115.213,342.969 112.740,342.969 113.006 M45.152 122.265 C 43.022 123.961,41.001 125.657,40.659 126.032 C 40.318 126.407,40.830 126.098,41.797 125.346 C 47.354 121.022,49.695 119.045,49.121 119.160 C 49.067 119.171,47.281 120.568,45.152 122.265 M352.344 120.428 C 352.344 120.528,353.171 121.286,354.181 122.115 C 355.192 122.943,355.892 123.416,355.738 123.167 C 355.410 122.635,352.344 120.162,352.344 120.428 M35.777 129.687 C 33.647 131.383,31.626 133.078,31.284 133.454 C 30.943 133.829,31.455 133.520,32.422 132.768 C 37.979 128.443,40.320 126.467,39.746 126.582 C 39.692 126.593,37.906 127.990,35.777 129.687 M361.719 127.850 C 361.719 127.949,362.546 128.708,363.556 129.536 C 364.567 130.364,365.267 130.838,365.113 130.589 C 364.785 130.057,361.719 127.583,361.719 127.850 M26.402 137.109 C 24.272 138.805,22.251 140.500,21.909 140.875 C 21.568 141.251,22.080 140.942,23.047 140.190 C 28.604 135.865,30.945 133.889,30.371 134.004 C 30.317 134.015,28.531 135.412,26.402 137.109 M371.094 135.272 C 371.094 135.371,371.921 136.130,372.931 136.958 C 373.942 137.786,374.642 138.260,374.488 138.010 C 374.160 137.479,371.094 135.005,371.094 135.272 M17.027 144.530 C 14.897 146.227,12.876 147.922,12.534 148.297 C 12.193 148.672,12.705 148.364,13.672 147.611 C 19.229 143.287,21.570 141.310,20.996 141.426 C 20.942 141.437,19.156 142.834,17.027 144.530 M380.469 142.694 C 380.469 142.793,381.296 143.552,382.306 144.380 C 383.317 145.208,384.017 145.682,383.863 145.432 C 383.535 144.901,380.469 142.427,380.469 142.694 M7.652 151.952 C 5.522 153.649,3.501 155.344,3.159 155.719 C 2.818 156.094,3.330 155.786,4.297 155.033 C 9.854 150.709,12.195 148.732,11.621 148.848 C 11.567 148.859,9.781 150.256,7.652 151.952 M389.844 150.115 C 389.844 150.215,390.671 150.974,391.681 151.802 C 392.692 152.630,393.392 153.104,393.238 152.854 C 392.910 152.323,389.844 149.849,389.844 150.115 M0.979 157.234 L -0.191 158.190 0.968 159.271 L 2.126 160.352 1.211 159.299 L 0.296 158.247 1.417 157.261 C 2.855 155.997,2.518 155.976,0.979 157.234 M3.711 161.515 C 5.837 163.465,18.750 173.908,18.750 173.678 C 18.750 173.576,16.421 171.599,13.574 169.283 C 5.249 162.509,2.038 159.981,3.711 161.515 M395.117 162.352 L 393.164 164.142 395.215 162.503 C 396.991 161.085,397.553 160.523,397.168 160.555 C 397.114 160.559,396.191 161.368,395.117 162.352 M390.820 165.868 L 388.867 167.657 390.918 166.019 C 392.694 164.600,393.256 164.039,392.871 164.071 C 392.817 164.075,391.895 164.884,390.820 165.868 M384.570 170.946 L 382.617 172.735 384.668 171.097 C 386.444 169.678,387.006 169.117,386.621 169.149 C 386.567 169.153,385.645 169.962,384.570 170.946 M19.278 174.126 C 19.417 174.350,21.761 176.345,24.488 178.560 C 27.214 180.774,29.333 182.406,29.197 182.186 C 29.061 181.966,26.717 179.971,23.988 177.752 C 21.259 175.533,19.140 173.901,19.278 174.126 M378.320 176.024 L 376.367 177.814 378.418 176.175 C 380.194 174.756,380.756 174.195,380.371 174.227 C 380.317 174.231,379.395 175.040,378.320 176.024 M374.023 179.540 L 372.070 181.329 374.121 179.691 C 375.897 178.272,376.459 177.711,376.074 177.742 C 376.021 177.747,375.098 178.556,374.023 179.540 M31.055 183.781 C 33.181 185.730,46.094 196.174,46.094 195.943 C 46.094 195.842,43.765 193.864,40.918 191.548 C 32.592 184.775,29.382 182.246,31.055 183.781 M367.773 184.618 L 365.820 186.407 367.871 184.769 C 369.647 183.350,370.209 182.789,369.824 182.821 C 369.771 182.825,368.848 183.634,367.773 184.618 M363.477 188.134 L 361.523 189.923 363.574 188.284 C 365.350 186.866,365.913 186.304,365.527 186.336 C 365.474 186.341,364.551 187.149,363.477 188.134 M357.227 193.212 L 355.273 195.001 357.324 193.363 C 359.100 191.944,359.663 191.383,359.277 191.414 C 359.224 191.419,358.301 192.228,357.227 193.212 M46.622 196.391 C 46.761 196.616,49.105 198.611,51.831 200.826 C 54.558 203.040,56.677 204.672,56.541 204.452 C 56.405 204.232,54.061 202.236,51.332 200.017 C 48.603 197.799,46.483 196.167,46.622 196.391 M350.977 198.290 L 349.023 200.079 351.074 198.441 C 352.850 197.022,353.413 196.461,353.027 196.492 C 352.974 196.497,352.051 197.306,350.977 198.290 M346.680 201.805 L 344.727 203.595 346.777 201.956 C 348.553 200.538,349.116 199.976,348.730 200.008 C 348.677 200.012,347.754 200.821,346.680 201.805 M58.398 206.046 C 60.524 207.996,73.438 218.439,73.438 218.209 C 73.438 218.108,71.108 216.130,68.262 213.814 C 59.936 207.041,56.725 204.512,58.398 206.046 M340.430 206.884 L 338.477 208.673 340.527 207.034 C 342.303 205.616,342.866 205.054,342.480 205.086 C 342.427 205.091,341.504 205.899,340.430 206.884 M336.328 210.209 L 334.570 211.801 336.225 210.560 C 337.664 209.480,338.588 208.569,338.207 208.605 C 338.140 208.612,337.295 209.334,336.328 210.209 M329.883 215.477 L 327.930 217.267 329.980 215.628 C 331.756 214.210,332.319 213.648,331.934 213.680 C 331.880 213.684,330.957 214.493,329.883 215.477 M73.966 218.657 C 74.105 218.881,76.449 220.877,79.175 223.091 C 81.901 225.306,84.021 226.937,83.885 226.717 C 83.749 226.497,81.405 224.502,78.676 222.283 C 75.947 220.064,73.827 218.432,73.966 218.657 M323.633 220.555 L 321.680 222.345 323.730 220.706 C 325.506 219.288,326.069 218.726,325.684 218.758 C 325.630 218.762,324.707 219.571,323.633 220.555 M319.336 224.071 L 317.383 225.860 319.434 224.222 C 321.209 222.803,321.772 222.242,321.387 222.274 C 321.333 222.278,320.410 223.087,319.336 224.071 M84.375 227.095 C 84.375 227.288,92.104 233.679,93.359 234.524 C 93.880 234.874,93.880 234.851,93.359 234.318 C 92.371 233.306,84.375 226.878,84.375 227.095 M313.086 229.149 L 311.133 230.939 313.184 229.300 C 314.959 227.881,315.522 227.320,315.137 227.352 C 315.083 227.356,314.160 228.165,313.086 229.149 M308.984 232.475 L 307.227 234.067 308.881 232.825 C 310.320 231.745,311.244 230.834,310.863 230.871 C 310.797 230.877,309.951 231.599,308.984 232.475 " stroke="none" fill="#3b76d9" fill-rule="evenodd"></path><path id="path2" d="M91.320 240.341 C 88.041 248.665,84.276 262.915,84.407 266.506 C 84.424 266.988,84.866 265.098,85.388 262.305 C 86.705 255.262,89.078 246.995,91.636 240.537 C 92.826 237.533,93.734 235.011,93.654 234.930 C 93.574 234.850,92.523 237.285,91.320 240.341 M306.268 234.886 C 306.258 235.060,307.202 237.609,308.366 240.551 C 311.946 249.598,314.543 259.870,315.595 269.141 C 316.252 274.934,316.367 275.455,316.186 271.824 C 315.854 265.147,313.716 254.849,310.926 246.484 C 309.476 242.139,306.305 234.243,306.268 234.886 M83.779 270.888 C 83.625 272.739,83.583 274.338,83.687 274.442 C 83.790 274.546,83.998 273.113,84.149 271.258 C 84.299 269.404,84.341 267.804,84.241 267.704 C 84.141 267.604,83.933 269.037,83.779 270.888 M83.368 283.203 C 83.368 287.607,83.425 289.409,83.494 287.207 C 83.564 285.005,83.564 281.401,83.494 279.199 C 83.425 276.997,83.368 278.799,83.368 283.203 M316.571 283.203 C 316.571 287.607,316.628 289.409,316.698 287.207 C 316.767 285.005,316.767 281.401,316.698 279.199 C 316.628 276.997,316.571 278.799,316.571 283.203 M83.711 293.750 C 83.711 294.932,83.784 295.415,83.874 294.824 C 83.963 294.233,83.963 293.267,83.874 292.676 C 83.784 292.085,83.711 292.568,83.711 293.750 M316.133 293.750 C 316.133 294.932,316.206 295.415,316.295 294.824 C 316.385 294.233,316.385 293.267,316.295 292.676 C 316.206 292.085,316.133 292.568,316.133 293.750 M84.019 297.129 C 83.785 305.459,90.672 327.172,97.468 339.526 C 114.112 369.783,148.599 394.690,178.711 398.201 C 179.785 398.327,178.730 397.996,176.367 397.467 C 127.690 386.570,92.081 348.943,84.779 300.690 C 84.380 298.055,84.038 296.452,84.019 297.129 M315.469 298.672 C 315.322 300.101,315.282 301.350,315.379 301.447 C 315.477 301.544,315.681 300.460,315.833 299.036 C 315.986 297.613,316.026 296.364,315.923 296.261 C 315.819 296.158,315.615 297.243,315.469 298.672 M314.498 304.903 C 314.412 306.439,311.747 316.628,310.417 320.508 C 296.804 360.229,265.369 388.059,223.446 397.503 C 221.185 398.013,220.215 398.328,221.289 398.205 C 251.316 394.755,285.752 369.880,302.522 339.526 C 308.068 329.488,315.586 308.063,314.719 304.767 C 314.581 304.242,314.534 304.271,314.498 304.903 M182.227 398.851 C 183.086 399.028,184.316 399.162,184.961 399.147 C 185.840 399.128,185.693 399.043,184.375 398.808 C 182.018 398.389,180.170 398.425,182.227 398.851 M217.285 398.707 C 217.661 398.805,218.276 398.805,218.652 398.707 C 219.028 398.609,218.721 398.528,217.969 398.528 C 217.217 398.528,216.909 398.609,217.285 398.707 M214.551 399.097 C 214.927 399.196,215.542 399.196,215.918 399.097 C 216.294 398.999,215.986 398.919,215.234 398.919 C 214.482 398.919,214.175 398.999,214.551 399.097 M187.212 399.499 C 187.806 399.589,188.685 399.586,189.166 399.494 C 189.646 399.401,189.160 399.328,188.086 399.330 C 187.012 399.333,186.619 399.409,187.212 399.499 M211.041 399.499 C 211.634 399.589,212.513 399.586,212.994 399.494 C 213.474 399.401,212.988 399.328,211.914 399.330 C 210.840 399.333,210.447 399.409,211.041 399.499 M192.090 399.895 C 193.003 399.978,194.497 399.978,195.410 399.895 C 196.323 399.813,195.576 399.746,193.750 399.746 C 191.924 399.746,191.177 399.813,192.090 399.895 M204.590 399.895 C 205.503 399.978,206.997 399.978,207.910 399.895 C 208.823 399.813,208.076 399.746,206.250 399.746 C 204.424 399.746,203.677 399.813,204.590 399.895 " stroke="none" fill="#a4c4fc" fill-rule="evenodd"></path><path id="path3" d="" stroke="none" fill="#d84c88" fill-rule="evenodd"></path><path id="path4" d="" stroke="none" fill="#ac8c88" fill-rule="evenodd"></path></g></svg>